Alice-Light.ufo
<glyph name="exclam" format="1">
  <advance width="186"/>
  <unicode hex="0021"/>
  <outline>
    <contour>
      <point x="85" y="660" type="line"/>
      <point x="85" y="302" type="line"/>
      <point x="85" y="170" type="line"/>
      <point x="101" y="170" type="line"/>
      <point x="101" y="302" type="line"/>
      <point x="101" y="660" type="line"/>
    </contour>
    <component base="period" xOffset="17"/>
  </outline>
</glyph>
<glyph name="numbersign" format="1">
  <advance width="597"/>
  <unicode hex="0023"/>
  <outline>
    <contour>
      <point x="452" y="660" type="line"/>
      <point x="352" y="0" type="line"/>
      <point x="368" y="0" type="line"/>
      <point x="468" y="660" type="line"/>
    </contour>
    <contour>
      <point x="33" y="227" type="line"/>
      <point x="33" y="213" type="line"/>
      <point x="549" y="213" type="line"/>
      <point x="549" y="227" type="line"/>
    </contour>
    <contour>
      <point x="239" y="660" type="line"/>
      <point x="139" y="0" type="line"/>
      <point x="155" y="0" type="line"/>
      <point x="255" y="660" type="line"/>
    </contour>
    <contour>
      <point x="63" y="457" type="line"/>
      <point x="63" y="443" type="line"/>
      <point x="579" y="443" type="line"/>
      <point x="579" y="457" type="line"/>
    </contour>
  </outline>
</glyph>
<glyph name="dollar" format="1">
  <advance width="698"/>
  <unicode hex="0024"/>
  <outline>
    <contour>
      <point x="203" y="660"/>
      <point x="116" y="578"/>
      <point x="116" y="487" type="curve" smooth="yes"/>
      <point x="116" y="245"/>
      <point x="586" y="388"/>
      <point x="586" y="165" type="curve" smooth="yes"/>
      <point x="586" y="68"/>
      <point x="487" y="14"/>
      <point x="365" y="14" type="curve" smooth="yes"/>
      <point x="238" y="14"/>
      <point x="140" y="72"/>
      <point x="116" y="179" type="curve"/>
      <point x="101" y="171" type="line"/>
      <point x="129" y="60"/>
      <point x="230" y="0"/>
      <point x="365" y="0" type="curve" smooth="yes"/>
      <point x="509" y="0"/>
      <point x="602" y="68"/>
      <point x="602" y="165" type="curve" smooth="yes"/>
      <point x="602" y="408"/>
      <point x="132" y="260"/>
      <point x="132" y="487" type="curve" smooth="yes"/>
      <point x="132" y="577"/>
      <point x="217" y="646"/>
      <point x="351" y="646" type="curve" smooth="yes"/>
      <point x="471" y="646"/>
      <point x="552" y="602"/>
      <point x="579" y="502" type="curve"/>
      <point x="592" y="512" type="line"/>
      <point x="561" y="614"/>
      <point x="476" y="660"/>
      <point x="351" y="660" type="curve" smooth="yes"/>
    </contour>
    <contour>
      <point x="353" y="750" type="line"/>
      <point x="353" y="-90" type="line"/>
      <point x="367" y="-90" type="line"/>
      <point x="367" y="750" type="line"/>
    </contour>
    <contour>
      <point x="357" y="742" type="move" name="top"/>
    </contour>
    <contour>
      <point x="367" y="0" type="move" name="bottom"/>
    </contour>
  </outline>
</glyph>
<glyph name="percent" format="1">
  <advance width="822"/>
  <unicode hex="0025"/>
  <outline>
    <contour>
      <point x="519" y="341"/>
      <point x="478" y="259"/>
      <point x="478" y="174" type="curve" smooth="yes"/>
      <point x="478" y="89"/>
      <point x="520" y="8"/>
      <point x="618" y="8" type="curve" smooth="yes"/>
      <point x="716" y="8"/>
      <point x="756" y="89"/>
      <point x="756" y="174" type="curve" smooth="yes"/>
      <point x="756" y="259"/>
      <point x="716" y="341"/>
      <point x="618" y="341" type="curve" smooth="yes"/>
    </contour>
    <contour>
      <point x="106" y="658"/>
      <point x="66" y="575"/>
      <point x="66" y="490" type="curve" smooth="yes"/>
      <point x="66" y="405"/>
      <point x="107" y="325"/>
      <point x="205" y="325" type="curve" smooth="yes"/>
      <point x="303" y="325"/>
      <point x="343" y="405"/>
      <point x="343" y="490" type="curve" smooth="yes"/>
      <point x="343" y="575"/>
      <point x="303" y="658"/>
      <point x="205" y="658" type="curve" smooth="yes"/>
    </contour>
    <contour>
      <point x="290.36" y="644"/>
      <point x="327" y="570.167"/>
      <point x="327" y="490" type="curve" smooth="yes"/>
      <point x="327" y="409.93"/>
      <point x="290.514" y="339"/>
      <point x="205" y="339" type="curve" smooth="yes"/>
      <point x="119.381" y="339"/>
      <point x="82" y="409.997"/>
      <point x="82" y="490" type="curve" smooth="yes"/>
      <point x="82" y="570.167"/>
      <point x="118.64" y="644"/>
      <point x="205" y="644" type="curve" smooth="yes"/>
    </contour>
    <contour>
      <point x="703.41" y="327"/>
      <point x="740" y="254.135"/>
      <point x="740" y="174" type="curve" smooth="yes"/>
      <point x="740" y="93.897"/>
      <point x="703.462" y="22"/>
      <point x="618" y="22" type="curve" smooth="yes"/>
      <point x="532.331" y="22"/>
      <point x="494" y="94.028"/>
      <point x="494" y="174" type="curve" smooth="yes"/>
      <point x="494" y="254.07"/>
      <point x="531.485" y="327"/>
      <point x="618" y="327" type="curve" smooth="yes"/>
    </contour>
    <component base="fraction" xOffset="171"/>
  </outline>
</glyph>
<glyph name="ampersand" format="1">
  <advance width="607"/>
  <unicode hex="0026"/>
  <outline>
    <contour>
      <point x="597" y="2" type="line"/>
      <point x="539" y="13"/>
      <point x="516" y="25"/>
      <point x="343" y="239" type="curve" smooth="yes"/>
      <point x="176" y="446"/>
      <point x="148" y="470"/>
      <point x="148" y="533" type="curve" smooth="yes"/>
      <point x="148" y="605"/>
      <point x="197" y="652"/>
      <point x="272" y="652" type="curve" smooth="yes"/>
      <point x="344" y="652"/>
      <point x="390" y="611"/>
      <point x="390" y="548" type="curve" smooth="yes"/>
      <point x="390" y="483"/>
      <point x="339" y="425"/>
      <point x="229" y="366" type="curve" smooth="yes"/>
      <point x="113" y="303"/>
      <point x="63" y="238"/>
      <point x="63" y="149" type="curve" smooth="yes"/>
      <point x="63" y="58"/>
      <point x="145" y="-10"/>
      <point x="272" y="-10" type="curve" smooth="yes"/>
      <point x="464" y="-10"/>
      <point x="558" y="142"/>
      <point x="558" y="318" type="curve"/>
      <point x="543" y="318" type="line"/>
      <point x="543" y="125"/>
      <point x="438" y="4"/>
      <point x="269" y="4" type="curve" smooth="yes"/>
      <point x="154" y="4"/>
      <point x="79" y="67"/>
      <point x="79" y="149" type="curve" smooth="yes"/>
      <point x="79" y="233"/>
      <point x="127" y="294"/>
      <point x="239" y="354" type="curve" smooth="yes"/>
      <point x="353" y="415"/>
      <point x="406" y="477"/>
      <point x="406" y="548" type="curve" smooth="yes"/>
      <point x="406" y="620"/>
      <point x="353" y="666"/>
      <point x="272" y="666" type="curve" smooth="yes"/>
      <point x="187" y="666"/>
      <point x="132" y="614"/>
      <point x="132" y="533" type="curve" smooth="yes"/>
      <point x="132" y="462"/>
      <point x="174" y="421"/>
      <point x="329" y="231" type="curve" smooth="yes"/>
      <point x="514" y="5"/>
      <point x="536" y="0"/>
      <point x="593" y="-10" type="curve"/>
    </contour>
  </outline>
</glyph>
<glyph name="quotesingle" format="1">
  <advance width="151"/>
  <unicode hex="0027"/>
  <outline>
    <contour>
      <point x="67" y="680" type="line"/>
      <point x="67" y="521" type="line"/>
      <point x="84" y="521" type="line"/>
      <point x="84" y="680" type="line"/>
    </contour>
  </outline>
</glyph>
<glyph name="parenleft" format="1">
  <advance width="430"/>
  <unicode hex="0028"/>
  <outline>
    <contour>
      <point x="211" y="639"/>
      <point x="143" y="476"/>
      <point x="143" y="285" type="curve"/>
      <point x="143" y="94"/>
      <point x="211" y="-70"/>
      <point x="341" y="-196" type="curve"/>
      <point x="348" y="-189" type="line"/>
      <point x="215" y="-60"/>
      <point x="164" y="86"/>
      <point x="164" y="285" type="curve"/>
      <point x="164" y="484"/>
      <point x="215" y="630"/>
      <point x="348" y="759" type="curve"/>
      <point x="341" y="766" type="line"/>
    </contour>
  </outline>
</glyph>
<glyph name="plus" format="1">
  <advance width="577"/>
  <unicode hex="002B"/>
  <outline>
    <contour>
      <point x="281" y="534" type="line"/>
      <point x="281" y="48" type="line"/>
      <point x="297" y="48" type="line"/>
      <point x="297" y="534" type="line"/>
    </contour>
    <contour>
      <point x="57" y="300" type="line"/>
      <point x="57" y="286" type="line"/>
      <point x="520" y="286" type="line"/>
      <point x="520" y="300" type="line"/>
    </contour>
  </outline>
</glyph>
<glyph name="comma" format="1">
  <advance width="163"/>
  <unicode hex="002C"/>
  <outline>
    <contour>
      <point x="73" y="45"/>
      <point x="63" y="34"/>
      <point x="63" y="20" type="curve" smooth="yes"/>
      <point x="63" y="6"/>
      <point x="73" y="-5"/>
      <point x="86" y="-5" type="curve" smooth="yes"/>
      <point x="95" y="-5"/>
      <point x="101" y="-1"/>
      <point x="104" y="6" type="curve"/>
      <point x="106" y="6" type="line"/>
      <point x="120" y="-26"/>
      <point x="92" y="-81"/>
      <point x="51" y="-98" type="curve"/>
      <point x="63" y="-107" type="line"/>
      <point x="102" y="-86"/>
      <point x="122" y="-44"/>
      <point x="122" y="-6" type="curve" smooth="yes"/>
      <point x="122" y="20"/>
      <point x="112" y="45"/>
      <point x="89" y="45" type="curve" smooth="yes"/>
    </contour>
  </outline>
</glyph>
<glyph name="hyphen" format="1">
  <advance width="401"/>
  <unicode hex="002D"/>
  <outline>
    <contour>
      <point x="60" y="278" type="line"/>
      <point x="60" y="262" type="line"/>
      <point x="341" y="262" type="line"/>
      <point x="341" y="278" type="line"/>
    </contour>
  </outline>
</glyph>
<glyph name="period" format="1">
  <advance width="176"/>
  <unicode hex="002E"/>
  <outline>
    <contour>
      <point x="73" y="45"/>
      <point x="63" y="34"/>
      <point x="63" y="20" type="curve" smooth="yes"/>
      <point x="63" y="6"/>
      <point x="73" y="-5"/>
      <point x="87" y="-5" type="curve" smooth="yes"/>
      <point x="101" y="-5"/>
      <point x="113" y="6"/>
      <point x="113" y="20" type="curve" smooth="yes"/>
      <point x="113" y="34"/>
      <point x="101" y="45"/>
      <point x="87" y="45" type="curve" smooth="yes"/>
    </contour>
  </outline>
</glyph>
<glyph name="slash" format="1">
  <advance width="459"/>
  <unicode hex="002F"/>
  <outline>
    <contour>
      <point x="383" y="757" type="line"/>
      <point x="70" y="-77" type="line"/>
      <point x="77" y="-77" type="line"/>
      <point x="389" y="757" type="line"/>
    </contour>
  </outline>
</glyph>
<glyph name="zero" format="1">
  <advance width="571"/>
  <unicode hex="0030"/>
  <outline>
    <contour>
      <point x="135" y="670"/>
      <point x="51" y="549"/>
      <point x="51" y="330" type="curve" smooth="yes"/>
      <point x="51" y="111"/>
      <point x="135" y="-10"/>
      <point x="286" y="-10" type="curve" smooth="yes"/>
      <point x="437" y="-10"/>
      <point x="520" y="111"/>
      <point x="520" y="330" type="curve" smooth="yes"/>
      <point x="520" y="549"/>
      <point x="437" y="670"/>
      <point x="286" y="670" type="curve" smooth="yes"/>
    </contour>
    <contour>
      <point x="426" y="657"/>
      <point x="504" y="541"/>
      <point x="504" y="330" type="curve" smooth="yes"/>
      <point x="504" y="119"/>
      <point x="426" y="3"/>
      <point x="286" y="3" type="curve" smooth="yes"/>
      <point x="145" y="3"/>
      <point x="67" y="119"/>
      <point x="67" y="330" type="curve" smooth="yes"/>
      <point x="67" y="541"/>
      <point x="145" y="657"/>
      <point x="286" y="657" type="curve" smooth="yes"/>
    </contour>
  </outline>
</glyph>
<glyph name="one" format="1">
  <advance width="303"/>
  <unicode hex="0031"/>
  <outline>
    <contour>
      <point x="218" y="660" type="line"/>
      <point x="202" y="660" type="line"/>
      <point x="202" y="518" type="line"/>
      <point x="202" y="0" type="line"/>
      <point x="218" y="0" type="line"/>
      <point x="218" y="518" type="line"/>
    </contour>
    <contour>
      <point x="22" y="499" type="line"/>
      <point x="101" y="525"/>
      <point x="180" y="582"/>
      <point x="218" y="660" type="curve"/>
      <point x="202" y="660" type="line"/>
      <point x="168" y="589"/>
      <point x="93" y="538"/>
      <point x="22" y="513" type="curve"/>
    </contour>
  </outline>
</glyph>
<glyph name="two" format="1">
  <advance width="543"/>
  <unicode hex="0032"/>
  <outline>
    <contour>
      <point x="137" y="670"/>
      <point x="57" y="589"/>
      <point x="51" y="464" type="curve"/>
      <point x="66" y="458" type="line"/>
      <point x="71" y="578"/>
      <point x="146" y="656"/>
      <point x="264" y="656" type="curve" smooth="yes"/>
      <point x="380" y="656"/>
      <point x="452" y="588"/>
      <point x="452" y="475" type="curve" smooth="yes"/>
      <point x="452" y="336"/>
      <point x="294" y="211"/>
      <point x="58" y="14" type="curve"/>
      <point x="75" y="6" type="line"/>
      <point x="318" y="210"/>
      <point x="468" y="328"/>
      <point x="467" y="475" type="curve" smooth="yes"/>
      <point x="468" y="597"/>
      <point x="390" y="670"/>
      <point x="264" y="670" type="curve" smooth="yes"/>
    </contour>
    <contour>
      <point x="106" y="14" type="line"/>
      <point x="58" y="14" type="line"/>
      <point x="58" y="0" type="line"/>
      <point x="106" y="0" type="line"/>
      <point x="496" y="0" type="line"/>
      <point x="496" y="14" type="line"/>
    </contour>
  </outline>
</glyph>
<glyph name="three" format="1">
  <advance width="510"/>
  <unicode hex="0033"/>
  <outline>
    <contour>
      <point x="232" y="337" type="line"/>
      <point x="232" y="326" type="line"/>
      <point x="282" y="326" type="line" smooth="yes"/>
      <point x="392" y="326"/>
      <point x="451" y="252"/>
      <point x="451" y="174" type="curve" smooth="yes"/>
      <point x="451" y="66"/>
      <point x="368" y="4"/>
      <point x="266" y="4" type="curve" smooth="yes"/>
      <point x="149" y="4"/>
      <point x="76" y="62"/>
      <point x="58" y="150" type="curve"/>
      <point x="44" y="141" type="line"/>
      <point x="65" y="50"/>
      <point x="144" y="-10"/>
      <point x="266" y="-10" type="curve" smooth="yes"/>
      <point x="376" y="-10"/>
      <point x="467" y="58"/>
      <point x="467" y="172" type="curve" smooth="yes"/>
      <point x="467" y="258"/>
      <point x="403" y="337"/>
      <point x="284" y="337" type="curve" smooth="yes"/>
    </contour>
    <contour>
      <point x="170" y="670"/>
      <point x="98" y="619"/>
      <point x="69" y="535" type="curve"/>
      <point x="85" y="526" type="line"/>
      <point x="109" y="607"/>
      <point x="175" y="656"/>
      <point x="261" y="656" type="curve" smooth="yes"/>
      <point x="369" y="656"/>
      <point x="434" y="597"/>
      <point x="434" y="498" type="curve" smooth="yes"/>
      <point x="434" y="412"/>
      <point x="382" y="340"/>
      <point x="282" y="340" type="curve" smooth="yes"/>
      <point x="232" y="340" type="line"/>
      <point x="232" y="329" type="line"/>
      <point x="284" y="329" type="line" smooth="yes"/>
      <point x="393" y="329"/>
      <point x="450" y="405"/>
      <point x="450" y="498" type="curve" smooth="yes"/>
      <point x="450" y="606"/>
      <point x="379" y="670"/>
      <point x="261" y="670" type="curve" smooth="yes"/>
    </contour>
  </outline>
</glyph>
<glyph name="four" format="1">
  <advance width="529"/>
  <unicode hex="0034"/>
  <outline>
    <contour>
      <point x="339" y="660" type="line"/>
      <point x="277" y="568" type="line"/>
      <point x="92" y="294" type="line"/>
      <point x="41" y="219" type="line"/>
      <point x="55" y="213" type="line"/>
      <point x="103" y="284" type="line"/>
      <point x="294" y="565" type="line"/>
      <point x="358" y="660" type="line"/>
    </contour>
    <contour>
      <point x="119" y="219" type="line"/>
      <point x="41" y="219" type="line"/>
      <point x="41" y="205" type="line"/>
      <point x="120" y="205" type="line"/>
      <point x="505" y="205" type="line"/>
      <point x="505" y="219" type="line"/>
    </contour>
    <contour>
      <point x="350" y="660" type="line"/>
      <point x="350" y="525" type="line"/>
      <point x="350" y="0" type="line"/>
      <point x="366" y="0" type="line"/>
      <point x="366" y="525" type="line"/>
      <point x="366" y="660" type="line"/>
    </contour>
  </outline>
</glyph>
<glyph name="five" format="1">
  <advance width="539"/>
  <unicode hex="0035"/>
  <outline>
    <contour>
      <point x="163" y="400"/>
      <point x="105" y="349"/>
      <point x="77" y="301" type="curve"/>
      <point x="87" y="301" type="line"/>
      <point x="118" y="342"/>
      <point x="173" y="386"/>
      <point x="281" y="386" type="curve" smooth="yes"/>
      <point x="393" y="386"/>
      <point x="471" y="308"/>
      <point x="471" y="196" type="curve" smooth="yes"/>
      <point x="471" y="83"/>
      <point x="391" y="4"/>
      <point x="276" y="4" type="curve" smooth="yes"/>
      <point x="161" y="4"/>
      <point x="82" y="50"/>
      <point x="65" y="155" type="curve"/>
      <point x="51" y="149" type="line"/>
      <point x="74" y="31"/>
      <point x="162" y="-10"/>
      <point x="276" y="-10" type="curve" smooth="yes"/>
      <point x="400" y="-10"/>
      <point x="487" y="75"/>
      <point x="487" y="196" type="curve" smooth="yes"/>
      <point x="487" y="316"/>
      <point x="402" y="400"/>
      <point x="281" y="400" type="curve" smooth="yes"/>
    </contour>
    <contour>
      <point x="103" y="660" type="line"/>
      <point x="73" y="301" type="line"/>
      <point x="87" y="301" type="line"/>
      <point x="117" y="660" type="line"/>
    </contour>
    <contour>
      <point x="110" y="660" type="line"/>
      <point x="108" y="646" type="line"/>
      <point x="462" y="646" type="line"/>
      <point x="462" y="660" type="line"/>
    </contour>
  </outline>
</glyph>
<glyph name="six" format="1">
  <advance width="547"/>
  <unicode hex="0036"/>
  <outline>
    <contour>
      <point x="423" y="-10"/>
      <point x="507" y="69"/>
      <point x="507" y="192" type="curve" smooth="yes"/>
      <point x="507" y="315"/>
      <point x="430" y="395"/>
      <point x="297" y="395" type="curve" smooth="yes"/>
      <point x="198" y="395"/>
      <point x="82" y="319"/>
      <point x="87" y="194" type="curve"/>
      <point x="84" y="194" type="line"/>
      <point x="51" y="391"/>
      <point x="89" y="656"/>
      <point x="313" y="656" type="curve" smooth="yes"/>
      <point x="404" y="656"/>
      <point x="457" y="607"/>
      <point x="476" y="543" type="curve"/>
      <point x="491" y="550" type="line"/>
      <point x="468" y="618"/>
      <point x="413" y="670"/>
      <point x="313" y="670" type="curve" smooth="yes"/>
      <point x="167" y="670"/>
      <point x="58" y="558"/>
      <point x="58" y="330" type="curve" smooth="yes"/>
      <point x="58" y="103"/>
      <point x="137" y="-10"/>
      <point x="293" y="-10" type="curve" smooth="yes"/>
    </contour>
    <contour>
      <point x="177" y="4"/>
      <point x="98" y="86"/>
      <point x="98" y="194" type="curve" smooth="yes"/>
      <point x="98" y="284"/>
      <point x="177" y="381"/>
      <point x="297" y="381" type="curve" smooth="yes"/>
      <point x="418" y="381"/>
      <point x="491" y="306"/>
      <point x="491" y="194" type="curve" smooth="yes"/>
      <point x="491" y="80"/>
      <point x="414" y="4"/>
      <point x="292" y="4" type="curve" smooth="yes"/>
    </contour>
  </outline>
</glyph>
<glyph name="seven" format="1">
  <advance width="444"/>
  <unicode hex="0037"/>
  <outline>
    <contour>
      <point x="272" y="470"/>
      <point x="192" y="256"/>
      <point x="171" y="0" type="curve"/>
      <point x="188" y="0" type="line"/>
      <point x="209" y="265"/>
      <point x="295" y="473"/>
      <point x="456" y="646" type="curve"/>
      <point x="445" y="655" type="line"/>
    </contour>
    <contour>
      <point x="-7" y="660" type="line"/>
      <point x="-7" y="646" type="line"/>
      <point x="456" y="646" type="line"/>
      <point x="456" y="660" type="line"/>
    </contour>
  </outline>
</glyph>
<glyph name="eight" format="1">
  <advance width="515"/>
  <unicode hex="0038"/>
  <outline>
    <contour>
      <point x="125" y="352"/>
      <point x="32" y="276"/>
      <point x="32" y="169" type="curve" smooth="yes"/>
      <point x="32" y="64"/>
      <point x="125" y="-10"/>
      <point x="258" y="-10" type="curve" smooth="yes"/>
      <point x="390" y="-10"/>
      <point x="483" y="64"/>
      <point x="483" y="169" type="curve" smooth="yes"/>
      <point x="483" y="276"/>
      <point x="390" y="352"/>
      <point x="258" y="352" type="curve" smooth="yes"/>
    </contour>
    <contour>
      <point x="381" y="339"/>
      <point x="467" y="268"/>
      <point x="467" y="169" type="curve" smooth="yes"/>
      <point x="467" y="72"/>
      <point x="381" y="4"/>
      <point x="258" y="4" type="curve" smooth="yes"/>
      <point x="134" y="4"/>
      <point x="48" y="72"/>
      <point x="48" y="169" type="curve" smooth="yes"/>
      <point x="48" y="268"/>
      <point x="134" y="339"/>
      <point x="258" y="339" type="curve" smooth="yes"/>
    </contour>
    <contour>
      <point x="368" y="656"/>
      <point x="440" y="598"/>
      <point x="440" y="508" type="curve" smooth="yes"/>
      <point x="440" y="417"/>
      <point x="368" y="355"/>
      <point x="258" y="355" type="curve" smooth="yes"/>
      <point x="148" y="355"/>
      <point x="76" y="417"/>
      <point x="76" y="508" type="curve" smooth="yes"/>
      <point x="76" y="598"/>
      <point x="148" y="656"/>
      <point x="258" y="656" type="curve" smooth="yes"/>
    </contour>
    <contour>
      <point x="138" y="670"/>
      <point x="60" y="606"/>
      <point x="60" y="508" type="curve" smooth="yes"/>
      <point x="60" y="408"/>
      <point x="138" y="342"/>
      <point x="258" y="342" type="curve" smooth="yes"/>
      <point x="378" y="342"/>
      <point x="456" y="408"/>
      <point x="456" y="508" type="curve" smooth="yes"/>
      <point x="456" y="606"/>
      <point x="378" y="670"/>
      <point x="258" y="670" type="curve" smooth="yes"/>
    </contour>
  </outline>
</glyph>
<glyph name="nine" format="1">
  <advance width="556"/>
  <unicode hex="0039"/>
  <outline>
    <contour>
      <point x="133" y="670"/>
      <point x="49" y="591"/>
      <point x="49" y="468" type="curve" smooth="yes"/>
      <point x="49" y="345"/>
      <point x="130" y="265"/>
      <point x="260" y="265" type="curve" smooth="yes"/>
      <point x="363" y="265"/>
      <point x="475" y="341"/>
      <point x="470" y="470" type="curve"/>
      <point x="471" y="470" type="line"/>
      <point x="504" y="286"/>
      <point x="479" y="4"/>
      <point x="264" y="4" type="curve" smooth="yes"/>
      <point x="153" y="4"/>
      <point x="86" y="58"/>
      <point x="72" y="139" type="curve"/>
      <point x="55" y="130" type="line"/>
      <point x="73" y="47"/>
      <point x="155" y="-10"/>
      <point x="264" y="-10" type="curve" smooth="yes"/>
      <point x="399" y="-10"/>
      <point x="498" y="102"/>
      <point x="498" y="330" type="curve" smooth="yes"/>
      <point x="498" y="547"/>
      <point x="415" y="670"/>
      <point x="263" y="670" type="curve" smooth="yes"/>
    </contour>
    <contour>
      <point x="379" y="656"/>
      <point x="458" y="574"/>
      <point x="458" y="466" type="curve" smooth="yes"/>
      <point x="458" y="376"/>
      <point x="379" y="279"/>
      <point x="260" y="279" type="curve" smooth="yes"/>
      <point x="142" y="279"/>
      <point x="65" y="354"/>
      <point x="65" y="466" type="curve" smooth="yes"/>
      <point x="65" y="580"/>
      <point x="142" y="656"/>
      <point x="264" y="656" type="curve" smooth="yes"/>
    </contour>
  </outline>
</glyph>
<glyph name="less" format="1">
  <advance width="577"/>
  <unicode hex="003C"/>
  <outline>
    <contour>
      <point x="72" y="305" type="line"/>
      <point x="72" y="288" type="line"/>
      <point x="524" y="531" type="line"/>
      <point x="524" y="549" type="line"/>
    </contour>
    <contour>
      <point x="72" y="286" type="line"/>
      <point x="524" y="32" type="line"/>
      <point x="524" y="50" type="line"/>
      <point x="72" y="303" type="line"/>
    </contour>
  </outline>
</glyph>
<glyph name="equal" format="1">
  <advance width="577"/>
  <unicode hex="003D"/>
  <outline>
    <contour>
      <point x="62" y="412" type="line"/>
      <point x="62" y="398" type="line"/>
      <point x="515" y="398" type="line"/>
      <point x="515" y="412" type="line"/>
    </contour>
    <contour>
      <point x="62" y="193" type="line"/>
      <point x="62" y="179" type="line"/>
      <point x="515" y="179" type="line"/>
      <point x="515" y="193" type="line"/>
    </contour>
  </outline>
</glyph>
<glyph name="question" format="1">
  <advance width="501"/>
  <unicode hex="003F"/>
  <outline>
    <contour>
      <point x="142" y="670"/>
      <point x="65" y="607"/>
      <point x="48" y="501" type="curve"/>
      <point x="62" y="495" type="line"/>
      <point x="76" y="596"/>
      <point x="148" y="656"/>
      <point x="252" y="656" type="curve" smooth="yes"/>
      <point x="366" y="656"/>
      <point x="434" y="598"/>
      <point x="434" y="501" type="curve" smooth="yes"/>
      <point x="434" y="362"/>
      <point x="238" y="332"/>
      <point x="228" y="170" type="curve"/>
      <point x="244" y="170" type="line"/>
      <point x="253" y="320"/>
      <point x="450" y="350"/>
      <point x="450" y="501" type="curve" smooth="yes"/>
      <point x="450" y="607"/>
      <point x="376" y="670"/>
      <point x="252" y="670" type="curve" smooth="yes"/>
    </contour>
    <component base="period" xOffset="149"/>
  </outline>
</glyph>
<glyph name="at" format="1">
  <advance width="925"/>
  <unicode hex="0040"/>
  <outline>
    <contour>
      <point x="213" y="670"/>
      <point x="47" y="501"/>
      <point x="47" y="234" type="curve" smooth="yes"/>
      <point x="47" y="-34"/>
      <point x="222" y="-201"/>
      <point x="483" y="-201" type="curve" smooth="yes"/>
      <point x="571" y="-201"/>
      <point x="669" y="-170"/>
      <point x="728" y="-120" type="curve"/>
      <point x="718" y="-107" type="line"/>
      <point x="663" y="-159"/>
      <point x="565" y="-187"/>
      <point x="483" y="-187" type="curve" smooth="yes"/>
      <point x="232" y="-187"/>
      <point x="63" y="-25"/>
      <point x="63" y="234" type="curve" smooth="yes"/>
      <point x="63" y="492"/>
      <point x="223" y="656"/>
      <point x="469" y="656" type="curve" smooth="yes"/>
      <point x="761" y="656"/>
      <point x="862" y="454"/>
      <point x="862" y="245" type="curve" smooth="yes"/>
      <point x="862" y="94"/>
      <point x="823" y="4"/>
      <point x="757" y="4" type="curve" smooth="yes"/>
      <point x="698" y="4"/>
      <point x="670" y="52"/>
      <point x="670" y="132" type="curve" smooth="yes"/>
      <point x="670" y="456" type="line"/>
      <point x="656" y="456" type="line"/>
      <point x="656" y="349" type="line"/>
      <point x="656" y="121" type="line" smooth="yes"/>
      <point x="656" y="39"/>
      <point x="688" y="-10"/>
      <point x="754" y="-10" type="curve" smooth="yes"/>
      <point x="832" y="-10"/>
      <point x="878" y="85"/>
      <point x="878" y="245" type="curve" smooth="yes"/>
      <point x="878" y="460"/>
      <point x="771" y="670"/>
      <point x="469" y="670" type="curve" smooth="yes"/>
    </contour>
    <contour>
      <point x="329" y="475"/>
      <point x="242" y="381"/>
      <point x="242" y="235" type="curve" smooth="yes"/>
      <point x="242" y="86"/>
      <point x="329" y="-10"/>
      <point x="464" y="-10" type="curve" smooth="yes"/>
      <point x="589" y="-10"/>
      <point x="666" y="81"/>
      <point x="666" y="221" type="curve"/>
      <point x="656" y="221" type="line"/>
      <point x="656" y="99"/>
      <point x="583" y="4"/>
      <point x="464" y="4" type="curve" smooth="yes"/>
      <point x="339" y="4"/>
      <point x="258" y="95"/>
      <point x="258" y="235" type="curve" smooth="yes"/>
      <point x="258" y="372"/>
      <point x="339" y="461"/>
      <point x="464" y="461" type="curve" smooth="yes"/>
      <point x="583" y="461"/>
      <point x="656" y="368"/>
      <point x="656" y="251" type="curve"/>
      <point x="666" y="251" type="line"/>
      <point x="666" y="387"/>
      <point x="589" y="475"/>
      <point x="464" y="475" type="curve" smooth="yes"/>
    </contour>
  </outline>
</glyph>
<glyph name="A" format="1">
  <advance width="582"/>
  <unicode hex="0041"/>
  <outline>
    <contour>
      <point x="284" y="660" type="line"/>
      <point x="555" y="0" type="line"/>
      <point x="572" y="0" type="line"/>
      <point x="302" y="660" type="line"/>
    </contour>
    <contour>
      <point x="280" y="660" type="line"/>
      <point x="10" y="0" type="line"/>
      <point x="27" y="0" type="line"/>
      <point x="298" y="660" type="line"/>
    </contour>
    <contour>
      <point x="116" y="248" type="line"/>
      <point x="116" y="234" type="line"/>
      <point x="465" y="234" type="line"/>
      <point x="465" y="248" type="line"/>
    </contour>
    <contour>
      <point x="572" y="0" type="move" name="ogonek"/>
    </contour>
    <contour>
      <point x="291" y="660" type="move" name="top"/>
    </contour>
  </outline>
</glyph>
<glyph name="B" format="1">
  <advance width="625"/>
  <unicode hex="0042"/>
  <outline>
    <contour>
      <point x="565" y="280"/>
      <point x="489" y="340"/>
      <point x="344" y="340" type="curve" smooth="yes"/>
      <point x="121" y="340" type="line"/>
      <point x="121" y="326" type="line"/>
      <point x="344" y="326" type="line" smooth="yes"/>
      <point x="479" y="326"/>
      <point x="549" y="274"/>
      <point x="549" y="170" type="curve" smooth="yes"/>
      <point x="549" y="67"/>
      <point x="479" y="14"/>
      <point x="344" y="14" type="curve" smooth="yes"/>
      <point x="121" y="14" type="line"/>
      <point x="121" y="0" type="line"/>
      <point x="344" y="0" type="line" smooth="yes"/>
      <point x="489" y="0"/>
      <point x="565" y="58"/>
      <point x="565" y="169" type="curve" smooth="yes"/>
    </contour>
    <contour>
      <point x="112" y="660" type="line"/>
      <point x="112" y="0" type="line"/>
      <point x="128" y="0" type="line"/>
      <point x="128" y="660" type="line"/>
    </contour>
    <contour>
      <point x="546" y="603"/>
      <point x="477" y="660"/>
      <point x="344" y="660" type="curve" smooth="yes"/>
      <point x="121" y="660" type="line"/>
      <point x="121" y="646" type="line"/>
      <point x="344" y="646" type="line" smooth="yes"/>
      <point x="466" y="646"/>
      <point x="530" y="593"/>
      <point x="530" y="492" type="curve" smooth="yes"/>
      <point x="530" y="391"/>
      <point x="466" y="340"/>
      <point x="344" y="340" type="curve" smooth="yes"/>
      <point x="121" y="340" type="line"/>
      <point x="121" y="326" type="line"/>
      <point x="344" y="326" type="line" smooth="yes"/>
      <point x="477" y="326"/>
      <point x="546" y="384"/>
      <point x="546" y="493" type="curve" smooth="yes"/>
    </contour>
  </outline>
</glyph>
<glyph name="C" format="1">
  <advance width="666"/>
  <unicode hex="0043"/>
  <outline>
    <contour>
      <point x="604" y="171" type="line"/>
      <point x="573" y="65"/>
      <point x="484" y="4"/>
      <point x="358" y="4" type="curve" smooth="yes"/>
      <point x="193" y="4"/>
      <point x="81" y="130"/>
      <point x="81" y="330" type="curve" smooth="yes"/>
      <point x="81" y="530"/>
      <point x="192" y="656"/>
      <point x="358" y="656" type="curve" smooth="yes"/>
      <point x="487" y="656"/>
      <point x="566" y="601"/>
      <point x="599" y="489" type="curve"/>
      <point x="614" y="496" type="line"/>
      <point x="581" y="612"/>
      <point x="497" y="670"/>
      <point x="358" y="670" type="curve" smooth="yes"/>
      <point x="182" y="670"/>
      <point x="65" y="539"/>
      <point x="65" y="330" type="curve" smooth="yes"/>
      <point x="65" y="121"/>
      <point x="183" y="-10"/>
      <point x="358" y="-10" type="curve" smooth="yes"/>
      <point x="491" y="-10"/>
      <point x="586" y="54"/>
      <point x="619" y="165" type="curve"/>
    </contour>
    <contour>
      <point x="363" y="742" type="move" name="top"/>
    </contour>
    <contour>
      <point x="365" y="0" type="move" name="bottom"/>
    </contour>
  </outline>
</glyph>
<glyph name="D" format="1">
  <advance width="705"/>
  <unicode hex="0044"/>
  <outline>
    <contour>
      <point x="121" y="660" type="line"/>
      <point x="121" y="646" type="line"/>
      <point x="315" y="646" type="line" smooth="yes"/>
      <point x="518" y="646"/>
      <point x="624" y="541"/>
      <point x="624" y="340" type="curve" smooth="yes"/>
      <point x="624" y="126"/>
      <point x="518" y="14"/>
      <point x="315" y="14" type="curve" smooth="yes"/>
      <point x="120" y="14" type="line"/>
      <point x="120" y="0" type="line"/>
      <point x="315" y="0" type="line" smooth="yes"/>
      <point x="529" y="0"/>
      <point x="640" y="117"/>
      <point x="640" y="340" type="curve" smooth="yes"/>
      <point x="640" y="550"/>
      <point x="529" y="660"/>
      <point x="315" y="660" type="curve" smooth="yes"/>
    </contour>
    <contour>
      <point x="112" y="660" type="line"/>
      <point x="112" y="0" type="line"/>
      <point x="128" y="0" type="line"/>
      <point x="128" y="660" type="line"/>
    </contour>
    <contour>
      <point x="360" y="371" type="move" name="center"/>
    </contour>
    <contour>
      <point x="365" y="742" type="move" name="top"/>
    </contour>
  </outline>
</glyph>
<glyph name="E" format="1">
  <advance width="591"/>
  <unicode hex="0045"/>
  <outline>
    <contour>
      <point x="112" y="660" type="line"/>
      <point x="112" y="0" type="line"/>
      <point x="128" y="0" type="line"/>
      <point x="128" y="660" type="line"/>
    </contour>
    <contour>
      <point x="118" y="14" type="line"/>
      <point x="118" y="0" type="line"/>
      <point x="566" y="0" type="line"/>
      <point x="566" y="14" type="line"/>
    </contour>
    <contour>
      <point x="118" y="344" type="line"/>
      <point x="118" y="330" type="line"/>
      <point x="466" y="330" type="line"/>
      <point x="466" y="344" type="line"/>
    </contour>
    <contour>
      <point x="118" y="660" type="line"/>
      <point x="118" y="646" type="line"/>
      <point x="549" y="646" type="line"/>
      <point x="549" y="660" type="line"/>
    </contour>
    <contour>
      <point x="566" y="0" type="move" name="ogonek"/>
    </contour>
    <contour>
      <point x="330" y="0" type="move" name="bottom"/>
    </contour>
    <contour>
      <point x="330" y="660" type="move" name="top"/>
    </contour>
  </outline>
</glyph>
<glyph name="F" format="1">
  <advance width="577"/>
  <unicode hex="0046"/>
  <outline>
    <contour>
      <point x="112" y="660" type="line"/>
      <point x="112" y="0" type="line"/>
      <point x="128" y="0" type="line"/>
      <point x="128" y="660" type="line"/>
    </contour>
    <contour>
      <point x="118" y="344" type="line"/>
      <point x="118" y="330" type="line"/>
      <point x="466" y="330" type="line"/>
      <point x="466" y="344" type="line"/>
    </contour>
    <contour>
      <point x="118" y="660" type="line"/>
      <point x="118" y="646" type="line"/>
      <point x="548" y="646" type="line"/>
      <point x="548" y="660" type="line"/>
    </contour>
  </outline>
</glyph>
<glyph name="G" format="1">
  <advance width="686"/>
  <unicode hex="0047"/>
  <outline>
    <contour>
      <point x="182" y="670"/>
      <point x="65" y="539"/>
      <point x="65" y="330" type="curve" smooth="yes"/>
      <point x="65" y="121"/>
      <point x="179" y="-10"/>
      <point x="354" y="-10" type="curve" smooth="yes"/>
      <point x="518" y="-10"/>
      <point x="613" y="92"/>
      <point x="613" y="268" type="curve"/>
      <point x="603" y="274" type="line"/>
      <point x="603" y="103"/>
      <point x="512" y="4"/>
      <point x="354" y="4" type="curve" smooth="yes"/>
      <point x="189" y="4"/>
      <point x="81" y="130"/>
      <point x="81" y="330" type="curve" smooth="yes"/>
      <point x="81" y="530"/>
      <point x="192" y="656"/>
      <point x="358" y="656" type="curve" smooth="yes"/>
      <point x="488" y="656"/>
      <point x="567" y="601"/>
      <point x="600" y="489" type="curve"/>
      <point x="614" y="496" type="line"/>
      <point x="581" y="612"/>
      <point x="497" y="670"/>
      <point x="358" y="670" type="curve" smooth="yes"/>
    </contour>
    <contour>
      <point x="603" y="304" type="line"/>
      <point x="603" y="206" type="line"/>
      <point x="603" y="0" type="line"/>
      <point x="619" y="0" type="line"/>
      <point x="619" y="206" type="line"/>
      <point x="619" y="304" type="line"/>
    </contour>
    <contour>
      <point x="362" y="311" type="line"/>
      <point x="362" y="297" type="line"/>
      <point x="619" y="297" type="line"/>
      <point x="619" y="311" type="line"/>
    </contour>
    <contour>
      <point x="365" y="742" type="move" name="top"/>
    </contour>
    <contour>
      <point x="400" y="0" type="move" name="bottom"/>
    </contour>
  </outline>
</glyph>
<glyph name="H" format="1">
  <advance width="722"/>
  <unicode hex="0048"/>
  <outline>
    <contour>
      <point x="594" y="660" type="line"/>
      <point x="594" y="0" type="line"/>
      <point x="610" y="0" type="line"/>
      <point x="610" y="660" type="line"/>
    </contour>
    <contour>
      <point x="112" y="660" type="line"/>
      <point x="112" y="0" type="line"/>
      <point x="128" y="0" type="line"/>
      <point x="128" y="660" type="line"/>
    </contour>
    <contour>
      <point x="120" y="344" type="line"/>
      <point x="120" y="330" type="line"/>
      <point x="603" y="330" type="line"/>
      <point x="603" y="344" type="line"/>
    </contour>
  </outline>
</glyph>
<glyph name="I" format="1">
  <advance width="240"/>
  <unicode hex="0049"/>
  <outline>
    <contour>
      <point x="112" y="660" type="line"/>
      <point x="112" y="0" type="line"/>
      <point x="128" y="0" type="line"/>
      <point x="128" y="660" type="line"/>
    </contour>
    <contour>
      <point x="128" y="0" type="move" name="ogonek"/>
    </contour>
    <contour>
      <point x="120" y="660" type="move" name="top"/>
    </contour>
  </outline>
</glyph>
<glyph name="J" format="1">
  <advance width="524"/>
  <unicode hex="004A"/>
  <outline>
    <contour>
      <point x="408" y="660" type="line"/>
      <point x="408" y="209" type="line" smooth="yes"/>
      <point x="408" y="84"/>
      <point x="348" y="4"/>
      <point x="230" y="4" type="curve" smooth="yes"/>
      <point x="110" y="4"/>
      <point x="48" y="76"/>
      <point x="66" y="208" type="curve"/>
      <point x="50" y="200" type="line"/>
      <point x="32" y="74"/>
      <point x="98" y="-10"/>
      <point x="230" y="-10" type="curve" smooth="yes"/>
      <point x="358" y="-10"/>
      <point x="424" y="75"/>
      <point x="424" y="209" type="curve" smooth="yes"/>
      <point x="424" y="660" type="line"/>
    </contour>
  </outline>
</glyph>
<glyph name="K" format="1">
  <advance width="603"/>
  <unicode hex="004B"/>
  <outline>
    <contour>
      <point x="524" y="660" type="line"/>
      <point x="119" y="248" type="line"/>
      <point x="119" y="225" type="line"/>
      <point x="547" y="660" type="line"/>
    </contour>
    <contour>
      <point x="112" y="660" type="line"/>
      <point x="112" y="0" type="line"/>
      <point x="128" y="0" type="line"/>
      <point x="128" y="660" type="line"/>
    </contour>
    <contour>
      <point x="272" y="390" type="line"/>
      <point x="536" y="0" type="line"/>
      <point x="557" y="0" type="line"/>
      <point x="283" y="404" type="line"/>
    </contour>
    <contour>
      <point x="332" y="660" type="move" name="top"/>
    </contour>
    <contour>
      <point x="332" y="0" type="move" name="bottom"/>
    </contour>
  </outline>
</glyph>
<glyph name="L" format="1">
  <advance width="557"/>
  <unicode hex="004C"/>
  <outline>
    <contour>
      <point x="112" y="660" type="line"/>
      <point x="112" y="0" type="line"/>
      <point x="128" y="0" type="line"/>
      <point x="128" y="660" type="line"/>
    </contour>
    <contour>
      <point x="118" y="14" type="line"/>
      <point x="118" y="0" type="line"/>
      <point x="544" y="0" type="line"/>
      <point x="544" y="14" type="line"/>
    </contour>
    <contour>
      <point x="120" y="660" type="move" name="top"/>
    </contour>
    <contour>
      <point x="344" y="0" type="move" name="bottom"/>
    </contour>
    <contour>
      <point x="302" y="730" type="move" name="topright"/>
    </contour>
  </outline>
</glyph>
<glyph name="M" format="1">
  <advance width="822"/>
  <unicode hex="004D"/>
  <outline>
    <contour>
      <point x="403" y="0" type="line"/>
      <point x="421" y="0" type="line"/>
      <point x="676" y="600" type="line"/>
      <point x="701" y="660" type="line"/>
      <point x="684" y="660" type="line"/>
    </contour>
    <contour>
      <point x="112" y="660" type="line"/>
      <point x="112" y="603" type="line"/>
      <point x="112" y="0" type="line"/>
      <point x="128" y="0" type="line"/>
      <point x="128" y="603" type="line"/>
      <point x="128" y="660" type="line"/>
    </contour>
    <contour>
      <point x="121" y="660" type="line"/>
      <point x="146" y="600" type="line"/>
      <point x="401" y="0" type="line"/>
      <point x="419" y="0" type="line"/>
      <point x="138" y="660" type="line"/>
    </contour>
    <contour>
      <point x="694" y="660" type="line"/>
      <point x="694" y="603" type="line"/>
      <point x="694" y="0" type="line"/>
      <point x="710" y="0" type="line"/>
      <point x="710" y="603" type="line"/>
      <point x="710" y="660" type="line"/>
    </contour>
  </outline>
</glyph>
<glyph name="N" format="1">
  <advance width="722"/>
  <unicode hex="004E"/>
  <outline>
    <contour>
      <point x="116" y="660" type="line"/>
      <point x="141" y="625" type="line"/>
      <point x="586" y="0" type="line"/>
      <point x="606" y="0" type="line"/>
      <point x="581" y="35" type="line"/>
      <point x="136" y="660" type="line"/>
    </contour>
    <contour>
      <point x="112" y="660" type="line"/>
      <point x="112" y="622" type="line"/>
      <point x="112" y="0" type="line"/>
      <point x="128" y="0" type="line"/>
      <point x="128" y="622" type="line"/>
      <point x="128" y="660" type="line"/>
    </contour>
    <contour>
      <point x="594" y="660" type="line"/>
      <point x="594" y="57" type="line"/>
      <point x="594" y="0" type="line"/>
      <point x="610" y="0" type="line"/>
      <point x="610" y="57" type="line"/>
      <point x="610" y="660" type="line"/>
    </contour>
    <contour>
      <point x="361" y="660" type="move" name="top"/>
    </contour>
    <contour>
      <point x="391" y="0" type="move" name="bottom"/>
    </contour>
  </outline>
</glyph>
<glyph name="O" format="1">
  <advance width="732"/>
  <unicode hex="004F"/>
  <outline>
    <contour>
      <point x="181" y="670"/>
      <point x="65" y="539"/>
      <point x="65" y="330" type="curve" smooth="yes"/>
      <point x="65" y="121"/>
      <point x="181" y="-10"/>
      <point x="366" y="-10" type="curve" smooth="yes"/>
      <point x="551" y="-10"/>
      <point x="667" y="121"/>
      <point x="667" y="330" type="curve" smooth="yes"/>
      <point x="667" y="539"/>
      <point x="551" y="670"/>
      <point x="366" y="670" type="curve" smooth="yes"/>
    </contour>
    <contour>
      <point x="541" y="656"/>
      <point x="651" y="530"/>
      <point x="651" y="330" type="curve" smooth="yes"/>
      <point x="651" y="130"/>
      <point x="541" y="4"/>
      <point x="366" y="4" type="curve" smooth="yes"/>
      <point x="191" y="4"/>
      <point x="81" y="130"/>
      <point x="81" y="330" type="curve" smooth="yes"/>
      <point x="81" y="530"/>
      <point x="191" y="656"/>
      <point x="366" y="656" type="curve" smooth="yes"/>
    </contour>
    <contour>
      <point x="365" y="660" type="move" name="top"/>
    </contour>
  </outline>
</glyph>
<glyph name="P" format="1">
  <advance width="575"/>
  <unicode hex="0050"/>
  <outline>
    <contour>
      <point x="108" y="660" type="line"/>
      <point x="108" y="646" type="line"/>
      <point x="304" y="646" type="line" smooth="yes"/>
      <point x="435" y="646"/>
      <point x="513" y="582"/>
      <point x="513" y="475" type="curve" smooth="yes"/>
      <point x="513" y="368"/>
      <point x="435" y="305"/>
      <point x="304" y="305" type="curve" smooth="yes"/>
      <point x="108" y="305" type="line"/>
      <point x="108" y="291" type="line"/>
      <point x="304" y="291" type="line" smooth="yes"/>
      <point x="445" y="291"/>
      <point x="529" y="359"/>
      <point x="529" y="475" type="curve" smooth="yes"/>
      <point x="529" y="591"/>
      <point x="445" y="660"/>
      <point x="304" y="660" type="curve" smooth="yes"/>
    </contour>
    <contour>
      <point x="100" y="660" type="line"/>
      <point x="100" y="0" type="line"/>
      <point x="116" y="0" type="line"/>
      <point x="116" y="660" type="line"/>
    </contour>
  </outline>
</glyph>
<glyph name="Q" format="1">
  <advance width="732"/>
  <unicode hex="0051"/>
  <outline>
    <contour>
      <point x="364" y="-4" type="line"/>
      <point x="369" y="-126"/>
      <point x="442" y="-195"/>
      <point x="544" y="-195" type="curve" smooth="yes"/>
      <point x="593" y="-195"/>
      <point x="630" y="-182"/>
      <point x="656" y="-157" type="curve"/>
      <point x="648" y="-144" type="line"/>
      <point x="622" y="-171"/>
      <point x="583" y="-181"/>
      <point x="544" y="-181" type="curve" smooth="yes"/>
      <point x="449" y="-181"/>
      <point x="383" y="-120"/>
      <point x="378" y="-4" type="curve"/>
    </contour>
    <component base="O"/>
  </outline>
</glyph>
<glyph name="R" format="1">
  <advance width="680"/>
  <unicode hex="0052"/>
  <outline>
    <contour>
      <point x="120" y="660" type="line"/>
      <point x="120" y="646" type="line"/>
      <point x="351" y="646" type="line" smooth="yes"/>
      <point x="472" y="646"/>
      <point x="544" y="584"/>
      <point x="544" y="480" type="curve" smooth="yes"/>
      <point x="544" y="376"/>
      <point x="472" y="314"/>
      <point x="351" y="314" type="curve" smooth="yes"/>
      <point x="120" y="314" type="line"/>
      <point x="120" y="300" type="line"/>
      <point x="351" y="300" type="line" smooth="yes"/>
      <point x="480" y="300"/>
      <point x="560" y="368"/>
      <point x="560" y="480" type="curve" smooth="yes"/>
      <point x="560" y="592"/>
      <point x="480" y="660"/>
      <point x="351" y="660" type="curve" smooth="yes"/>
    </contour>
    <contour>
      <point x="112" y="660" type="line"/>
      <point x="112" y="0" type="line"/>
      <point x="128" y="0" type="line"/>
      <point x="128" y="660" type="line"/>
    </contour>
    <contour>
      <point x="369" y="304" type="line"/>
      <point x="571" y="0" type="line"/>
      <point x="589" y="0" type="line"/>
      <point x="382" y="314" type="line"/>
    </contour>
    <contour>
      <point x="315" y="660" type="move" name="top"/>
    </contour>
    <contour>
      <point x="359" y="0" type="move" name="bottom"/>
    </contour>
  </outline>
</glyph>
<glyph name="S" format="1">
  <advance width="698"/>
  <unicode hex="0053"/>
  <outline>
    <contour>
      <point x="203" y="670"/>
      <point x="116" y="586"/>
      <point x="116" y="492" type="curve" smooth="yes"/>
      <point x="116" y="242"/>
      <point x="586" y="390"/>
      <point x="586" y="160" type="curve" smooth="yes"/>
      <point x="586" y="60"/>
      <point x="487" y="4"/>
      <point x="365" y="4" type="curve" smooth="yes"/>
      <point x="238" y="4"/>
      <point x="140" y="64"/>
      <point x="116" y="174" type="curve"/>
      <point x="101" y="166" type="line"/>
      <point x="129" y="52"/>
      <point x="230" y="-10"/>
      <point x="365" y="-10" type="curve" smooth="yes"/>
      <point x="509" y="-10"/>
      <point x="602" y="60"/>
      <point x="602" y="160" type="curve" smooth="yes"/>
      <point x="602" y="410"/>
      <point x="132" y="258"/>
      <point x="132" y="492" type="curve" smooth="yes"/>
      <point x="132" y="584"/>
      <point x="217" y="656"/>
      <point x="351" y="656" type="curve" smooth="yes"/>
      <point x="471" y="656"/>
      <point x="552" y="610"/>
      <point x="579" y="507" type="curve"/>
      <point x="592" y="517" type="line"/>
      <point x="561" y="623"/>
      <point x="476" y="670"/>
      <point x="351" y="670" type="curve" smooth="yes"/>
    </contour>
    <contour>
      <point x="357" y="742" type="move" name="top"/>
    </contour>
    <contour>
      <point x="367" y="0" type="move" name="bottom"/>
    </contour>
  </outline>
</glyph>
<glyph name="T" format="1">
  <advance width="561"/>
  <unicode hex="0054"/>
  <outline>
    <contour>
      <point x="273" y="653" type="line"/>
      <point x="273" y="0" type="line"/>
      <point x="289" y="0" type="line"/>
      <point x="289" y="653" type="line"/>
    </contour>
    <contour>
      <point x="19" y="660" type="line"/>
      <point x="19" y="646" type="line"/>
      <point x="542" y="646" type="line"/>
      <point x="542" y="660" type="line"/>
    </contour>
    <contour>
      <point x="281" y="371" type="move" name="center"/>
    </contour>
    <contour>
      <point x="273" y="0" type="move" name="bottom"/>
    </contour>
    <contour>
      <point x="281" y="660" type="move" name="top"/>
    </contour>
  </outline>
</glyph>
<glyph name="U" format="1">
  <advance width="700"/>
  <unicode hex="0055"/>
  <outline>
    <contour>
      <point x="583" y="660" type="line"/>
      <point x="583" y="235" type="line" smooth="yes"/>
      <point x="583" y="88"/>
      <point x="496" y="4"/>
      <point x="350" y="4" type="curve" smooth="yes"/>
      <point x="204" y="4"/>
      <point x="117" y="88"/>
      <point x="117" y="235" type="curve" smooth="yes"/>
      <point x="117" y="660" type="line"/>
      <point x="101" y="660" type="line"/>
      <point x="101" y="235" type="line" smooth="yes"/>
      <point x="101" y="78"/>
      <point x="194" y="-10"/>
      <point x="350" y="-10" type="curve" smooth="yes"/>
      <point x="506" y="-10"/>
      <point x="599" y="78"/>
      <point x="599" y="235" type="curve" smooth="yes"/>
      <point x="599" y="660" type="line"/>
    </contour>
    <contour>
      <point x="438" y="0" type="move" name="ogonek"/>
    </contour>
    <contour>
      <point x="350" y="742" type="move" name="top"/>
    </contour>
  </outline>
</glyph>
<glyph name="V" format="1">
  <advance width="598"/>
  <unicode hex="0056"/>
  <outline>
    <contour>
      <point x="553" y="660" type="line"/>
      <point x="292" y="0" type="line"/>
      <point x="310" y="0" type="line"/>
      <point x="570" y="660" type="line"/>
    </contour>
    <contour>
      <point x="28" y="660" type="line"/>
      <point x="288" y="0" type="line"/>
      <point x="306" y="0" type="line"/>
      <point x="45" y="660" type="line"/>
    </contour>
  </outline>
</glyph>
<glyph name="W" format="1">
  <advance width="907"/>
  <unicode hex="0057"/>
  <outline>
    <contour>
      <point x="32" y="660" type="line"/>
      <point x="250" y="0" type="line"/>
      <point x="266" y="0" type="line"/>
      <point x="244" y="72" type="line"/>
      <point x="49" y="660" type="line"/>
    </contour>
    <contour>
      <point x="456" y="660" type="line"/>
      <point x="272" y="46" type="line"/>
      <point x="260" y="0" type="line"/>
      <point x="274" y="0" type="line"/>
      <point x="473" y="660" type="line"/>
    </contour>
    <contour>
      <point x="460" y="660" type="line"/>
      <point x="659" y="0" type="line"/>
      <point x="673" y="0" type="line"/>
      <point x="661" y="46" type="line"/>
      <point x="477" y="660" type="line"/>
    </contour>
    <contour>
      <point x="884" y="660" type="line"/>
      <point x="689" y="72" type="line"/>
      <point x="667" y="0" type="line"/>
      <point x="683" y="0" type="line"/>
      <point x="901" y="660" type="line"/>
    </contour>
  </outline>
</glyph>
<glyph name="X" format="1">
  <advance width="533"/>
  <unicode hex="0058"/>
  <outline>
    <contour>
      <point x="473" y="660" type="line"/>
      <point x="265" y="350" type="line"/>
      <point x="262" y="347" type="line"/>
      <point x="30" y="0" type="line"/>
      <point x="51" y="0" type="line"/>
      <point x="274" y="333" type="line"/>
      <point x="277" y="337" type="line"/>
      <point x="494" y="660" type="line"/>
    </contour>
    <contour>
      <point x="50" y="660" type="line"/>
      <point x="483" y="0" type="line"/>
      <point x="503" y="0" type="line"/>
      <point x="70" y="660" type="line"/>
    </contour>
  </outline>
</glyph>
<glyph name="Y" format="1">
  <advance width="536"/>
  <unicode hex="0059"/>
  <outline>
    <contour>
      <point x="489" y="660" type="line"/>
      <point x="263" y="264" type="line"/>
      <point x="276" y="256" type="line"/>
      <point x="508" y="660" type="line"/>
    </contour>
    <contour>
      <point x="276" y="256" type="line"/>
      <point x="273" y="264" type="line"/>
      <point x="263" y="264" type="line"/>
      <point x="260" y="256" type="line"/>
      <point x="260" y="0" type="line"/>
      <point x="276" y="0" type="line"/>
    </contour>
    <contour>
      <point x="28" y="660" type="line"/>
      <point x="260" y="256" type="line"/>
      <point x="273" y="264" type="line"/>
      <point x="47" y="660" type="line"/>
    </contour>
    <contour>
      <point x="268" y="660" type="move" name="top"/>
    </contour>
  </outline>
</glyph>
<glyph name="Z" format="1">
  <advance width="577"/>
  <unicode hex="005A"/>
  <outline>
    <contour>
      <point x="48" y="14" type="line"/>
      <point x="61" y="3" type="line"/>
      <point x="533" y="646" type="line"/>
      <point x="521" y="655" type="line"/>
    </contour>
    <contour>
      <point x="48" y="14" type="line"/>
      <point x="48" y="0" type="line"/>
      <point x="547" y="0" type="line"/>
      <point x="547" y="14" type="line"/>
    </contour>
    <contour>
      <point x="59" y="660" type="line"/>
      <point x="59" y="646" type="line"/>
      <point x="533" y="646" type="line"/>
      <point x="533" y="660" type="line"/>
    </contour>
    <contour>
      <point x="296" y="660" type="move" name="top"/>
    </contour>
  </outline>
</glyph>
<glyph name="bracketleft" format="1">
  <advance width="366"/>
  <unicode hex="005B"/>
  <outline>
    <contour>
      <point x="143" y="730" type="line"/>
      <point x="143" y="-168" type="line"/>
      <point x="158" y="-168" type="line"/>
      <point x="158" y="730" type="line"/>
    </contour>
    <contour>
      <point x="150" y="-154" type="line"/>
      <point x="150" y="-168" type="line"/>
      <point x="324" y="-168" type="line"/>
      <point x="324" y="-154" type="line"/>
    </contour>
    <contour>
      <point x="150" y="730" type="line"/>
      <point x="150" y="716" type="line"/>
      <point x="324" y="716" type="line"/>
      <point x="324" y="730" type="line"/>
    </contour>
  </outline>
</glyph>
<glyph name="asciicircum" format="1">
  <advance width="481"/>
  <unicode hex="005E"/>
  <outline>
    <contour>
      <point x="234" y="660" type="line"/>
      <point x="417" y="348" type="line"/>
      <point x="436" y="348" type="line"/>
      <point x="253" y="660" type="line"/>
    </contour>
    <contour>
      <point x="228" y="660" type="line"/>
      <point x="45" y="348" type="line"/>
      <point x="64" y="348" type="line"/>
      <point x="247" y="660" type="line"/>
    </contour>
  </outline>
</glyph>
<glyph name="underscore" format="1">
  <advance width="498"/>
  <unicode hex="005F"/>
  <outline>
    <contour>
      <point x="-1" y="-97" type="line"/>
      <point x="-1" y="-111" type="line"/>
      <point x="498" y="-111" type="line"/>
      <point x="498" y="-97" type="line"/>
    </contour>
  </outline>
</glyph>
<glyph name="grave" format="1">
  <advance width="550"/>
  <unicode hex="0060"/>
  <outline>
    <contour>
      <point x="198" y="780" type="line"/>
      <point x="271" y="657" type="line"/>
      <point x="269" y="657" type="line"/>
      <point x="217" y="780" type="line"/>
    </contour>
    <contour>
      <point x="275" y="562" type="move" name="_top"/>
    </contour>
  </outline>
</glyph>
<glyph name="a" format="1">
  <advance width="540"/>
  <unicode hex="0061"/>
  <outline>
    <contour>
      <point x="166" y="510"/>
      <point x="105" y="471"/>
      <point x="74" y="388" type="curve"/>
      <point x="87" y="378" type="line"/>
      <point x="118" y="459"/>
      <point x="175" y="496"/>
      <point x="266" y="496" type="curve" smooth="yes"/>
      <point x="369" y="496"/>
      <point x="425" y="441"/>
      <point x="425" y="348" type="curve" smooth="yes"/>
      <point x="425" y="82" type="line" smooth="yes"/>
      <point x="425" y="4"/>
      <point x="466" y="-10"/>
      <point x="497" y="-10" type="curve" smooth="yes"/>
      <point x="513" y="-10"/>
      <point x="524" y="-7"/>
      <point x="533" y="-1" type="curve"/>
      <point x="534" y="13" type="line"/>
      <point x="525" y="6"/>
      <point x="511" y="4"/>
      <point x="496" y="4" type="curve" smooth="yes"/>
      <point x="463" y="4"/>
      <point x="441" y="27"/>
      <point x="441" y="76" type="curve" smooth="yes"/>
      <point x="441" y="348" type="line" smooth="yes"/>
      <point x="441" y="453"/>
      <point x="379" y="510"/>
      <point x="266" y="510" type="curve" smooth="yes"/>
    </contour>
    <contour>
      <point x="248" y="253" type="line" smooth="yes"/>
      <point x="118" y="229"/>
      <point x="64" y="187"/>
      <point x="64" y="108" type="curve" smooth="yes"/>
      <point x="64" y="34"/>
      <point x="122" y="-10"/>
      <point x="220" y="-10" type="curve" smooth="yes"/>
      <point x="318" y="-10"/>
      <point x="433" y="37"/>
      <point x="433" y="140" type="curve"/>
      <point x="425" y="151" type="line"/>
      <point x="425" y="47"/>
      <point x="303" y="4"/>
      <point x="225" y="4" type="curve" smooth="yes"/>
      <point x="134" y="4"/>
      <point x="80" y="43"/>
      <point x="80" y="108" type="curve" smooth="yes"/>
      <point x="80" y="175"/>
      <point x="128" y="217"/>
      <point x="259" y="241" type="curve" smooth="yes"/>
      <point x="432" y="273" type="line"/>
      <point x="430" y="287" type="line"/>
    </contour>
    <contour>
      <point x="533" y="-1" type="move" name="ogonek"/>
    </contour>
    <contour>
      <point x="260" y="500" type="move" name="top"/>
    </contour>
  </outline>
</glyph>
<glyph name="b" format="1">
  <advance width="581"/>
  <unicode hex="0062"/>
  <outline>
    <contour>
      <point x="86" y="730" type="line"/>
      <point x="86" y="101" type="line"/>
      <point x="86" y="0" type="line"/>
      <point x="102" y="0" type="line"/>
      <point x="102" y="173" type="line"/>
      <point x="102" y="176" type="line"/>
      <point x="102" y="730" type="line"/>
    </contour>
    <component base="bowl" xOffset="659" xScale="-1"/>
  </outline>
</glyph>
<glyph name="c" format="1">
  <advance width="556"/>
  <unicode hex="0063"/>
  <outline>
    <contour>
      <point x="159" y="510"/>
      <point x="74" y="412"/>
      <point x="74" y="250" type="curve" smooth="yes"/>
      <point x="74" y="88"/>
      <point x="156" y="-10"/>
      <point x="301" y="-10" type="curve" smooth="yes"/>
      <point x="402" y="-10"/>
      <point x="488" y="47"/>
      <point x="505" y="137" type="curve"/>
      <point x="491" y="142" type="line"/>
      <point x="477" y="57"/>
      <point x="394" y="4"/>
      <point x="301" y="4" type="curve" smooth="yes"/>
      <point x="166" y="4"/>
      <point x="90" y="97"/>
      <point x="90" y="250" type="curve" smooth="yes"/>
      <point x="90" y="403"/>
      <point x="169" y="496"/>
      <point x="304" y="496" type="curve" smooth="yes"/>
      <point x="398" y="496"/>
      <point x="465" y="449"/>
      <point x="487" y="366" type="curve"/>
      <point x="501" y="373" type="line"/>
      <point x="477" y="461"/>
      <point x="403" y="510"/>
      <point x="304" y="510" type="curve" smooth="yes"/>
    </contour>
    <contour>
      <point x="304" y="500" type="move" name="top"/>
    </contour>
    <contour>
      <point x="301" y="0" type="move" name="bottom"/>
    </contour>
  </outline>
</glyph>
<glyph name="d" format="1">
  <advance width="621"/>
  <unicode hex="0064"/>
  <outline>
    <contour>
      <point x="507" y="730" type="line"/>
      <point x="507" y="184" type="line"/>
      <point x="507" y="0" type="line"/>
      <point x="523" y="0" type="line"/>
      <point x="523" y="101" type="line"/>
      <point x="523" y="730" type="line"/>
    </contour>
    <component base="bowl" xOffset="-50"/>
    <contour>
      <point x="324" y="281" type="move" name="center"/>
    </contour>
    <contour>
      <point x="661" y="821" type="move" name="topright"/>
    </contour>
  </outline>
</glyph>
<glyph name="e" format="1">
  <advance width="559"/>
  <unicode hex="0065"/>
  <outline>
    <contour>
      <point x="158" y="510"/>
      <point x="74" y="413"/>
      <point x="74" y="250" type="curve" smooth="yes"/>
      <point x="74" y="87"/>
      <point x="159" y="-10"/>
      <point x="303" y="-10" type="curve" smooth="yes"/>
      <point x="394" y="-10"/>
      <point x="470" y="35"/>
      <point x="505" y="109" type="curve"/>
      <point x="492" y="116" type="line"/>
      <point x="459" y="46"/>
      <point x="387" y="4"/>
      <point x="303" y="4" type="curve" smooth="yes"/>
      <point x="168" y="4"/>
      <point x="90" y="96"/>
      <point x="90" y="250" type="curve" smooth="yes"/>
      <point x="90" y="404"/>
      <point x="167" y="496"/>
      <point x="298" y="496" type="curve" smooth="yes"/>
      <point x="426" y="496"/>
      <point x="495" y="401"/>
      <point x="495" y="244" type="curve" smooth="yes"/>
      <point x="495" y="239" type="line"/>
      <point x="509" y="239" type="line"/>
      <point x="509" y="246" type="line" smooth="yes"/>
      <point x="509" y="411"/>
      <point x="430" y="510"/>
      <point x="298" y="510" type="curve" smooth="yes"/>
    </contour>
    <contour>
      <point x="82" y="254" type="line"/>
      <point x="82" y="239" type="line"/>
      <point x="504" y="239" type="line"/>
      <point x="504" y="254" type="line"/>
    </contour>
    <contour>
      <point x="451" y="0" type="move" name="ogonek"/>
    </contour>
    <contour>
      <point x="307" y="0" type="move" name="bottom"/>
    </contour>
    <contour>
      <point x="294" y="500" type="move" name="top"/>
    </contour>
  </outline>
</glyph>
<glyph name="f" format="1">
  <advance width="322"/>
  <unicode hex="0066"/>
  <outline>
    <contour>
      <point x="180" y="735"/>
      <point x="130" y="678"/>
      <point x="130" y="583" type="curve" smooth="yes"/>
      <point x="130" y="0" type="line"/>
      <point x="146" y="0" type="line"/>
      <point x="146" y="583" type="line" smooth="yes"/>
      <point x="146" y="669"/>
      <point x="190" y="721"/>
      <point x="263" y="721" type="curve" smooth="yes"/>
      <point x="295" y="721"/>
      <point x="315" y="713"/>
      <point x="333" y="692" type="curve"/>
      <point x="340" y="704" type="line"/>
      <point x="324" y="722"/>
      <point x="302" y="735"/>
      <point x="263" y="735" type="curve" smooth="yes"/>
    </contour>
    <contour>
      <point x="30" y="500" type="line"/>
      <point x="30" y="486" type="line"/>
      <point x="332" y="486" type="line"/>
      <point x="332" y="500" type="line"/>
    </contour>
  </outline>
</glyph>
<glyph name="g" format="1">
  <advance width="510"/>
  <unicode hex="0067"/>
  <outline>
    <contour>
      <point x="134" y="208"/>
      <point x="87" y="166"/>
      <point x="87" y="113" type="curve" smooth="yes"/>
      <point x="87" y="65"/>
      <point x="138" y="23"/>
      <point x="211" y="23" type="curve" smooth="yes"/>
      <point x="363" y="23" type="line" smooth="yes"/>
      <point x="439" y="23"/>
      <point x="483" y="-19"/>
      <point x="483" y="-74" type="curve" smooth="yes"/>
      <point x="483" y="-145"/>
      <point x="400" y="-201"/>
      <point x="276" y="-201" type="curve" smooth="yes"/>
      <point x="140" y="-201"/>
      <point x="72" y="-149"/>
      <point x="72" y="-81" type="curve" smooth="yes"/>
      <point x="72" y="-22"/>
      <point x="140" y="23"/>
      <point x="212" y="23" type="curve"/>
      <point x="203" y="31" type="line"/>
      <point x="123" y="31"/>
      <point x="56" y="-14"/>
      <point x="56" y="-83" type="curve" smooth="yes"/>
      <point x="56" y="-157"/>
      <point x="133" y="-215"/>
      <point x="274" y="-215" type="curve" smooth="yes"/>
      <point x="409" y="-215"/>
      <point x="499" y="-154"/>
      <point x="499" y="-72" type="curve" smooth="yes"/>
      <point x="499" y="-12"/>
      <point x="449" y="37"/>
      <point x="365" y="37" type="curve" smooth="yes"/>
      <point x="218" y="37" type="line" smooth="yes"/>
      <point x="145" y="37"/>
      <point x="103" y="75"/>
      <point x="103" y="117" type="curve" smooth="yes"/>
      <point x="103" y="158"/>
      <point x="147" y="200"/>
      <point x="228" y="203" type="curve"/>
      <point x="214" y="212" type="line"/>
    </contour>
    <contour>
      <point x="157" y="510"/>
      <point x="77" y="444"/>
      <point x="77" y="353" type="curve" smooth="yes"/>
      <point x="77" y="262"/>
      <point x="157" y="196"/>
      <point x="268" y="196" type="curve" smooth="yes"/>
      <point x="378" y="196"/>
      <point x="458" y="262"/>
      <point x="458" y="353" type="curve" smooth="yes"/>
      <point x="458" y="444"/>
      <point x="378" y="510"/>
      <point x="268" y="510" type="curve" smooth="yes"/>
    </contour>
    <contour>
      <point x="369" y="496"/>
      <point x="442" y="436"/>
      <point x="442" y="353" type="curve" smooth="yes"/>
      <point x="442" y="270"/>
      <point x="369" y="210"/>
      <point x="268" y="210" type="curve" smooth="yes"/>
      <point x="167" y="210"/>
      <point x="93" y="270"/>
      <point x="93" y="353" type="curve" smooth="yes"/>
      <point x="93" y="436"/>
      <point x="167" y="496"/>
      <point x="268" y="496" type="curve" smooth="yes"/>
    </contour>
    <contour>
      <point x="436" y="592"/>
      <point x="383" y="544"/>
      <point x="383" y="470" type="curve"/>
      <point x="395" y="467" type="line"/>
      <point x="395" y="534"/>
      <point x="443" y="579"/>
      <point x="511" y="579" type="curve"/>
      <point x="506" y="592" type="line"/>
    </contour>
    <contour>
      <point x="268" y="500" type="move" name="top"/>
    </contour>
  </outline>
</glyph>
<glyph name="h" format="1">
  <advance width="602"/>
  <unicode hex="0068"/>
  <outline>
    <contour>
      <point x="98" y="730" type="line"/>
      <point x="98" y="0" type="line"/>
      <point x="114" y="0" type="line"/>
      <point x="114" y="730" type="line"/>
    </contour>
    <contour>
      <point x="193" y="510"/>
      <point x="107" y="423"/>
      <point x="107" y="317" type="curve"/>
      <point x="114" y="301" type="line"/>
      <point x="114" y="405"/>
      <point x="198" y="496"/>
      <point x="305" y="496" type="curve" smooth="yes"/>
      <point x="416" y="496"/>
      <point x="492" y="433"/>
      <point x="492" y="327" type="curve" smooth="yes"/>
      <point x="492" y="1" type="line"/>
      <point x="508" y="1" type="line"/>
      <point x="508" y="329" type="line" smooth="yes"/>
      <point x="508" y="442"/>
      <point x="426" y="510"/>
      <point x="308" y="510" type="curve" smooth="yes"/>
    </contour>
  </outline>
</glyph>
<glyph name="i" format="1">
  <advance width="212"/>
  <unicode hex="0069"/>
  <outline>
    <contour>
      <point x="98" y="500" type="line"/>
      <point x="98" y="0" type="line"/>
      <point x="114" y="0" type="line"/>
      <point x="114" y="500" type="line"/>
    </contour>
    <component base="dotaccent" xOffset="-169"/>
  </outline>
</glyph>
<glyph name="j" format="1">
  <advance width="220"/>
  <unicode hex="006A"/>
  <outline>
    <contour>
      <point x="106" y="500" type="line"/>
      <point x="106" y="-64" type="line" smooth="yes"/>
      <point x="106" y="-147"/>
      <point x="60" y="-201"/>
      <point x="-10" y="-201" type="curve" smooth="yes"/>
      <point x="-34" y="-201"/>
      <point x="-60" y="-194"/>
      <point x="-76" y="-179" type="curve"/>
      <point x="-81" y="-193" type="line"/>
      <point x="-65" y="-207"/>
      <point x="-38" y="-215"/>
      <point x="-10" y="-215" type="curve" smooth="yes"/>
      <point x="70" y="-215"/>
      <point x="122" y="-156"/>
      <point x="122" y="-64" type="curve" smooth="yes"/>
      <point x="122" y="500" type="line"/>
    </contour>
    <component base="dotaccent" xOffset="-161"/>
  </outline>
</glyph>
<glyph name="k" format="1">
  <advance width="495"/>
  <unicode hex="006B"/>
  <outline>
    <contour>
      <point x="433" y="500" type="line"/>
      <point x="107" y="164" type="line"/>
      <point x="107" y="141" type="line"/>
      <point x="456" y="500" type="line"/>
    </contour>
    <contour>
      <point x="98" y="730" type="line"/>
      <point x="98" y="0" type="line"/>
      <point x="114" y="0" type="line"/>
      <point x="114" y="730" type="line"/>
    </contour>
    <contour>
      <point x="260" y="311" type="line"/>
      <point x="465" y="0" type="line"/>
      <point x="486" y="0" type="line"/>
      <point x="271" y="322" type="line"/>
    </contour>
    <contour>
      <point x="299" y="0" type="move" name="bottom"/>
    </contour>
  </outline>
</glyph>
<glyph name="l" format="1">
  <advance width="274"/>
  <unicode hex="006C"/>
  <outline>
    <contour>
      <point x="98" y="730" type="line"/>
      <point x="98" y="107" type="line" smooth="yes"/>
      <point x="98" y="25"/>
      <point x="131" y="-10"/>
      <point x="195" y="-10" type="curve" smooth="yes"/>
      <point x="223" y="-10"/>
      <point x="241" y="-4"/>
      <point x="255" y="4" type="curve"/>
      <point x="256" y="20" type="line"/>
      <point x="239" y="10"/>
      <point x="226" y="4"/>
      <point x="195" y="4" type="curve" smooth="yes"/>
      <point x="142" y="4"/>
      <point x="114" y="34"/>
      <point x="114" y="107" type="curve" smooth="yes"/>
      <point x="114" y="730" type="line"/>
    </contour>
    <contour>
      <point x="106" y="730" type="move" name="top"/>
    </contour>
    <contour>
      <point x="211" y="0" type="move" name="bottom"/>
    </contour>
    <contour>
      <point x="246" y="730" type="move" name="topright"/>
    </contour>
  </outline>
</glyph>
<glyph name="m" format="1">
  <advance width="996"/>
  <unicode hex="006D"/>
  <outline>
    <contour>
      <point x="98" y="500" type="line"/>
      <point x="98" y="301" type="line"/>
      <point x="98" y="0" type="line"/>
      <point x="114" y="0" type="line"/>
      <point x="114" y="301" type="line"/>
      <point x="114" y="500" type="line"/>
    </contour>
    <contour>
      <point x="193" y="510"/>
      <point x="107" y="423"/>
      <point x="107" y="317" type="curve"/>
      <point x="114" y="301" type="line"/>
      <point x="114" y="405"/>
      <point x="198" y="496"/>
      <point x="305" y="496" type="curve" smooth="yes"/>
      <point x="416" y="496"/>
      <point x="492" y="433"/>
      <point x="492" y="327" type="curve" smooth="yes"/>
      <point x="492" y="1" type="line"/>
      <point x="508" y="1" type="line"/>
      <point x="508" y="329" type="line" smooth="yes"/>
      <point x="508" y="442"/>
      <point x="426" y="510"/>
      <point x="308" y="510" type="curve" smooth="yes"/>
    </contour>
    <contour>
      <point x="587" y="511"/>
      <point x="501" y="424"/>
      <point x="501" y="318" type="curve"/>
      <point x="508" y="302" type="line"/>
      <point x="508" y="406"/>
      <point x="592" y="497"/>
      <point x="699" y="497" type="curve" smooth="yes"/>
      <point x="810" y="497"/>
      <point x="886" y="434"/>
      <point x="886" y="328" type="curve" smooth="yes"/>
      <point x="886" y="2" type="line"/>
      <point x="902" y="2" type="line"/>
      <point x="902" y="330" type="line" smooth="yes"/>
      <point x="902" y="443"/>
      <point x="820" y="511"/>
      <point x="702" y="511" type="curve" smooth="yes"/>
    </contour>
  </outline>
</glyph>
<glyph name="n" format="1">
  <advance width="602"/>
  <unicode hex="006E"/>
  <outline>
    <contour>
      <point x="193" y="510"/>
      <point x="107" y="423"/>
      <point x="107" y="317" type="curve"/>
      <point x="114" y="301" type="line"/>
      <point x="114" y="405"/>
      <point x="198" y="496"/>
      <point x="305" y="496" type="curve" smooth="yes"/>
      <point x="416" y="496"/>
      <point x="492" y="433"/>
      <point x="492" y="327" type="curve" smooth="yes"/>
      <point x="492" y="0" type="line"/>
      <point x="508" y="0" type="line"/>
      <point x="508" y="329" type="line" smooth="yes"/>
      <point x="508" y="442"/>
      <point x="426" y="510"/>
      <point x="308" y="510" type="curve" smooth="yes"/>
    </contour>
    <contour>
      <point x="98" y="500" type="line"/>
      <point x="98" y="301" type="line"/>
      <point x="98" y="0" type="line"/>
      <point x="114" y="0" type="line"/>
      <point x="114" y="301" type="line"/>
      <point x="114" y="500" type="line"/>
    </contour>
    <contour>
      <point x="306" y="500" type="move" name="top"/>
    </contour>
    <contour>
      <point x="336" y="0" type="move" name="bottom"/>
    </contour>
  </outline>
</glyph>
<glyph name="o" format="1">
  <advance width="615"/>
  <unicode hex="006F"/>
  <outline>
    <contour>
      <point x="163" y="510"/>
      <point x="74" y="412"/>
      <point x="74" y="250" type="curve" smooth="yes"/>
      <point x="74" y="88"/>
      <point x="163" y="-10"/>
      <point x="308" y="-10" type="curve" smooth="yes"/>
      <point x="453" y="-10"/>
      <point x="541" y="88"/>
      <point x="541" y="250" type="curve" smooth="yes"/>
      <point x="541" y="412"/>
      <point x="453" y="510"/>
      <point x="308" y="510" type="curve" smooth="yes"/>
    </contour>
    <contour>
      <point x="443" y="496"/>
      <point x="525" y="403"/>
      <point x="525" y="250" type="curve" smooth="yes"/>
      <point x="525" y="97"/>
      <point x="443" y="4"/>
      <point x="308" y="4" type="curve" smooth="yes"/>
      <point x="173" y="4"/>
      <point x="90" y="97"/>
      <point x="90" y="250" type="curve" smooth="yes"/>
      <point x="90" y="403"/>
      <point x="173" y="496"/>
      <point x="308" y="496" type="curve" smooth="yes"/>
    </contour>
    <contour>
      <point x="308" y="500" type="move" name="top"/>
    </contour>
  </outline>
</glyph>
<glyph name="p" format="1">
  <advance width="621"/>
  <unicode hex="0070"/>
  <outline>
    <contour>
      <point x="98" y="500" type="line"/>
      <point x="98" y="399" type="line"/>
      <point x="98" y="-210" type="line"/>
      <point x="114" y="-210" type="line"/>
      <point x="114" y="321" type="line"/>
      <point x="114" y="500" type="line"/>
    </contour>
    <component base="bowl" xOffset="671" xScale="-1"/>
  </outline>
</glyph>
<glyph name="q" format="1">
  <advance width="621"/>
  <unicode hex="0071"/>
  <outline>
    <contour>
      <point x="507" y="500" type="line"/>
      <point x="507" y="318" type="line"/>
      <point x="507" y="-210" type="line"/>
      <point x="523" y="-210" type="line"/>
      <point x="523" y="399" type="line"/>
      <point x="523" y="500" type="line"/>
    </contour>
    <component base="bowl" xOffset="-50"/>
  </outline>
</glyph>
<glyph name="r" format="1">
  <advance width="355"/>
  <unicode hex="0072"/>
  <outline>
    <contour>
      <point x="175" y="510"/>
      <point x="107" y="413"/>
      <point x="107" y="307" type="curve"/>
      <point x="114" y="291" type="line"/>
      <point x="114" y="395"/>
      <point x="174" y="496"/>
      <point x="276" y="496" type="curve" smooth="yes"/>
      <point x="311" y="496"/>
      <point x="327" y="487"/>
      <point x="340" y="474" type="curve"/>
      <point x="349" y="486" type="line"/>
      <point x="335" y="500"/>
      <point x="312" y="510"/>
      <point x="278" y="510" type="curve" smooth="yes"/>
    </contour>
    <contour>
      <point x="98" y="500" type="line"/>
      <point x="98" y="291" type="line"/>
      <point x="98" y="0" type="line"/>
      <point x="114" y="0" type="line"/>
      <point x="114" y="291" type="line"/>
      <point x="114" y="500" type="line"/>
    </contour>
    <contour>
      <point x="209" y="500" type="move" name="top"/>
    </contour>
    <contour>
      <point x="114" y="0" type="move" name="bottom"/>
    </contour>
  </outline>
</glyph>
<glyph name="s" format="1">
  <advance width="477"/>
  <unicode hex="0073"/>
  <outline>
    <contour>
      <point x="136" y="510"/>
      <point x="58" y="451"/>
      <point x="58" y="374" type="curve" smooth="yes"/>
      <point x="58" y="183"/>
      <point x="415" y="293"/>
      <point x="415" y="124" type="curve" smooth="yes"/>
      <point x="415" y="51"/>
      <point x="348" y="4"/>
      <point x="242" y="4" type="curve" smooth="yes"/>
      <point x="141" y="4"/>
      <point x="68" y="43"/>
      <point x="51" y="118" type="curve"/>
      <point x="36" y="111" type="line"/>
      <point x="55" y="31"/>
      <point x="135" y="-10"/>
      <point x="239" y="-10" type="curve" smooth="yes"/>
      <point x="357" y="-10"/>
      <point x="431" y="41"/>
      <point x="431" y="124" type="curve" smooth="yes"/>
      <point x="431" y="310"/>
      <point x="74" y="196"/>
      <point x="74" y="378" type="curve" smooth="yes"/>
      <point x="74" y="445"/>
      <point x="145" y="496"/>
      <point x="243" y="496" type="curve" smooth="yes"/>
      <point x="337" y="496"/>
      <point x="398" y="459"/>
      <point x="415" y="377" type="curve"/>
      <point x="429" y="385" type="line"/>
      <point x="410" y="472"/>
      <point x="345" y="510"/>
      <point x="243" y="510" type="curve" smooth="yes"/>
    </contour>
    <contour>
      <point x="238" y="500" type="move" name="top"/>
    </contour>
    <contour>
      <point x="251" y="0" type="move" name="bottom"/>
    </contour>
  </outline>
</glyph>
<glyph name="t" format="1">
  <advance width="383"/>
  <unicode hex="0074"/>
  <outline>
    <contour>
      <point x="130" y="630" type="line"/>
      <point x="131" y="126" type="line" smooth="yes"/>
      <point x="131" y="37"/>
      <point x="169" y="-10"/>
      <point x="250" y="-10" type="curve" smooth="yes"/>
      <point x="290" y="-10"/>
      <point x="326" y="7"/>
      <point x="346" y="28" type="curve"/>
      <point x="338" y="41" type="line"/>
      <point x="314" y="15"/>
      <point x="285" y="4"/>
      <point x="250" y="4" type="curve" smooth="yes"/>
      <point x="178" y="4"/>
      <point x="146" y="46"/>
      <point x="146" y="126" type="curve" smooth="yes"/>
      <point x="146" y="635" type="line"/>
    </contour>
    <contour>
      <point x="30" y="500" type="line"/>
      <point x="30" y="486" type="line"/>
      <point x="339" y="486" type="line"/>
      <point x="339" y="500" type="line"/>
    </contour>
    <contour>
      <point x="138" y="281" type="move" name="center"/>
    </contour>
    <contour>
      <point x="229" y="0" type="move" name="bottom"/>
    </contour>
    <contour>
      <point x="266" y="767" type="move" name="topright"/>
    </contour>
  </outline>
</glyph>
<glyph name="v" format="1">
  <advance width="451"/>
  <unicode hex="0076"/>
  <outline>
    <contour>
      <point x="426" y="500" type="line"/>
      <point x="217" y="0" type="line"/>
      <point x="234" y="0" type="line"/>
      <point x="444" y="500" type="line"/>
    </contour>
    <contour>
      <point x="7" y="500" type="line"/>
      <point x="217" y="0" type="line"/>
      <point x="234" y="0" type="line"/>
      <point x="25" y="500" type="line"/>
    </contour>
  </outline>
</glyph>
<glyph name="w" format="1">
  <advance width="773"/>
  <unicode hex="0077"/>
  <outline>
    <contour>
      <point x="378" y="500" type="line"/>
      <point x="565" y="0" type="line"/>
      <point x="581" y="0" type="line"/>
      <point x="395" y="500" type="line"/>
    </contour>
    <contour>
      <point x="26" y="500" type="line"/>
      <point x="192" y="0" type="line"/>
      <point x="208" y="0" type="line"/>
      <point x="43" y="500" type="line"/>
    </contour>
    <contour>
      <point x="378" y="500" type="line"/>
      <point x="192" y="0" type="line"/>
      <point x="208" y="0" type="line"/>
      <point x="395" y="500" type="line"/>
    </contour>
    <contour>
      <point x="730" y="500" type="line"/>
      <point x="565" y="0" type="line"/>
      <point x="581" y="0" type="line"/>
      <point x="747" y="500" type="line"/>
    </contour>
  </outline>
</glyph>
<glyph name="x" format="1">
  <advance width="445"/>
  <unicode hex="0078"/>
  <outline>
    <contour>
      <point x="370" y="500" type="line"/>
      <point x="220" y="268" type="line"/>
      <point x="216" y="264" type="line"/>
      <point x="32" y="0" type="line"/>
      <point x="53" y="0" type="line"/>
      <point x="227" y="250" type="line"/>
      <point x="230" y="254" type="line"/>
      <point x="392" y="500" type="line"/>
    </contour>
    <contour>
      <point x="41" y="500" type="line"/>
      <point x="397" y="0" type="line"/>
      <point x="417" y="0" type="line"/>
      <point x="63" y="500" type="line"/>
    </contour>
  </outline>
</glyph>
<glyph name="y" format="1">
  <advance width="481"/>
  <unicode hex="0079"/>
  <outline>
    <contour>
      <point x="444" y="500" type="line"/>
      <point x="198" y="-98" type="line" smooth="yes"/>
      <point x="165" y="-178"/>
      <point x="130" y="-201"/>
      <point x="78" y="-201" type="curve" smooth="yes"/>
      <point x="50" y="-201"/>
      <point x="23" y="-193"/>
      <point x="8" y="-170" type="curve"/>
      <point x="-1" y="-183" type="line"/>
      <point x="13" y="-204"/>
      <point x="42" y="-215"/>
      <point x="77" y="-215" type="curve" smooth="yes"/>
      <point x="139" y="-215"/>
      <point x="177" y="-188"/>
      <point x="213" y="-101" type="curve" smooth="yes"/>
      <point x="462" y="500" type="line"/>
    </contour>
    <contour>
      <point x="25" y="500" type="line"/>
      <point x="238" y="-1" type="line"/>
      <point x="254" y="-1" type="line"/>
      <point x="43" y="500" type="line"/>
    </contour>
    <contour>
      <point x="238" y="562" type="move" name="top"/>
    </contour>
  </outline>
</glyph>
<glyph name="z" format="1">
  <advance width="484"/>
  <unicode hex="007A"/>
  <outline>
    <contour>
      <point x="37" y="14" type="line"/>
      <point x="50" y="5" type="line"/>
      <point x="447" y="486" type="line"/>
      <point x="434" y="493" type="line"/>
    </contour>
    <contour>
      <point x="48" y="14" type="line"/>
      <point x="37" y="14" type="line"/>
      <point x="37" y="0" type="line"/>
      <point x="48" y="0" type="line"/>
      <point x="456" y="0" type="line"/>
      <point x="456" y="14" type="line"/>
    </contour>
    <contour>
      <point x="437" y="500" type="line"/>
      <point x="39" y="500" type="line"/>
      <point x="39" y="486" type="line"/>
      <point x="437" y="486" type="line"/>
      <point x="447" y="486" type="line"/>
      <point x="447" y="500" type="line"/>
    </contour>
    <contour>
      <point x="241" y="500" type="move" name="top"/>
    </contour>
  </outline>
</glyph>
<glyph name="braceleft" format="1">
  <advance width="453"/>
  <unicode hex="007B"/>
  <outline>
    <contour>
      <point x="233" y="772"/>
      <point x="209" y="737"/>
      <point x="209" y="674" type="curve"/>
      <point x="209" y="441" type="line"/>
      <point x="209" y="351"/>
      <point x="170" y="304"/>
      <point x="86" y="294" type="curve"/>
      <point x="86" y="311" type="line"/>
      <point x="177" y="319"/>
      <point x="220" y="358"/>
      <point x="220" y="433" type="curve"/>
      <point x="220" y="680" type="line"/>
      <point x="220" y="732"/>
      <point x="254" y="761"/>
      <point x="310" y="770" type="curve"/>
      <point x="310" y="779" type="line"/>
    </contour>
    <contour>
      <point x="86" y="276" type="line"/>
      <point x="170" y="266"/>
      <point x="209" y="218"/>
      <point x="209" y="129" type="curve"/>
      <point x="209" y="-104" type="line"/>
      <point x="209" y="-168"/>
      <point x="233" y="-202"/>
      <point x="310" y="-210" type="curve"/>
      <point x="310" y="-200" type="line"/>
      <point x="254" y="-192"/>
      <point x="220" y="-162"/>
      <point x="220" y="-111" type="curve"/>
      <point x="220" y="136" type="line"/>
      <point x="220" y="211"/>
      <point x="177" y="251"/>
      <point x="86" y="259" type="curve"/>
    </contour>
  </outline>
</glyph>
<glyph name="bar" format="1">
  <advance width="227"/>
  <unicode hex="007C"/>
  <outline>
    <contour>
      <point x="106" y="730" type="line"/>
      <point x="106" y="-168" type="line"/>
      <point x="121" y="-168" type="line"/>
      <point x="121" y="730" type="line"/>
    </contour>
  </outline>
</glyph>
<glyph name="asciitilde" format="1">
  <advance width="577"/>
  <unicode hex="007E"/>
  <outline>
    <contour>
      <point x="525" y="368" type="line"/>
      <point x="513" y="293"/>
      <point x="474" y="255"/>
      <point x="406" y="255" type="curve" smooth="yes"/>
      <point x="304" y="255"/>
      <point x="271" y="367"/>
      <point x="169" y="367" type="curve" smooth="yes"/>
      <point x="94" y="367"/>
      <point x="48" y="324"/>
      <point x="36" y="240" type="curve"/>
      <point x="52" y="240" type="line"/>
      <point x="64" y="315"/>
      <point x="103" y="353"/>
      <point x="169" y="353" type="curve" smooth="yes"/>
      <point x="259" y="353"/>
      <point x="292" y="241"/>
      <point x="406" y="241" type="curve" smooth="yes"/>
      <point x="481" y="241"/>
      <point x="529" y="284"/>
      <point x="541" y="368" type="curve"/>
    </contour>
  </outline>
</glyph>
<glyph name="cent" format="1">
  <advance width="597"/>
  <unicode hex="00A2"/>
  <outline>
    <contour>
      <point x="305" y="589" type="line"/>
      <point x="305" y="-89" type="line"/>
      <point x="291" y="-89" type="line"/>
      <point x="291" y="589" type="line"/>
    </contour>
    <component base="c"/>
  </outline>
</glyph>
<glyph name="sterling" format="1">
  <advance width="584"/>
  <unicode hex="00A3"/>
  <outline>
    <contour>
      <point x="230" y="670"/>
      <point x="153" y="598"/>
      <point x="153" y="488" type="curve" smooth="yes"/>
      <point x="153" y="333"/>
      <point x="299" y="301"/>
      <point x="299" y="154" type="curve" smooth="yes"/>
      <point x="299" y="71"/>
      <point x="231" y="4"/>
      <point x="136" y="4" type="curve" smooth="yes"/>
      <point x="88" y="4"/>
      <point x="57" y="24"/>
      <point x="57" y="56" type="curve" smooth="yes"/>
      <point x="57" y="89"/>
      <point x="91" y="111"/>
      <point x="144" y="111" type="curve" smooth="yes"/>
      <point x="268" y="111"/>
      <point x="305" y="-10"/>
      <point x="438" y="-10" type="curve" smooth="yes"/>
      <point x="492" y="-10"/>
      <point x="530" y="9"/>
      <point x="543" y="56" type="curve"/>
      <point x="532" y="65" type="line"/>
      <point x="519" y="16"/>
      <point x="478" y="4"/>
      <point x="438" y="4" type="curve" smooth="yes"/>
      <point x="310" y="4"/>
      <point x="276" y="125"/>
      <point x="143" y="125" type="curve" smooth="yes"/>
      <point x="81" y="125"/>
      <point x="41" y="98"/>
      <point x="41" y="56" type="curve" smooth="yes"/>
      <point x="41" y="16"/>
      <point x="78" y="-10"/>
      <point x="136" y="-10" type="curve" smooth="yes"/>
      <point x="236" y="-10"/>
      <point x="315" y="61"/>
      <point x="315" y="156" type="curve" smooth="yes"/>
      <point x="315" y="300"/>
      <point x="169" y="344"/>
      <point x="169" y="488" type="curve" smooth="yes"/>
      <point x="169" y="590"/>
      <point x="237" y="656"/>
      <point x="345" y="656" type="curve" smooth="yes"/>
      <point x="432" y="656"/>
      <point x="495" y="601"/>
      <point x="503" y="519" type="curve"/>
      <point x="518" y="525" type="line"/>
      <point x="509" y="613"/>
      <point x="443" y="670"/>
      <point x="345" y="670" type="curve" smooth="yes"/>
    </contour>
    <contour>
      <point x="104" y="317" type="line"/>
      <point x="104" y="303" type="line"/>
      <point x="457" y="303" type="line"/>
      <point x="457" y="317" type="line"/>
    </contour>
  </outline>
</glyph>
<glyph name="currency" format="1">
  <advance width="584"/>
  <unicode hex="00A4"/>
  <outline>
    <contour>
      <point x="185" y="516"/>
      <point x="115" y="444"/>
      <point x="115" y="333" type="curve" smooth="yes"/>
      <point x="115" y="221"/>
      <point x="185" y="148"/>
      <point x="292" y="148" type="curve" smooth="yes"/>
      <point x="398" y="148"/>
      <point x="468" y="221"/>
      <point x="468" y="333" type="curve" smooth="yes"/>
      <point x="468" y="444"/>
      <point x="398" y="516"/>
      <point x="292" y="516" type="curve" smooth="yes"/>
    </contour>
    <contour>
      <point x="53" y="103" type="line"/>
      <point x="65" y="91" type="line"/>
      <point x="173" y="199" type="line"/>
      <point x="161" y="211" type="line"/>
    </contour>
    <contour>
      <point x="412" y="199" type="line"/>
      <point x="520" y="91" type="line"/>
      <point x="531" y="102" type="line"/>
      <point x="422" y="211" type="line"/>
    </contour>
    <contour>
      <point x="390" y="502"/>
      <point x="452" y="436"/>
      <point x="452" y="333" type="curve" smooth="yes"/>
      <point x="452" y="228"/>
      <point x="390" y="162"/>
      <point x="292" y="162" type="curve" smooth="yes"/>
      <point x="194" y="162"/>
      <point x="131" y="228"/>
      <point x="131" y="333" type="curve" smooth="yes"/>
      <point x="131" y="436"/>
      <point x="194" y="502"/>
      <point x="292" y="502" type="curve" smooth="yes"/>
    </contour>
    <contour>
      <point x="53" y="557" type="line"/>
      <point x="159" y="451" type="line"/>
      <point x="171" y="462" type="line"/>
      <point x="65" y="569" type="line"/>
    </contour>
    <contour>
      <point x="413" y="463" type="line"/>
      <point x="424" y="450" type="line"/>
      <point x="531" y="558" type="line"/>
      <point x="520" y="569" type="line"/>
    </contour>
    <contour>
      <point x="526" y="96" type="move" name="top"/>
    </contour>
  </outline>
</glyph>
<glyph name="yen" format="1">
  <advance width="535"/>
  <unicode hex="00A5"/>
  <outline>
    <contour>
      <point x="53" y="270" type="line"/>
      <point x="53" y="256" type="line"/>
      <point x="482" y="256" type="line"/>
      <point x="482" y="270" type="line"/>
    </contour>
    <contour>
      <point x="53" y="112" type="line"/>
      <point x="53" y="98" type="line"/>
      <point x="482" y="98" type="line"/>
      <point x="482" y="112" type="line"/>
    </contour>
    <component base="Y" xOffset="-1"/>
  </outline>
</glyph>
<glyph name="brokenbar" format="1">
  <advance width="292"/>
  <unicode hex="00A6"/>
  <outline>
    <contour>
      <point x="144" y="757" type="line"/>
      <point x="144" y="414" type="line"/>
      <point x="148" y="414" type="line"/>
      <point x="148" y="757" type="line"/>
    </contour>
    <contour>
      <point x="144" y="156" type="line"/>
      <point x="144" y="-187" type="line"/>
      <point x="148" y="-187" type="line"/>
      <point x="148" y="156" type="line"/>
    </contour>
  </outline>
</glyph>
<glyph name="section" format="1">
  <advance width="587"/>
  <unicode hex="00A7"/>
  <outline>
    <contour>
      <point x="147" y="670"/>
      <point x="60" y="597"/>
      <point x="60" y="515" type="curve" smooth="yes"/>
      <point x="60" y="298"/>
      <point x="530" y="426"/>
      <point x="530" y="226" type="curve" smooth="yes"/>
      <point x="530" y="139"/>
      <point x="425" y="87"/>
      <point x="303" y="87" type="curve"/>
      <point x="310" y="77" type="line"/>
      <point x="454" y="77"/>
      <point x="546" y="139"/>
      <point x="546" y="226" type="curve" smooth="yes"/>
      <point x="546" y="444"/>
      <point x="76" y="311"/>
      <point x="76" y="515" type="curve" smooth="yes"/>
      <point x="76" y="595"/>
      <point x="161" y="656"/>
      <point x="295" y="656" type="curve" smooth="yes"/>
      <point x="415" y="656"/>
      <point x="496" y="618"/>
      <point x="523" y="528" type="curve"/>
      <point x="536" y="537" type="line"/>
      <point x="505" y="629"/>
      <point x="420" y="670"/>
      <point x="295" y="670" type="curve" smooth="yes"/>
    </contour>
    <contour>
      <point x="145" y="377"/>
      <point x="60" y="315"/>
      <point x="60" y="233" type="curve" smooth="yes"/>
      <point x="60" y="16"/>
      <point x="530" y="134"/>
      <point x="530" y="-66" type="curve" smooth="yes"/>
      <point x="530" y="-153"/>
      <point x="431" y="-200"/>
      <point x="309" y="-200" type="curve" smooth="yes"/>
      <point x="182" y="-200"/>
      <point x="84" y="-149"/>
      <point x="60" y="-54" type="curve"/>
      <point x="45" y="-61" type="line"/>
      <point x="73" y="-160"/>
      <point x="174" y="-215"/>
      <point x="309" y="-215" type="curve" smooth="yes"/>
      <point x="453" y="-215"/>
      <point x="546" y="-153"/>
      <point x="546" y="-66" type="curve" smooth="yes"/>
      <point x="546" y="152"/>
      <point x="76" y="29"/>
      <point x="76" y="233" type="curve" smooth="yes"/>
      <point x="76" y="313"/>
      <point x="166" y="367"/>
      <point x="260" y="374" type="curve"/>
      <point x="253" y="384" type="line"/>
    </contour>
    <contour>
      <point x="301" y="733" type="move" name="top"/>
    </contour>
    <contour>
      <point x="311" y="87" type="move" name="bottom"/>
    </contour>
  </outline>
</glyph>
<glyph name="dieresis" format="1">
  <advance width="550"/>
  <unicode hex="00A8"/>
  <outline>
    <contour>
      <point x="152" y="730"/>
      <point x="139" y="717"/>
      <point x="139" y="698" type="curve"/>
      <point x="139" y="680"/>
      <point x="152" y="667"/>
      <point x="166" y="667" type="curve"/>
      <point x="179" y="667"/>
      <point x="192" y="680"/>
      <point x="192" y="698" type="curve"/>
      <point x="192" y="717"/>
      <point x="179" y="730"/>
      <point x="166" y="730" type="curve"/>
    </contour>
    <contour>
      <point x="369" y="730"/>
      <point x="356" y="717"/>
      <point x="356" y="698" type="curve"/>
      <point x="356" y="680"/>
      <point x="369" y="667"/>
      <point x="382" y="667" type="curve"/>
      <point x="396" y="667"/>
      <point x="409" y="680"/>
      <point x="409" y="698" type="curve"/>
      <point x="409" y="717"/>
      <point x="396" y="730"/>
      <point x="382" y="730" type="curve"/>
    </contour>
    <contour>
      <point x="278" y="562" type="move" name="_top"/>
    </contour>
  </outline>
</glyph>
<glyph name="copyright" format="1">
  <advance width="800"/>
  <unicode hex="00A9"/>
  <outline>
    <contour>
      <point x="192" y="670"/>
      <point x="58" y="536"/>
      <point x="58" y="330" type="curve" smooth="yes"/>
      <point x="58" y="124"/>
      <point x="192" y="-10"/>
      <point x="400" y="-10" type="curve" smooth="yes"/>
      <point x="608" y="-10"/>
      <point x="742" y="124"/>
      <point x="742" y="330" type="curve" smooth="yes"/>
      <point x="742" y="536"/>
      <point x="608" y="670"/>
      <point x="400" y="670" type="curve" smooth="yes"/>
    </contour>
    <contour>
      <point x="599" y="656"/>
      <point x="726" y="529"/>
      <point x="726" y="330" type="curve" smooth="yes"/>
      <point x="726" y="131"/>
      <point x="599" y="4"/>
      <point x="400" y="4" type="curve" smooth="yes"/>
      <point x="201" y="4"/>
      <point x="74" y="131"/>
      <point x="74" y="330" type="curve" smooth="yes"/>
      <point x="74" y="529"/>
      <point x="201" y="656"/>
      <point x="400" y="656" type="curve" smooth="yes"/>
    </contour>
    <contour>
      <point x="298" y="513"/>
      <point x="230" y="444"/>
      <point x="230" y="328" type="curve" smooth="yes"/>
      <point x="230" y="212"/>
      <point x="298" y="143"/>
      <point x="412" y="143" type="curve" smooth="yes"/>
      <point x="487" y="143"/>
      <point x="548" y="186"/>
      <point x="566" y="253" type="curve"/>
      <point x="551" y="259" type="line"/>
      <point x="536" y="197"/>
      <point x="481" y="157"/>
      <point x="411" y="157" type="curve" smooth="yes"/>
      <point x="308" y="157"/>
      <point x="246" y="221"/>
      <point x="246" y="328" type="curve" smooth="yes"/>
      <point x="246" y="435"/>
      <point x="308" y="499"/>
      <point x="411" y="499" type="curve" smooth="yes"/>
      <point x="482" y="499"/>
      <point x="528" y="468"/>
      <point x="547" y="406" type="curve"/>
      <point x="561" y="413" type="line"/>
      <point x="539" y="479"/>
      <point x="488" y="513"/>
      <point x="412" y="513" type="curve" smooth="yes"/>
    </contour>
  </outline>
</glyph>
<glyph name="ordfeminine" format="1">
  <advance width="396"/>
  <unicode hex="00AA"/>
  <outline>
    <contour>
      <point x="125" y="670"/>
      <point x="78" y="639"/>
      <point x="59" y="582" type="curve"/>
      <point x="73" y="574" type="line"/>
      <point x="87" y="627"/>
      <point x="129" y="656"/>
      <point x="193" y="656" type="curve" smooth="yes"/>
      <point x="264" y="656"/>
      <point x="303" y="616"/>
      <point x="303" y="544" type="curve" smooth="yes"/>
      <point x="303" y="394" type="line" smooth="yes"/>
      <point x="303" y="339"/>
      <point x="327" y="316"/>
      <point x="365" y="316" type="curve" smooth="yes"/>
      <point x="372" y="316"/>
      <point x="380" y="317"/>
      <point x="385" y="321" type="curve"/>
      <point x="381" y="332" type="line"/>
      <point x="378" y="331"/>
      <point x="374" y="330"/>
      <point x="366" y="330" type="curve" smooth="yes"/>
      <point x="337" y="330"/>
      <point x="319" y="350"/>
      <point x="319" y="398" type="curve" smooth="yes"/>
      <point x="319" y="551" type="line" smooth="yes"/>
      <point x="319" y="628"/>
      <point x="273" y="670"/>
      <point x="191" y="670" type="curve" smooth="yes"/>
    </contour>
    <contour>
      <point x="49" y="216" type="line"/>
      <point x="49" y="202" type="line"/>
      <point x="368" y="202" type="line"/>
      <point x="368" y="216" type="line"/>
    </contour>
    <contour>
      <point x="159" y="494" type="line" smooth="yes"/>
      <point x="95" y="482"/>
      <point x="50" y="450"/>
      <point x="50" y="400" type="curve" smooth="yes"/>
      <point x="50" y="344"/>
      <point x="92" y="316"/>
      <point x="161" y="316" type="curve" smooth="yes"/>
      <point x="253" y="316"/>
      <point x="309" y="374"/>
      <point x="311" y="439" type="curve"/>
      <point x="303" y="451" type="line"/>
      <point x="303" y="385"/>
      <point x="246" y="330"/>
      <point x="161" y="330" type="curve" smooth="yes"/>
      <point x="102" y="330"/>
      <point x="66" y="353"/>
      <point x="66" y="399" type="curve" smooth="yes"/>
      <point x="66" y="442"/>
      <point x="107" y="471"/>
      <point x="167" y="482" type="curve" smooth="yes"/>
      <point x="313" y="510" type="line"/>
      <point x="311" y="523" type="line"/>
    </contour>
  </outline>
</glyph>
<glyph name="logicalnot" format="1">
  <advance width="577"/>
  <unicode hex="00AC"/>
  <outline>
    <contour>
      <point x="504" y="293" type="line"/>
      <point x="504" y="146" type="line"/>
      <point x="520" y="146" type="line"/>
      <point x="520" y="293" type="line"/>
    </contour>
    <component base="minus"/>
  </outline>
</glyph>
<glyph name="registered" format="1">
  <advance width="800"/>
  <unicode hex="00AE"/>
  <outline>
    <contour>
      <point x="284" y="513" type="line"/>
      <point x="284" y="499" type="line"/>
      <point x="433" y="499" type="line" smooth="yes"/>
      <point x="502" y="499"/>
      <point x="537" y="470"/>
      <point x="537" y="412" type="curve" smooth="yes"/>
      <point x="537" y="355"/>
      <point x="502" y="325"/>
      <point x="433" y="324" type="curve" smooth="yes"/>
      <point x="284" y="324" type="line"/>
      <point x="284" y="311" type="line"/>
      <point x="433" y="311" type="line" smooth="yes"/>
      <point x="512" y="312"/>
      <point x="552" y="346"/>
      <point x="552" y="412" type="curve" smooth="yes"/>
      <point x="552" y="479"/>
      <point x="512" y="513"/>
      <point x="433" y="513" type="curve" smooth="yes"/>
    </contour>
    <contour>
      <point x="278" y="513" type="line"/>
      <point x="278" y="143" type="line"/>
      <point x="294" y="143" type="line"/>
      <point x="294" y="513" type="line"/>
    </contour>
    <contour>
      <point x="429" y="316" type="line"/>
      <point x="540" y="143" type="line"/>
      <point x="558" y="143" type="line"/>
      <point x="443" y="322" type="line"/>
    </contour>
    <contour>
      <point x="599" y="656"/>
      <point x="726" y="529"/>
      <point x="726" y="330" type="curve" smooth="yes"/>
      <point x="726" y="131"/>
      <point x="599" y="4"/>
      <point x="400" y="4" type="curve" smooth="yes"/>
      <point x="201" y="4"/>
      <point x="74" y="131"/>
      <point x="74" y="330" type="curve" smooth="yes"/>
      <point x="74" y="529"/>
      <point x="201" y="656"/>
      <point x="400" y="656" type="curve" smooth="yes"/>
    </contour>
    <contour>
      <point x="192" y="670"/>
      <point x="58" y="536"/>
      <point x="58" y="330" type="curve" smooth="yes"/>
      <point x="58" y="124"/>
      <point x="192" y="-10"/>
      <point x="400" y="-10" type="curve" smooth="yes"/>
      <point x="608" y="-10"/>
      <point x="742" y="124"/>
      <point x="742" y="330" type="curve" smooth="yes"/>
      <point x="742" y="536"/>
      <point x="608" y="670"/>
      <point x="400" y="670" type="curve" smooth="yes"/>
    </contour>
  </outline>
</glyph>
<glyph name="macron" format="1">
  <advance width="550"/>
  <unicode hex="00AF"/>
  <outline>
    <contour>
      <point x="120" y="694" type="line"/>
      <point x="120" y="684" type="line"/>
      <point x="431" y="684" type="line"/>
      <point x="431" y="694" type="line"/>
    </contour>
    <contour>
      <point x="550" y="11" type="move" name="ogonek"/>
    </contour>
    <contour>
      <point x="275" y="562" type="move" name="_top"/>
    </contour>
  </outline>
</glyph>
<glyph name="degree" format="1">
  <advance width="370"/>
  <unicode hex="00B0"/>
  <outline>
    <contour>
      <point x="104" y="670"/>
      <point x="51" y="615"/>
      <point x="51" y="535" type="curve" smooth="yes"/>
      <point x="51" y="455"/>
      <point x="104" y="400"/>
      <point x="185" y="400" type="curve" smooth="yes"/>
      <point x="266" y="400"/>
      <point x="319" y="455"/>
      <point x="319" y="535" type="curve" smooth="yes"/>
      <point x="319" y="615"/>
      <point x="266" y="670"/>
      <point x="185" y="670" type="curve" smooth="yes"/>
    </contour>
    <contour>
      <point x="257" y="656"/>
      <point x="303" y="606"/>
      <point x="303" y="535" type="curve" smooth="yes"/>
      <point x="303" y="464"/>
      <point x="257" y="414"/>
      <point x="185" y="414" type="curve" smooth="yes"/>
      <point x="113" y="414"/>
      <point x="67" y="464"/>
      <point x="67" y="535" type="curve" smooth="yes"/>
      <point x="67" y="606"/>
      <point x="113" y="656"/>
      <point x="185" y="656" type="curve" smooth="yes"/>
    </contour>
  </outline>
</glyph>
<glyph name="plusminus" format="1">
  <advance width="577"/>
  <unicode hex="00B1"/>
  <outline>
    <contour>
      <point x="57" y="391" type="line"/>
      <point x="57" y="377" type="line"/>
      <point x="520" y="377" type="line"/>
      <point x="520" y="391" type="line"/>
    </contour>
    <contour>
      <point x="281" y="610" type="line"/>
      <point x="281" y="154" type="line"/>
      <point x="297" y="154" type="line"/>
      <point x="297" y="610" type="line"/>
    </contour>
    <component base="minus" yOffset="-253"/>
  </outline>
</glyph>
<glyph name="twosuperior" format="1">
  <advance width="301"/>
  <unicode hex="00B2"/>
  <outline>
    <contour>
      <point x="81" y="670"/>
      <point x="37" y="630"/>
      <point x="30" y="561" type="curve"/>
      <point x="45" y="555" type="line"/>
      <point x="49" y="617"/>
      <point x="89" y="656"/>
      <point x="146" y="656" type="curve" smooth="yes"/>
      <point x="214" y="656"/>
      <point x="249" y="623"/>
      <point x="249" y="559" type="curve" smooth="yes"/>
      <point x="249" y="476"/>
      <point x="142" y="418"/>
      <point x="32" y="325" type="curve"/>
      <point x="44" y="317" type="line"/>
      <point x="162" y="411"/>
      <point x="265" y="475"/>
      <point x="265" y="559" type="curve" smooth="yes"/>
      <point x="265" y="633"/>
      <point x="225" y="670"/>
      <point x="146" y="670" type="curve" smooth="yes"/>
    </contour>
    <contour>
      <point x="75" y="325" type="line"/>
      <point x="32" y="325" type="line"/>
      <point x="32" y="311" type="line"/>
      <point x="75" y="311" type="line"/>
      <point x="274" y="311" type="line"/>
      <point x="274" y="325" type="line"/>
    </contour>
  </outline>
</glyph>
<glyph name="threesuperior" format="1">
  <advance width="341"/>
  <unicode hex="00B3"/>
  <outline>
    <contour>
      <point x="137" y="486" type="line"/>
      <point x="137" y="477" type="line"/>
      <point x="178" y="477" type="line" smooth="yes"/>
      <point x="250" y="477"/>
      <point x="281" y="449"/>
      <point x="282" y="405" type="curve" smooth="yes"/>
      <point x="284" y="352"/>
      <point x="245" y="320"/>
      <point x="171" y="320" type="curve" smooth="yes"/>
      <point x="111" y="320"/>
      <point x="72" y="349"/>
      <point x="55" y="404" type="curve"/>
      <point x="44" y="398" type="line"/>
      <point x="60" y="337"/>
      <point x="104" y="306"/>
      <point x="173" y="306" type="curve" smooth="yes"/>
      <point x="254" y="306"/>
      <point x="298" y="343"/>
      <point x="298" y="403" type="curve" smooth="yes"/>
      <point x="298" y="454"/>
      <point x="261" y="486"/>
      <point x="205" y="486" type="curve" smooth="yes"/>
    </contour>
    <contour>
      <point x="111" y="670"/>
      <point x="72" y="642"/>
      <point x="60" y="586" type="curve"/>
      <point x="74" y="580" type="line"/>
      <point x="86" y="629"/>
      <point x="111" y="656"/>
      <point x="174" y="656" type="curve" smooth="yes"/>
      <point x="237" y="656"/>
      <point x="274" y="623"/>
      <point x="274" y="568" type="curve" smooth="yes"/>
      <point x="274" y="519"/>
      <point x="245" y="491"/>
      <point x="178" y="491" type="curve" smooth="yes"/>
      <point x="137" y="491" type="line"/>
      <point x="137" y="486" type="line"/>
      <point x="205" y="486" type="line" smooth="yes"/>
      <point x="257" y="486"/>
      <point x="290" y="519"/>
      <point x="290" y="573" type="curve" smooth="yes"/>
      <point x="290" y="634"/>
      <point x="247" y="670"/>
      <point x="174" y="670" type="curve" smooth="yes"/>
    </contour>
  </outline>
</glyph>
<glyph name="micro" format="1">
  <advance width="592"/>
  <unicode hex="00B5"/>
  <outline>
    <contour>
      <point x="98" y="167" type="line"/>
      <point x="98" y="54"/>
      <point x="171" y="-10"/>
      <point x="269" y="-10" type="curve" smooth="yes"/>
      <point x="396" y="-10"/>
      <point x="485" y="77"/>
      <point x="485" y="183" type="curve"/>
      <point x="478" y="199" type="line"/>
      <point x="478" y="95"/>
      <point x="391" y="4"/>
      <point x="272" y="4" type="curve" smooth="yes"/>
      <point x="177" y="4"/>
      <point x="110" y="63"/>
      <point x="110" y="169" type="curve"/>
    </contour>
    <contour>
      <point x="478" y="500" type="line"/>
      <point x="478" y="199" type="line"/>
      <point x="478" y="0" type="line"/>
      <point x="494" y="0" type="line"/>
      <point x="494" y="199" type="line"/>
      <point x="494" y="500" type="line"/>
    </contour>
    <contour>
      <point x="94" y="500" type="line"/>
      <point x="94" y="-210" type="line"/>
      <point x="110" y="-210" type="line"/>
      <point x="110" y="500" type="line"/>
    </contour>
    <contour>
      <point x="579" y="11" type="move" name="ogonek"/>
    </contour>
    <contour>
      <point x="304" y="562" type="move" name="top"/>
    </contour>
  </outline>
</glyph>
<glyph name="paragraph" format="1">
  <advance width="583"/>
  <unicode hex="00B6"/>
  <outline>
    <contour>
      <point x="295" y="660" type="line" smooth="yes"/>
      <point x="143" y="658"/>
      <point x="66" y="596"/>
      <point x="66" y="476" type="curve" smooth="yes"/>
      <point x="66" y="355"/>
      <point x="145" y="294"/>
      <point x="300" y="294" type="curve"/>
      <point x="300" y="-210" type="line"/>
      <point x="316" y="-210" type="line"/>
      <point x="316" y="660" type="line"/>
    </contour>
    <contour>
      <point x="455" y="660" type="line"/>
      <point x="455" y="-210" type="line"/>
      <point x="471" y="-210" type="line"/>
      <point x="471" y="660" type="line"/>
    </contour>
    <contour>
      <point x="306" y="660" type="line"/>
      <point x="306" y="646" type="line"/>
      <point x="471" y="646" type="line"/>
      <point x="471" y="660" type="line"/>
    </contour>
  </outline>
</glyph>
<glyph name="cedilla" format="1">
  <advance width="661"/>
  <unicode hex="00B8"/>
  <outline>
    <contour>
      <point x="404" y="-59"/>
      <point x="424" y="-91"/>
      <point x="424" y="-140" type="curve"/>
      <point x="424" y="-198"/>
      <point x="378" y="-234"/>
      <point x="325" y="-234" type="curve"/>
      <point x="303" y="-234"/>
      <point x="282" y="-228"/>
      <point x="263" y="-220" type="curve"/>
      <point x="260" y="-225" type="line"/>
      <point x="280" y="-236"/>
      <point x="303" y="-240"/>
      <point x="337" y="-240" type="curve"/>
      <point x="395" y="-240"/>
      <point x="429" y="-200"/>
      <point x="429" y="-152" type="curve"/>
      <point x="429" y="-108"/>
      <point x="398" y="-59"/>
      <point x="335" y="-34" type="curve"/>
      <point x="349" y="-27" type="line"/>
    </contour>
    <contour>
      <point x="341" y="0" type="move" name="_bottom"/>
    </contour>
  </outline>
</glyph>
<glyph name="onesuperior" format="1">
  <advance width="175"/>
  <unicode hex="00B9"/>
  <outline>
    <contour>
      <point x="8" y="581" type="line"/>
      <point x="56" y="594"/>
      <point x="103" y="621"/>
      <point x="125" y="660" type="curve"/>
      <point x="109" y="660" type="line"/>
      <point x="90" y="628"/>
      <point x="48" y="606"/>
      <point x="8" y="595" type="curve"/>
    </contour>
    <contour>
      <point x="109" y="660" type="line"/>
      <point x="109" y="518" type="line"/>
      <point x="109" y="306" type="line"/>
      <point x="125" y="306" type="line"/>
      <point x="125" y="518" type="line"/>
      <point x="125" y="660" type="line"/>
    </contour>
  </outline>
</glyph>
<glyph name="ordmasculine" format="1">
  <advance width="396"/>
  <unicode hex="00BA"/>
  <outline>
    <contour>
      <point x="126" y="670"/>
      <point x="60" y="605"/>
      <point x="60" y="498" type="curve" smooth="yes"/>
      <point x="60" y="391"/>
      <point x="126" y="326"/>
      <point x="218" y="326" type="curve" smooth="yes"/>
      <point x="310" y="326"/>
      <point x="376" y="391"/>
      <point x="376" y="498" type="curve" smooth="yes"/>
      <point x="376" y="605"/>
      <point x="310" y="670"/>
      <point x="218" y="670" type="curve" smooth="yes"/>
    </contour>
    <contour>
      <point x="59" y="216" type="line"/>
      <point x="59" y="202" type="line"/>
      <point x="378" y="202" type="line"/>
      <point x="378" y="216" type="line"/>
    </contour>
    <contour>
      <point x="301" y="656"/>
      <point x="360" y="598"/>
      <point x="360" y="498" type="curve" smooth="yes"/>
      <point x="360" y="398"/>
      <point x="301" y="340"/>
      <point x="218" y="340" type="curve" smooth="yes"/>
      <point x="135" y="340"/>
      <point x="76" y="398"/>
      <point x="76" y="498" type="curve" smooth="yes"/>
      <point x="76" y="598"/>
      <point x="135" y="656"/>
      <point x="218" y="656" type="curve" smooth="yes"/>
    </contour>
  </outline>
</glyph>
<glyph name="onequarter" format="1">
  <advance width="596"/>
  <unicode hex="00BC"/>
  <outline>
    <contour>
      <point x="15" y="581" type="line"/>
      <point x="63" y="594"/>
      <point x="110" y="621"/>
      <point x="132" y="660" type="curve"/>
      <point x="116" y="660" type="line"/>
      <point x="97" y="628"/>
      <point x="55" y="606"/>
      <point x="15" y="595" type="curve"/>
    </contour>
    <contour>
      <point x="116" y="660" type="line"/>
      <point x="116" y="518" type="line"/>
      <point x="116" y="306" type="line"/>
      <point x="132" y="306" type="line"/>
      <point x="132" y="518" type="line"/>
      <point x="132" y="660" type="line"/>
    </contour>
    <contour>
      <point x="487" y="354" type="line"/>
      <point x="342" y="135" type="line"/>
      <point x="351" y="128" type="line"/>
      <point x="379" y="163" type="line"/>
      <point x="477" y="314" type="line"/>
      <point x="498" y="354" type="line"/>
    </contour>
    <contour>
      <point x="490" y="354" type="line"/>
      <point x="490" y="128" type="line"/>
      <point x="490" y="0" type="line"/>
      <point x="506" y="0" type="line"/>
      <point x="506" y="128" type="line"/>
      <point x="506" y="354" type="line"/>
    </contour>
    <contour>
      <point x="404" y="135" type="line"/>
      <point x="342" y="135" type="line"/>
      <point x="342" y="121" type="line"/>
      <point x="588" y="121" type="line"/>
      <point x="588" y="135" type="line"/>
    </contour>
    <component base="fraction" xOffset="76"/>
  </outline>
</glyph>
<glyph name="threequarters" format="1">
  <advance width="779"/>
  <unicode hex="00BE"/>
  <outline>
    <contour>
      <point x="605" y="354" type="line"/>
      <point x="460" y="135" type="line"/>
      <point x="469" y="128" type="line"/>
      <point x="497" y="163" type="line"/>
      <point x="595" y="314" type="line"/>
      <point x="616" y="354" type="line"/>
    </contour>
    <contour>
      <point x="608" y="354" type="line"/>
      <point x="608" y="128" type="line"/>
      <point x="608" y="0" type="line"/>
      <point x="624" y="0" type="line"/>
      <point x="624" y="128" type="line"/>
      <point x="624" y="354" type="line"/>
    </contour>
    <contour>
      <point x="522" y="135" type="line"/>
      <point x="460" y="135" type="line"/>
      <point x="460" y="121" type="line"/>
      <point x="706" y="121" type="line"/>
      <point x="706" y="135" type="line"/>
    </contour>
    <component base="fraction" xOffset="204"/>
    <component base="threesuperior" xOffset="58"/>
  </outline>
</glyph>
<glyph name="AE" format="1">
  <advance width="885"/>
  <unicode hex="00C6"/>
  <outline>
    <contour>
      <point x="167" y="248" type="line"/>
      <point x="156" y="234" type="line"/>
      <point x="448" y="234" type="line"/>
      <point x="448" y="248" type="line"/>
    </contour>
    <contour>
      <point x="443" y="660" type="line"/>
      <point x="443" y="0" type="line"/>
      <point x="459" y="0" type="line"/>
      <point x="459" y="660" type="line"/>
    </contour>
    <contour>
      <point x="452" y="14" type="line"/>
      <point x="452" y="0" type="line"/>
      <point x="860" y="0" type="line"/>
      <point x="860" y="14" type="line"/>
    </contour>
    <contour>
      <point x="452" y="342" type="line"/>
      <point x="452" y="328" type="line"/>
      <point x="767" y="328" type="line"/>
      <point x="767" y="342" type="line"/>
    </contour>
    <contour>
      <point x="429" y="660" type="line"/>
      <point x="418" y="646" type="line"/>
      <point x="844" y="646" type="line"/>
      <point x="844" y="660" type="line"/>
    </contour>
    <contour>
      <point x="417" y="660" type="line"/>
      <point x="-3" y="0" type="line"/>
      <point x="20" y="0" type="line"/>
      <point x="434" y="660" type="line"/>
    </contour>
  </outline>
</glyph>
<glyph name="multiply" format="1">
  <advance width="577"/>
  <unicode hex="00D7"/>
  <outline>
    <contour>
      <point x="111" y="124" type="line"/>
      <point x="122" y="114" type="line"/>
      <point x="467" y="467" type="line"/>
      <point x="456" y="477" type="line"/>
    </contour>
    <contour>
      <point x="456" y="114" type="line"/>
      <point x="467" y="124" type="line"/>
      <point x="121" y="478" type="line"/>
      <point x="110" y="467" type="line"/>
    </contour>
  </outline>
</glyph>
<glyph name="Oslash" format="1">
  <advance width="732"/>
  <unicode hex="00D8"/>
  <outline>
    <contour>
      <point x="617" y="690" type="line"/>
      <point x="95" y="-31" type="line"/>
      <point x="115" y="-31" type="line"/>
      <point x="637" y="690" type="line"/>
    </contour>
    <component base="O"/>
  </outline>
</glyph>
<glyph name="Thorn" format="1">
  <advance width="605"/>
  <unicode hex="00DE"/>
  <outline>
    <contour>
      <point x="121" y="525" type="line"/>
      <point x="121" y="511" type="line"/>
      <point x="316" y="511" type="line" smooth="yes"/>
      <point x="454" y="511"/>
      <point x="524" y="453"/>
      <point x="524" y="340" type="curve" smooth="yes"/>
      <point x="524" y="227"/>
      <point x="454" y="169"/>
      <point x="316" y="169" type="curve" smooth="yes"/>
      <point x="121" y="169" type="line"/>
      <point x="121" y="155" type="line"/>
      <point x="307" y="155" type="line" smooth="yes"/>
      <point x="461" y="155"/>
      <point x="540" y="218"/>
      <point x="540" y="340" type="curve" smooth="yes"/>
      <point x="540" y="462"/>
      <point x="461" y="525"/>
      <point x="307" y="525" type="curve" smooth="yes"/>
    </contour>
    <contour>
      <point x="112" y="660" type="line"/>
      <point x="112" y="0" type="line"/>
      <point x="128" y="0" type="line"/>
      <point x="128" y="660" type="line"/>
    </contour>
  </outline>
</glyph>
<glyph name="germandbls" format="1">
  <advance width="572"/>
  <unicode hex="00DF"/>
  <outline>
    <contour>
      <point x="261" y="379" type="line"/>
      <point x="261" y="370" type="line"/>
      <point x="305" y="370" type="line" smooth="yes"/>
      <point x="421" y="370"/>
      <point x="503" y="310"/>
      <point x="503" y="182" type="curve" smooth="yes"/>
      <point x="503" y="73"/>
      <point x="435" y="3"/>
      <point x="333" y="3" type="curve" smooth="yes"/>
      <point x="292" y="3"/>
      <point x="262" y="15"/>
      <point x="237" y="44" type="curve"/>
      <point x="228" y="34" type="line"/>
      <point x="251" y="5"/>
      <point x="289" y="-10"/>
      <point x="333" y="-10" type="curve" smooth="yes"/>
      <point x="444" y="-10"/>
      <point x="519" y="65"/>
      <point x="519" y="182" type="curve" smooth="yes"/>
      <point x="519" y="315"/>
      <point x="435" y="379"/>
      <point x="314" y="379" type="curve" smooth="yes"/>
    </contour>
    <contour>
      <point x="410" y="721"/>
      <point x="474" y="662"/>
      <point x="474" y="563" type="curve" smooth="yes"/>
      <point x="474" y="449"/>
      <point x="403" y="384"/>
      <point x="305" y="384" type="curve" smooth="yes"/>
      <point x="261" y="384" type="line"/>
      <point x="261" y="376" type="line"/>
      <point x="314" y="376" type="line" smooth="yes"/>
      <point x="416" y="376"/>
      <point x="490" y="445"/>
      <point x="490" y="563" type="curve" smooth="yes"/>
      <point x="490" y="671"/>
      <point x="420" y="735"/>
      <point x="306" y="735" type="curve" smooth="yes"/>
      <point x="170" y="735"/>
      <point x="98" y="660"/>
      <point x="98" y="516" type="curve" smooth="yes"/>
      <point x="98" y="0" type="line"/>
      <point x="113" y="0" type="line"/>
      <point x="113" y="505" type="line" smooth="yes"/>
      <point x="113" y="647"/>
      <point x="180" y="721"/>
      <point x="306" y="721" type="curve" smooth="yes"/>
    </contour>
  </outline>
</glyph>
<glyph name="ae" format="1">
  <advance width="886"/>
  <unicode hex="00E6"/>
  <outline>
    <contour>
      <point x="505" y="510"/>
      <point x="425" y="413"/>
      <point x="425" y="250" type="curve" smooth="yes"/>
      <point x="425" y="87"/>
      <point x="506" y="-10"/>
      <point x="634" y="-10" type="curve" smooth="yes"/>
      <point x="735" y="-10"/>
      <point x="796" y="35"/>
      <point x="827" y="109" type="curve"/>
      <point x="814" y="116" type="line"/>
      <point x="785" y="46"/>
      <point x="729" y="4"/>
      <point x="634" y="4" type="curve" smooth="yes"/>
      <point x="515" y="4"/>
      <point x="440" y="96"/>
      <point x="440" y="250" type="curve" smooth="yes"/>
      <point x="440" y="404"/>
      <point x="514" y="496"/>
      <point x="633" y="496" type="curve" smooth="yes"/>
      <point x="760" y="496"/>
      <point x="822" y="419"/>
      <point x="822" y="262" type="curve" smooth="yes"/>
      <point x="822" y="257" type="line"/>
      <point x="836" y="257" type="line"/>
      <point x="836" y="264" type="line" smooth="yes"/>
      <point x="836" y="429"/>
      <point x="765" y="510"/>
      <point x="633" y="510" type="curve" smooth="yes"/>
    </contour>
    <contour>
      <point x="248" y="253" type="line" smooth="yes"/>
      <point x="117" y="240"/>
      <point x="64" y="187"/>
      <point x="64" y="108" type="curve" smooth="yes"/>
      <point x="64" y="30"/>
      <point x="128" y="-10"/>
      <point x="220" y="-10" type="curve" smooth="yes"/>
      <point x="318" y="-10"/>
      <point x="436" y="37"/>
      <point x="436" y="180" type="curve"/>
      <point x="425" y="188" type="line"/>
      <point x="425" y="44"/>
      <point x="303" y="4"/>
      <point x="225" y="4" type="curve" smooth="yes"/>
      <point x="143" y="4"/>
      <point x="80" y="38"/>
      <point x="80" y="108" type="curve" smooth="yes"/>
      <point x="80" y="175"/>
      <point x="127" y="229"/>
      <point x="259" y="241" type="curve" smooth="yes"/>
      <point x="432" y="257" type="line"/>
      <point x="430" y="271" type="line"/>
    </contour>
    <contour>
      <point x="166" y="510"/>
      <point x="105" y="471"/>
      <point x="74" y="388" type="curve"/>
      <point x="87" y="378" type="line"/>
      <point x="118" y="459"/>
      <point x="175" y="496"/>
      <point x="266" y="496" type="curve" smooth="yes"/>
      <point x="369" y="496"/>
      <point x="425" y="441"/>
      <point x="425" y="345" type="curve" smooth="yes"/>
      <point x="425" y="172" type="line"/>
      <point x="441" y="178" type="line"/>
      <point x="441" y="351" type="line" smooth="yes"/>
      <point x="441" y="453"/>
      <point x="379" y="510"/>
      <point x="266" y="510" type="curve" smooth="yes"/>
    </contour>
    <contour>
      <point x="433" y="272" type="line"/>
      <point x="433" y="257" type="line"/>
      <point x="831" y="257" type="line"/>
      <point x="831" y="272" type="line"/>
    </contour>
  </outline>
</glyph>
<glyph name="idieresis" format="1">
  <advance width="295"/>
  <unicode hex="00EF"/>
  <outline>
    <contour>
      <point x="33" y="730"/>
      <point x="20" y="717"/>
      <point x="20" y="698" type="curve"/>
      <point x="20" y="680"/>
      <point x="33" y="667"/>
      <point x="46" y="667" type="curve"/>
      <point x="60" y="667"/>
      <point x="73" y="680"/>
      <point x="73" y="698" type="curve"/>
      <point x="73" y="717"/>
      <point x="60" y="730"/>
      <point x="46" y="730" type="curve"/>
    </contour>
    <contour>
      <point x="227" y="730"/>
      <point x="214" y="717"/>
      <point x="214" y="698" type="curve"/>
      <point x="214" y="680"/>
      <point x="227" y="667"/>
      <point x="241" y="667" type="curve"/>
      <point x="254" y="667"/>
      <point x="268" y="680"/>
      <point x="268" y="698" type="curve"/>
      <point x="268" y="717"/>
      <point x="254" y="730"/>
      <point x="241" y="730" type="curve"/>
    </contour>
    <component base="dotlessi"/>
  </outline>
</glyph>
<glyph name="eth" format="1">
  <advance width="589"/>
  <unicode hex="00F0"/>
  <outline>
    <contour>
      <point x="103" y="735" type="line"/>
      <point x="97" y="721" type="line"/>
      <point x="141" y="721" type="line" smooth="yes"/>
      <point x="370" y="721"/>
      <point x="515" y="558"/>
      <point x="515" y="257" type="curve" smooth="yes"/>
      <point x="515" y="106"/>
      <point x="429" y="4"/>
      <point x="300" y="4" type="curve" smooth="yes"/>
      <point x="163" y="4"/>
      <point x="80" y="95"/>
      <point x="80" y="237" type="curve" smooth="yes"/>
      <point x="80" y="379"/>
      <point x="164" y="471"/>
      <point x="292" y="471" type="curve" smooth="yes"/>
      <point x="429" y="471"/>
      <point x="503" y="381"/>
      <point x="515" y="257" type="curve"/>
      <point x="518" y="257" type="line"/>
      <point x="511" y="406"/>
      <point x="412" y="485"/>
      <point x="292" y="485" type="curve" smooth="yes"/>
      <point x="155" y="485"/>
      <point x="64" y="388"/>
      <point x="64" y="237" type="curve" smooth="yes"/>
      <point x="64" y="88"/>
      <point x="154" y="-10"/>
      <point x="300" y="-10" type="curve" smooth="yes"/>
      <point x="438" y="-10"/>
      <point x="527" y="93"/>
      <point x="527" y="273" type="curve" smooth="yes"/>
      <point x="527" y="547"/>
      <point x="384" y="735"/>
      <point x="139" y="735" type="curve" smooth="yes"/>
    </contour>
    <contour>
      <point x="204" y="573" type="line"/>
      <point x="213" y="561" type="line"/>
      <point x="461" y="741" type="line"/>
      <point x="452" y="752" type="line"/>
    </contour>
  </outline>
</glyph>
<glyph name="oslash" format="1">
  <advance width="613"/>
  <unicode hex="00F8"/>
  <outline>
    <contour>
      <point x="517" y="540" type="line"/>
      <point x="75" y="-31" type="line"/>
      <point x="96" y="-31" type="line"/>
      <point x="538" y="540" type="line"/>
    </contour>
    <component base="o" xOffset="-1"/>
  </outline>
</glyph>
<glyph name="thorn" format="1">
  <advance width="621"/>
  <unicode hex="00FE"/>
  <outline>
    <contour>
      <point x="98" y="730" type="line"/>
      <point x="98" y="-210" type="line"/>
      <point x="114" y="-210" type="line"/>
      <point x="114" y="730" type="line"/>
    </contour>
    <component base="bowl" xOffset="671" yOffset="562" xScale="-1" yScale="-1"/>
  </outline>
</glyph>
<glyph name="Aogonek" format="1">
  <advance width="558"/>
  <unicode hex="0104"/>
  <outline>
    <contour>
      <point x="545" y="7" type="line"/>
      <point x="446" y="-32"/>
      <point x="413" y="-72"/>
      <point x="413" y="-124" type="curve" smooth="yes"/>
      <point x="413" y="-176"/>
      <point x="453" y="-202"/>
      <point x="501" y="-202" type="curve" smooth="yes"/>
      <point x="537" y="-202"/>
      <point x="557" y="-192"/>
      <point x="573" y="-181" type="curve"/>
      <point x="567" y="-168" type="line"/>
      <point x="553" y="-179"/>
      <point x="535" y="-188"/>
      <point x="501" y="-188" type="curve" smooth="yes"/>
      <point x="461" y="-188"/>
      <point x="428" y="-167"/>
      <point x="428" y="-124" type="curve" smooth="yes"/>
      <point x="428" y="-75"/>
      <point x="461" y="-38"/>
      <point x="560" y="0" type="curve"/>
    </contour>
    <component base="A"/>
  </outline>
</glyph>
<glyph name="aogonek" format="1">
  <advance width="505"/>
  <unicode hex="0105"/>
  <outline>
    <contour>
      <point x="143" y="510"/>
      <point x="82" y="471"/>
      <point x="51" y="388" type="curve"/>
      <point x="64" y="378" type="line"/>
      <point x="95" y="459"/>
      <point x="152" y="496"/>
      <point x="243" y="496" type="curve" smooth="yes"/>
      <point x="346" y="496"/>
      <point x="402" y="441"/>
      <point x="402" y="348" type="curve" smooth="yes"/>
      <point x="402" y="112" type="line"/>
      <point x="402" y="82" type="line" smooth="yes"/>
      <point x="402" y="4"/>
      <point x="443" y="-10"/>
      <point x="474" y="-10" type="curve" smooth="yes"/>
      <point x="474" y="-10"/>
      <point x="510" y="-1"/>
      <point x="510" y="-1" type="curve"/>
      <point x="511" y="13" type="line"/>
      <point x="502" y="6"/>
      <point x="488" y="4"/>
      <point x="473" y="4" type="curve" smooth="yes"/>
      <point x="440" y="4"/>
      <point x="418" y="27"/>
      <point x="418" y="76" type="curve" smooth="yes"/>
      <point x="418" y="348" type="line" smooth="yes"/>
      <point x="418" y="453"/>
      <point x="356" y="510"/>
      <point x="243" y="510" type="curve" smooth="yes"/>
    </contour>
    <contour>
      <point x="396" y="-32"/>
      <point x="353" y="-83"/>
      <point x="353" y="-129" type="curve" smooth="yes"/>
      <point x="353" y="-177"/>
      <point x="393" y="-203"/>
      <point x="441" y="-203" type="curve" smooth="yes"/>
      <point x="477" y="-203"/>
      <point x="494" y="-197"/>
      <point x="510" y="-186" type="curve"/>
      <point x="504" y="-173" type="line"/>
      <point x="490" y="-184"/>
      <point x="475" y="-189"/>
      <point x="441" y="-189" type="curve" smooth="yes"/>
      <point x="401" y="-189"/>
      <point x="368" y="-168"/>
      <point x="368" y="-129" type="curve" smooth="yes"/>
      <point x="368" y="-86"/>
      <point x="411" y="-43"/>
      <point x="510" y="-1" type="curve"/>
      <point x="504" y="5" type="line"/>
    </contour>
    <contour>
      <point x="225" y="253" type="line" smooth="yes"/>
      <point x="95" y="229"/>
      <point x="41" y="187"/>
      <point x="41" y="108" type="curve" smooth="yes"/>
      <point x="41" y="34"/>
      <point x="99" y="-10"/>
      <point x="197" y="-10" type="curve" smooth="yes"/>
      <point x="295" y="-10"/>
      <point x="410" y="37"/>
      <point x="410" y="140" type="curve"/>
      <point x="402" y="151" type="line"/>
      <point x="402" y="47"/>
      <point x="280" y="4"/>
      <point x="202" y="4" type="curve" smooth="yes"/>
      <point x="111" y="4"/>
      <point x="57" y="43"/>
      <point x="57" y="108" type="curve" smooth="yes"/>
      <point x="57" y="175"/>
      <point x="105" y="217"/>
      <point x="236" y="241" type="curve" smooth="yes"/>
      <point x="409" y="273" type="line"/>
      <point x="407" y="287" type="line"/>
    </contour>
    <contour>
      <point x="510" y="-1" type="move" name="ogonek"/>
    </contour>
    <contour>
      <point x="237" y="500" type="move" name="top"/>
    </contour>
  </outline>
</glyph>
<glyph name="Dcroat" format="1">
  <advance width="705"/>
  <unicode hex="0110"/>
  <outline>
    <contour>
      <point x="10" y="359" type="line"/>
      <point x="10" y="345" type="line"/>
      <point x="335" y="345" type="line"/>
      <point x="335" y="359" type="line"/>
    </contour>
    <component base="D"/>
  </outline>
</glyph>
<glyph name="dcroat" format="1">
  <advance width="621"/>
  <unicode hex="0111"/>
  <outline>
    <contour>
      <point x="315" y="606" type="line"/>
      <point x="315" y="594" type="line"/>
      <point x="610" y="594" type="line"/>
      <point x="610" y="606" type="line"/>
    </contour>
    <component base="d"/>
  </outline>
</glyph>
<glyph name="Eogonek" format="1">
  <advance width="591"/>
  <unicode hex="0118"/>
  <outline>
    <contour>
      <point x="557" y="7" type="line"/>
      <point x="452" y="-32"/>
      <point x="419" y="-72"/>
      <point x="419" y="-124" type="curve" smooth="yes"/>
      <point x="419" y="-176"/>
      <point x="459" y="-202"/>
      <point x="507" y="-202" type="curve" smooth="yes"/>
      <point x="544" y="-202"/>
      <point x="563" y="-192"/>
      <point x="579" y="-181" type="curve"/>
      <point x="573" y="-168" type="line"/>
      <point x="559" y="-179"/>
      <point x="541" y="-188"/>
      <point x="507" y="-188" type="curve" smooth="yes"/>
      <point x="467" y="-188"/>
      <point x="434" y="-167"/>
      <point x="434" y="-124" type="curve" smooth="yes"/>
      <point x="434" y="-75"/>
      <point x="467" y="-38"/>
      <point x="566" y="0" type="curve"/>
    </contour>
    <component base="E"/>
  </outline>
</glyph>
<glyph name="eogonek" format="1">
  <advance width="559"/>
  <unicode hex="0119"/>
  <outline>
    <contour>
      <point x="397" y="21" type="line"/>
      <point x="280" y="-32"/>
      <point x="249" y="-72"/>
      <point x="249" y="-124" type="curve" smooth="yes"/>
      <point x="249" y="-176"/>
      <point x="289" y="-202"/>
      <point x="337" y="-202" type="curve" smooth="yes"/>
      <point x="373" y="-202"/>
      <point x="393" y="-192"/>
      <point x="409" y="-181" type="curve"/>
      <point x="403" y="-168" type="line"/>
      <point x="389" y="-179"/>
      <point x="371" y="-188"/>
      <point x="337" y="-188" type="curve" smooth="yes"/>
      <point x="297" y="-188"/>
      <point x="264" y="-167"/>
      <point x="264" y="-124" type="curve" smooth="yes"/>
      <point x="264" y="-75"/>
      <point x="297" y="-38"/>
      <point x="412" y="16" type="curve"/>
    </contour>
    <component base="e"/>
  </outline>
</glyph>
<glyph name="gcommaaccent" format="1">
  <advance width="510"/>
  <unicode hex="0123"/>
  <outline>
    <contour>
      <point x="276" y="587" type="line"/>
      <point x="331" y="778" type="line"/>
      <point x="318" y="778" type="line"/>
      <point x="258" y="587" type="line"/>
    </contour>
    <component base="g"/>
  </outline>
</glyph>
<glyph name="uni0123" format="1">
  <advance width="491"/>
  <unicode hex="0123"/>
  <outline>
    <contour>
      <point x="312" y="778" type="line"/>
      <point x="252" y="587" type="line"/>
      <point x="270" y="587" type="line"/>
      <point x="325" y="778" type="line"/>
    </contour>
    <component base="g"/>
  </outline>
</glyph>
<glyph name="Imacron" format="1">
  <advance width="216"/>
  <unicode hex="012A"/>
  <outline>
    <component base="I"/>
    <component base="macron" xOffset="-83" yOffset="160" xScale="0.75"/>
    <contour>
      <point x="400" y="170" type="move" name="ogonek"/>
    </contour>
  </outline>
</glyph>
<glyph name="imacron" format="1">
  <advance width="212"/>
  <unicode hex="012B"/>
  <outline>
    <contour>
      <point x="24" y="638" type="line"/>
      <point x="24" y="624" type="line"/>
      <point x="192" y="624" type="line"/>
      <point x="192" y="638" type="line"/>
    </contour>
    <component base="dotlessi"/>
    <contour>
      <point x="354" y="10" type="move" name="ogonek"/>
    </contour>
  </outline>
</glyph>
<glyph name="iogonek" format="1">
  <advance width="295"/>
  <unicode hex="012F"/>
  <outline>
    <contour>
      <point x="140" y="-45" type="line"/>
      <point x="74" y="-71"/>
      <point x="43" y="-110"/>
      <point x="43" y="-164" type="curve"/>
      <point x="43" y="-213"/>
      <point x="78" y="-240"/>
      <point x="134" y="-240" type="curve"/>
      <point x="166" y="-240"/>
      <point x="187" y="-233"/>
      <point x="204" y="-221" type="curve"/>
      <point x="205" y="-223" type="line"/>
      <point x="189" y="-230"/>
      <point x="170" y="-234"/>
      <point x="149" y="-234" type="curve"/>
      <point x="102" y="-234"/>
      <point x="47" y="-212"/>
      <point x="47" y="-148" type="curve"/>
      <point x="47" y="-106"/>
      <point x="67" y="-69"/>
      <point x="116" y="-35" type="curve"/>
    </contour>
    <component base="dotlessi"/>
    <component base="dotaccent" xOffset="-128"/>
  </outline>
</glyph>
<glyph name="dotlessi" format="1">
  <advance width="188"/>
  <unicode hex="0131"/>
  <outline>
    <contour>
      <point x="86" y="500" type="line"/>
      <point x="86" y="0" type="line"/>
      <point x="102" y="0" type="line"/>
      <point x="102" y="500" type="line"/>
    </contour>
    <contour>
      <point x="102" y="0" type="move" name="ogonek"/>
    </contour>
    <contour>
      <point x="94" y="500" type="move" name="top"/>
    </contour>
  </outline>
</glyph>
<glyph name="lacute" format="1">
  <advance width="274"/>
  <unicode hex="013A"/>
  <outline>
    <contour>
      <point x="99" y="793" type="line"/>
      <point x="113" y="793" type="line"/>
      <point x="158" y="930" type="line"/>
      <point x="140" y="930" type="line"/>
    </contour>
    <component base="l"/>
  </outline>
</glyph>
<glyph name="Lslash" format="1">
  <advance width="557"/>
  <unicode hex="0141"/>
  <outline>
    <contour>
      <point x="11" y="243" type="line"/>
      <point x="11" y="223" type="line"/>
      <point x="336" y="460" type="line"/>
      <point x="336" y="480" type="line"/>
    </contour>
    <component base="L"/>
  </outline>
</glyph>
<glyph name="lslash" format="1">
  <advance width="274"/>
  <unicode hex="0142"/>
  <outline>
    <contour>
      <point x="1" y="294" type="line"/>
      <point x="1" y="274" type="line"/>
      <point x="239" y="455" type="line"/>
      <point x="239" y="475" type="line"/>
    </contour>
    <component base="l"/>
  </outline>
</glyph>
<glyph name="OE" format="1">
  <advance width="1023"/>
  <unicode hex="0152"/>
  <outline>
    <contour>
      <point x="182" y="670"/>
      <point x="65" y="539"/>
      <point x="65" y="330" type="curve" smooth="yes"/>
      <point x="65" y="121"/>
      <point x="183" y="-10"/>
      <point x="358" y="-10" type="curve" smooth="yes"/>
      <point x="454" y="-10"/>
      <point x="531" y="23"/>
      <point x="578" y="84" type="curve"/>
      <point x="578" y="112" type="line"/>
      <point x="535" y="43"/>
      <point x="458" y="4"/>
      <point x="358" y="4" type="curve" smooth="yes"/>
      <point x="193" y="4"/>
      <point x="81" y="130"/>
      <point x="81" y="330" type="curve" smooth="yes"/>
      <point x="81" y="530"/>
      <point x="192" y="656"/>
      <point x="358" y="656" type="curve" smooth="yes"/>
      <point x="465" y="656"/>
      <point x="537" y="618"/>
      <point x="578" y="542" type="curve"/>
      <point x="578" y="575" type="line"/>
      <point x="534" y="638"/>
      <point x="461" y="670"/>
      <point x="358" y="670" type="curve" smooth="yes"/>
    </contour>
    <contour>
      <point x="570" y="660" type="line"/>
      <point x="570" y="0" type="line"/>
      <point x="586" y="0" type="line"/>
      <point x="586" y="660" type="line"/>
    </contour>
    <contour>
      <point x="584" y="14" type="line"/>
      <point x="576" y="0" type="line"/>
      <point x="998" y="0" type="line"/>
      <point x="998" y="14" type="line"/>
    </contour>
    <contour>
      <point x="576" y="344" type="line"/>
      <point x="576" y="330" type="line"/>
      <point x="909" y="330" type="line"/>
      <point x="909" y="344" type="line"/>
    </contour>
    <contour>
      <point x="576" y="660" type="line"/>
      <point x="576" y="646" type="line"/>
      <point x="981" y="646" type="line"/>
      <point x="981" y="660" type="line"/>
    </contour>
  </outline>
</glyph>
<glyph name="oe" format="1">
  <advance width="1011"/>
  <unicode hex="0153"/>
  <outline>
    <contour>
      <point x="163" y="510"/>
      <point x="74" y="412"/>
      <point x="74" y="250" type="curve" smooth="yes"/>
      <point x="74" y="88"/>
      <point x="163" y="-10"/>
      <point x="308" y="-10" type="curve" smooth="yes"/>
      <point x="453" y="-10"/>
      <point x="541" y="88"/>
      <point x="541" y="250" type="curve" smooth="yes"/>
      <point x="541" y="412"/>
      <point x="453" y="510"/>
      <point x="308" y="510" type="curve" smooth="yes"/>
    </contour>
    <contour>
      <point x="443" y="496"/>
      <point x="525" y="403"/>
      <point x="525" y="250" type="curve" smooth="yes"/>
      <point x="525" y="97"/>
      <point x="443" y="4"/>
      <point x="308" y="4" type="curve" smooth="yes"/>
      <point x="173" y="4"/>
      <point x="90" y="97"/>
      <point x="90" y="250" type="curve" smooth="yes"/>
      <point x="90" y="403"/>
      <point x="173" y="496"/>
      <point x="308" y="496" type="curve" smooth="yes"/>
    </contour>
    <contour>
      <point x="610" y="510"/>
      <point x="526" y="413"/>
      <point x="526" y="250" type="curve" smooth="yes"/>
      <point x="526" y="87"/>
      <point x="611" y="-10"/>
      <point x="755" y="-10" type="curve" smooth="yes"/>
      <point x="846" y="-10"/>
      <point x="922" y="35"/>
      <point x="957" y="109" type="curve"/>
      <point x="944" y="116" type="line"/>
      <point x="911" y="46"/>
      <point x="839" y="4"/>
      <point x="755" y="4" type="curve" smooth="yes"/>
      <point x="620" y="4"/>
      <point x="541" y="96"/>
      <point x="541" y="250" type="curve" smooth="yes"/>
      <point x="541" y="404"/>
      <point x="619" y="496"/>
      <point x="750" y="496" type="curve" smooth="yes"/>
      <point x="878" y="496"/>
      <point x="947" y="401"/>
      <point x="947" y="244" type="curve" smooth="yes"/>
      <point x="947" y="239" type="line"/>
      <point x="961" y="239" type="line"/>
      <point x="961" y="246" type="line" smooth="yes"/>
      <point x="961" y="411"/>
      <point x="882" y="510"/>
      <point x="750" y="510" type="curve" smooth="yes"/>
    </contour>
    <contour>
      <point x="534" y="254" type="line"/>
      <point x="534" y="239" type="line"/>
      <point x="956" y="239" type="line"/>
      <point x="956" y="254" type="line"/>
    </contour>
    <contour>
      <point x="903" y="0" type="move" name="ogonek"/>
    </contour>
    <contour>
      <point x="759" y="0" type="move" name="bottom"/>
    </contour>
    <contour>
      <point x="750" y="500" type="move" name="top"/>
    </contour>
  </outline>
</glyph>
<glyph name="Tcedilla" format="1">
  <advance width="561"/>
  <unicode hex="0162"/>
  <outline>
    <contour>
      <point x="330" y="-36"/>
      <point x="357" y="-68"/>
      <point x="357" y="-117" type="curve" smooth="yes"/>
      <point x="357" y="-160"/>
      <point x="328" y="-188"/>
      <point x="283" y="-188" type="curve" smooth="yes"/>
      <point x="242" y="-188"/>
      <point x="222" y="-172"/>
      <point x="201" y="-146" type="curve"/>
      <point x="194" y="-157" type="line"/>
      <point x="214" y="-183"/>
      <point x="236" y="-201"/>
      <point x="283" y="-201" type="curve" smooth="yes"/>
      <point x="337" y="-201"/>
      <point x="372" y="-168"/>
      <point x="372" y="-117" type="curve" smooth="yes"/>
      <point x="372" y="-65"/>
      <point x="345" y="-32"/>
      <point x="288" y="3" type="curve"/>
      <point x="273" y="0" type="line"/>
    </contour>
    <component base="T"/>
  </outline>
</glyph>
<glyph name="tcedilla" format="1">
  <advance width="383"/>
  <unicode hex="0163"/>
  <outline>
    <contour>
      <point x="272" y="-45"/>
      <point x="294" y="-77"/>
      <point x="294" y="-119" type="curve" smooth="yes"/>
      <point x="294" y="-161"/>
      <point x="266" y="-188"/>
      <point x="223" y="-188" type="curve" smooth="yes"/>
      <point x="189" y="-188"/>
      <point x="162" y="-178"/>
      <point x="135" y="-148" type="curve"/>
      <point x="127" y="-160" type="line"/>
      <point x="153" y="-190"/>
      <point x="183" y="-201"/>
      <point x="223" y="-201" type="curve" smooth="yes"/>
      <point x="275" y="-201"/>
      <point x="309" y="-168"/>
      <point x="309" y="-118" type="curve" smooth="yes"/>
      <point x="309" y="-71"/>
      <point x="281" y="-36"/>
      <point x="199" y="8" type="curve"/>
      <point x="182" y="8" type="line"/>
    </contour>
    <component base="t"/>
  </outline>
</glyph>
<glyph name="Uogonek" format="1">
  <advance width="700"/>
  <unicode hex="0172"/>
  <outline>
    <contour>
      <point x="442" y="15" type="line"/>
      <point x="334" y="-32"/>
      <point x="301" y="-72"/>
      <point x="301" y="-124" type="curve" smooth="yes"/>
      <point x="301" y="-176"/>
      <point x="341" y="-202"/>
      <point x="389" y="-202" type="curve" smooth="yes"/>
      <point x="430" y="-202"/>
      <point x="450" y="-192"/>
      <point x="466" y="-181" type="curve"/>
      <point x="460" y="-168" type="line"/>
      <point x="446" y="-179"/>
      <point x="426" y="-188"/>
      <point x="389" y="-188" type="curve" smooth="yes"/>
      <point x="349" y="-188"/>
      <point x="316" y="-167"/>
      <point x="316" y="-124" type="curve" smooth="yes"/>
      <point x="316" y="-75"/>
      <point x="349" y="-38"/>
      <point x="457" y="8" type="curve"/>
    </contour>
    <component base="U"/>
  </outline>
</glyph>
<glyph name="uogonek" format="1">
  <advance width="592"/>
  <unicode hex="0173"/>
  <outline>
    <contour>
      <point x="94" y="500" type="line"/>
      <point x="94" y="167" type="line" smooth="yes"/>
      <point x="94" y="54"/>
      <point x="167" y="-10"/>
      <point x="269" y="-10" type="curve" smooth="yes"/>
      <point x="396" y="-10"/>
      <point x="485" y="77"/>
      <point x="485" y="183" type="curve"/>
      <point x="478" y="199" type="line"/>
      <point x="478" y="95"/>
      <point x="391" y="4"/>
      <point x="272" y="4" type="curve" smooth="yes"/>
      <point x="177" y="4"/>
      <point x="110" y="63"/>
      <point x="110" y="169" type="curve" smooth="yes"/>
      <point x="110" y="500" type="line"/>
    </contour>
    <contour>
      <point x="510" y="-168" type="line"/>
      <point x="496" y="-181"/>
      <point x="479" y="-188"/>
      <point x="445" y="-188" type="curve" smooth="yes"/>
      <point x="403" y="-188"/>
      <point x="372" y="-165"/>
      <point x="372" y="-122" type="curve" smooth="yes"/>
      <point x="372" y="-66"/>
      <point x="406" y="-42"/>
      <point x="494" y="0" type="curve"/>
      <point x="479" y="7" type="line"/>
      <point x="391" y="-36"/>
      <point x="357" y="-63"/>
      <point x="357" y="-122" type="curve" smooth="yes"/>
      <point x="357" y="-174"/>
      <point x="395" y="-202"/>
      <point x="445" y="-202" type="curve" smooth="yes"/>
      <point x="481" y="-202"/>
      <point x="502" y="-191"/>
      <point x="518" y="-178" type="curve"/>
    </contour>
    <contour>
      <point x="478" y="500" type="line"/>
      <point x="478" y="199" type="line"/>
      <point x="478" y="0" type="line"/>
      <point x="494" y="0" type="line"/>
      <point x="494" y="199" type="line"/>
      <point x="494" y="500" type="line"/>
    </contour>
    <contour>
      <point x="494" y="0" type="move" name="ogonek"/>
    </contour>
    <contour>
      <point x="289" y="500" type="move" name="top"/>
    </contour>
  </outline>
</glyph>
<glyph name="florin" format="1">
  <advance width="480"/>
  <unicode hex="0192"/>
  <outline>
    <contour>
      <point x="326" y="735"/>
      <point x="284" y="690"/>
      <point x="269" y="593" type="curve" smooth="yes"/>
      <point x="179" y="14" type="line" smooth="yes"/>
      <point x="166" y="-71"/>
      <point x="126" y="-114"/>
      <point x="63" y="-114" type="curve" smooth="yes"/>
      <point x="39" y="-114"/>
      <point x="21" y="-110"/>
      <point x="6" y="-100" type="curve"/>
      <point x="0" y="-111" type="line"/>
      <point x="19" y="-122"/>
      <point x="34" y="-128"/>
      <point x="63" y="-128" type="curve" smooth="yes"/>
      <point x="136" y="-128"/>
      <point x="181" y="-80"/>
      <point x="196" y="14" type="curve" smooth="yes"/>
      <point x="286" y="594" type="line" smooth="yes"/>
      <point x="300" y="681"/>
      <point x="339" y="721"/>
      <point x="406" y="721" type="curve" smooth="yes"/>
      <point x="425" y="721"/>
      <point x="442" y="716"/>
      <point x="458" y="708" type="curve"/>
      <point x="460" y="722" type="line"/>
      <point x="445" y="729"/>
      <point x="430" y="735"/>
      <point x="398" y="735" type="curve" smooth="yes"/>
    </contour>
    <contour>
      <point x="99" y="500" type="line"/>
      <point x="99" y="486" type="line"/>
      <point x="445" y="486" type="line"/>
      <point x="445" y="500" type="line"/>
    </contour>
  </outline>
</glyph>
<glyph name="caron" format="1">
  <advance width="550"/>
  <unicode hex="02C7"/>
  <outline>
    <contour>
      <point x="354" y="735" type="line"/>
      <point x="250" y="607" type="line"/>
      <point x="146" y="735" type="line"/>
      <point x="126" y="735" type="line"/>
      <point x="242" y="593" type="line"/>
      <point x="258" y="593" type="line"/>
      <point x="374" y="735" type="line"/>
    </contour>
    <contour>
      <point x="250" y="500" type="move" name="_top"/>
    </contour>
  </outline>
</glyph>
<glyph name="breve" format="1">
  <advance width="550"/>
  <unicode hex="02D8"/>
  <outline>
    <contour>
      <point x="360" y="708" type="line"/>
      <point x="360" y="641"/>
      <point x="321" y="601"/>
      <point x="255" y="601" type="curve" smooth="yes"/>
      <point x="189" y="601"/>
      <point x="150" y="641"/>
      <point x="150" y="708" type="curve"/>
      <point x="135" y="708" type="line"/>
      <point x="135" y="632"/>
      <point x="180" y="587"/>
      <point x="255" y="587" type="curve" smooth="yes"/>
      <point x="330" y="587"/>
      <point x="375" y="632"/>
      <point x="375" y="708" type="curve"/>
    </contour>
    <contour>
      <point x="255" y="500" type="move" name="_top"/>
    </contour>
  </outline>
</glyph>
<glyph name="ring" format="1">
  <advance width="550"/>
  <unicode hex="02DA"/>
  <outline>
    <contour>
      <point x="213" y="849"/>
      <point x="172" y="811"/>
      <point x="172" y="749" type="curve"/>
      <point x="172" y="686"/>
      <point x="213" y="648"/>
      <point x="275" y="648" type="curve"/>
      <point x="337" y="648"/>
      <point x="377" y="686"/>
      <point x="377" y="749" type="curve"/>
      <point x="377" y="811"/>
      <point x="337" y="849"/>
      <point x="275" y="849" type="curve"/>
    </contour>
    <contour>
      <point x="341" y="859"/>
      <point x="389" y="811"/>
      <point x="389" y="749" type="curve"/>
      <point x="389" y="687"/>
      <point x="341" y="639"/>
      <point x="275" y="639" type="curve"/>
      <point x="210" y="639"/>
      <point x="161" y="687"/>
      <point x="161" y="749" type="curve"/>
      <point x="161" y="811"/>
      <point x="210" y="859"/>
      <point x="275" y="859" type="curve"/>
    </contour>
    <contour>
      <point x="278" y="562" type="move" name="_top"/>
    </contour>
  </outline>
</glyph>
<glyph name="ogonek" format="1">
  <advance width="660"/>
  <unicode hex="02DB"/>
  <outline>
    <contour>
      <point x="274" y="-39" type="line"/>
      <point x="178" y="-73"/>
      <point x="137" y="-112"/>
      <point x="137" y="-164" type="curve"/>
      <point x="137" y="-213"/>
      <point x="172" y="-240"/>
      <point x="228" y="-240" type="curve"/>
      <point x="260" y="-240"/>
      <point x="281" y="-233"/>
      <point x="298" y="-221" type="curve"/>
      <point x="298" y="-223" type="line"/>
      <point x="283" y="-230"/>
      <point x="264" y="-234"/>
      <point x="243" y="-234" type="curve"/>
      <point x="196" y="-234"/>
      <point x="141" y="-212"/>
      <point x="141" y="-148" type="curve"/>
      <point x="141" y="-98"/>
      <point x="176" y="-65"/>
      <point x="254" y="-28" type="curve"/>
    </contour>
    <contour>
      <point x="329" y="0" type="move" name="_ogonek"/>
    </contour>
  </outline>
</glyph>
<glyph name="tilde" format="1">
  <advance width="550"/>
  <unicode hex="02DC"/>
  <outline>
    <contour>
      <point x="398" y="705" type="line"/>
      <point x="388" y="655"/>
      <point x="373" y="626"/>
      <point x="324" y="626" type="curve" smooth="yes"/>
      <point x="260" y="626"/>
      <point x="250" y="705"/>
      <point x="180" y="705" type="curve" smooth="yes"/>
      <point x="127" y="705"/>
      <point x="103" y="672"/>
      <point x="92" y="610" type="curve"/>
      <point x="106" y="610" type="line"/>
      <point x="116" y="660"/>
      <point x="130" y="689"/>
      <point x="179" y="689" type="curve" smooth="yes"/>
      <point x="244" y="689"/>
      <point x="253" y="610"/>
      <point x="324" y="610" type="curve" smooth="yes"/>
      <point x="377" y="610"/>
      <point x="401" y="643"/>
      <point x="412" y="705" type="curve"/>
    </contour>
    <contour>
      <point x="251" y="500" type="move" name="_top"/>
    </contour>
  </outline>
</glyph>
<glyph name="hungarumlaut" format="1">
  <advance width="500"/>
  <unicode hex="02DD"/>
  <outline>
    <component base="acute" xOffset="-119"/>
    <component base="acute" xOffset="57"/>
    <contour>
      <point x="223" y="500" type="move" name="_top"/>
    </contour>
  </outline>
</glyph>
<glyph name="commaaccent" format="1">
  <advance width="303"/>
  <unicode hex="0326"/>
  <outline>
    <contour>
      <point x="121" y="-149" type="line"/>
      <point x="90" y="-265" type="line"/>
      <point x="88" y="-265" type="line"/>
      <point x="134" y="-149" type="line"/>
    </contour>
    <contour>
      <point x="152" y="0" type="move" name="_bottom"/>
    </contour>
  </outline>
</glyph>
<glyph name="pi" format="1">
  <advance width="702"/>
  <unicode hex="03C0"/>
  <outline>
    <contour>
      <point x="680" y="500" type="line"/>
      <point x="22" y="500" type="line"/>
      <point x="22" y="486" type="line"/>
      <point x="680" y="486" type="line"/>
    </contour>
    <contour>
      <point x="188" y="494" type="line"/>
      <point x="188" y="0" type="line"/>
      <point x="204" y="0" type="line"/>
      <point x="204" y="494" type="line"/>
    </contour>
    <contour>
      <point x="497" y="494" type="line"/>
      <point x="497" y="94" type="line" smooth="yes"/>
      <point x="497" y="23"/>
      <point x="554" y="0"/>
      <point x="622" y="0" type="curve"/>
      <point x="625" y="14" type="line"/>
      <point x="565" y="14"/>
      <point x="513" y="30"/>
      <point x="513" y="94" type="curve" smooth="yes"/>
      <point x="513" y="494" type="line"/>
    </contour>
  </outline>
</glyph>
<glyph name="anusvaradeva" format="1">
  <advance width="0"/>
  <unicode hex="0902"/>
  <outline>
    <contour>
      <point x="-192" y="931"/>
      <point x="-218" y="906"/>
      <point x="-218" y="871" type="curve" smooth="yes"/>
      <point x="-218" y="836"/>
      <point x="-192" y="811"/>
      <point x="-158" y="811" type="curve" smooth="yes"/>
      <point x="-123" y="811"/>
      <point x="-98" y="836"/>
      <point x="-98" y="871" type="curve" smooth="yes"/>
      <point x="-98" y="906"/>
      <point x="-123" y="931"/>
      <point x="-158" y="931" type="curve" smooth="yes"/>
    </contour>
    <contour>
      <point x="-177" y="660" type="move" name="_DVAnchor3"/>
    </contour>
  </outline>
</glyph>
<glyph name="ideva" format="1">
  <advance width="596"/>
  <unicode hex="0907"/>
  <outline>
    <contour>
      <point x="-10" y="660" type="line"/>
      <point x="-10" y="604" type="line"/>
      <point x="606" y="604" type="line"/>
      <point x="606" y="660" type="line"/>
    </contour>
    <contour>
      <point x="401" y="627" type="line"/>
      <point x="401" y="441" type="line"/>
      <point x="471" y="441" type="line"/>
      <point x="471" y="627" type="line"/>
    </contour>
    <contour>
      <point x="212" y="497" type="line" smooth="yes"/>
      <point x="128" y="497"/>
      <point x="90" y="444"/>
      <point x="90" y="377" type="curve" smooth="yes"/>
      <point x="90" y="290"/>
      <point x="176" y="235"/>
      <point x="263" y="235" type="curve" smooth="yes"/>
      <point x="332" y="235"/>
      <point x="376" y="262"/>
      <point x="411" y="262" type="curve" smooth="yes"/>
      <point x="444" y="262"/>
      <point x="466" y="241"/>
      <point x="466" y="202" type="curve" smooth="yes"/>
      <point x="466" y="122"/>
      <point x="405" y="73"/>
      <point x="288" y="73" type="curve" smooth="yes"/>
      <point x="236" y="73"/>
      <point x="201" y="81"/>
      <point x="168" y="102" type="curve" smooth="yes"/>
      <point x="116" y="134"/>
      <point x="93" y="109"/>
      <point x="138" y="69" type="curve" smooth="yes"/>
      <point x="204" y="5"/>
      <point x="308" y="-145"/>
      <point x="424" y="-121" type="curve"/>
      <point x="451" y="-64" type="line"/>
      <point x="312" y="-83"/>
      <point x="182" y="123"/>
      <point x="153" y="154" type="curve" smooth="yes"/>
      <point x="93" y="218"/>
      <point x="22" y="129"/>
      <point x="82" y="76" type="curve" smooth="yes"/>
      <point x="132" y="31"/>
      <point x="171" y="15"/>
      <point x="288" y="15" type="curve" smooth="yes"/>
      <point x="382" y="15"/>
      <point x="530" y="59"/>
      <point x="530" y="201" type="curve" smooth="yes"/>
      <point x="530" y="282"/>
      <point x="471" y="328"/>
      <point x="430" y="328" type="curve" smooth="yes"/>
      <point x="375" y="328"/>
      <point x="329" y="298"/>
      <point x="271" y="298" type="curve" smooth="yes"/>
      <point x="219" y="298"/>
      <point x="156" y="322"/>
      <point x="156" y="380" type="curve" smooth="yes"/>
      <point x="156" y="424"/>
      <point x="181" y="441"/>
      <point x="217" y="441" type="curve" smooth="yes"/>
      <point x="434" y="441" type="line"/>
      <point x="434" y="497" type="line"/>
    </contour>
    <contour>
      <point x="436" y="660" type="move" name="DVAnchor3"/>
    </contour>
  </outline>
</glyph>
<glyph name="kadeva" format="1">
  <advance width="912"/>
  <unicode hex="0915"/>
  <outline>
    <contour>
      <point x="426" y="627" type="line"/>
      <point x="426" y="0" type="line"/>
      <point x="496" y="0" type="line"/>
      <point x="496" y="627" type="line"/>
    </contour>
    <contour>
      <point x="149" y="495"/>
      <point x="73" y="418"/>
      <point x="73" y="299" type="curve" smooth="yes"/>
      <point x="73" y="198"/>
      <point x="159" y="124"/>
      <point x="252" y="124" type="curve" smooth="yes"/>
      <point x="367" y="124"/>
      <point x="420" y="169"/>
      <point x="458" y="275" type="curve"/>
      <point x="426" y="298" type="line"/>
      <point x="395" y="235"/>
      <point x="349" y="184"/>
      <point x="274" y="184" type="curve" smooth="yes"/>
      <point x="204" y="184"/>
      <point x="141" y="227"/>
      <point x="141" y="311" type="curve" smooth="yes"/>
      <point x="141" y="397"/>
      <point x="199" y="436"/>
      <point x="258" y="436" type="curve" smooth="yes"/>
      <point x="291" y="436"/>
      <point x="309" y="427"/>
      <point x="323" y="413" type="curve"/>
      <point x="351" y="461" type="line"/>
      <point x="326" y="485"/>
      <point x="302" y="495"/>
      <point x="257" y="495" type="curve" smooth="yes"/>
    </contour>
    <contour>
      <point x="760" y="123"/>
      <point x="839" y="197"/>
      <point x="839" y="320" type="curve" smooth="yes"/>
      <point x="839" y="428"/>
      <point x="756" y="499"/>
      <point x="660" y="499" type="curve" smooth="yes"/>
      <point x="561" y="499"/>
      <point x="500" y="451"/>
      <point x="463" y="347" type="curve"/>
      <point x="496" y="324" type="line"/>
      <point x="524" y="385"/>
      <point x="572" y="439"/>
      <point x="647" y="439" type="curve" smooth="yes"/>
      <point x="720" y="439"/>
      <point x="771" y="392"/>
      <point x="771" y="307" type="curve" smooth="yes"/>
      <point x="771" y="228"/>
      <point x="718" y="182"/>
      <point x="666" y="182" type="curve" smooth="yes"/>
      <point x="636" y="182"/>
      <point x="618" y="192"/>
      <point x="603" y="206" type="curve"/>
      <point x="575" y="150" type="line"/>
      <point x="598" y="132"/>
      <point x="621" y="123"/>
      <point x="665" y="123" type="curve" smooth="yes"/>
    </contour>
    <contour>
      <point x="-10" y="660" type="line"/>
      <point x="-10" y="604" type="line"/>
      <point x="922" y="604" type="line"/>
      <point x="922" y="660" type="line"/>
    </contour>
    <contour>
      <point x="462" y="0" type="move" name="DVAnchor0"/>
    </contour>
    <contour>
      <point x="462" y="660" type="move" name="DVAnchor3"/>
    </contour>
  </outline>
</glyph>
<glyph name="ddadeva" format="1">
  <advance width="638"/>
  <unicode hex="0921"/>
  <outline>
    <contour>
      <point x="-10" y="660" type="line"/>
      <point x="-10" y="604" type="line"/>
      <point x="648" y="604" type="line"/>
      <point x="648" y="660" type="line"/>
    </contour>
    <contour>
      <point x="432" y="627" type="line"/>
      <point x="432" y="441" type="line"/>
      <point x="502" y="441" type="line"/>
      <point x="502" y="627" type="line"/>
    </contour>
    <contour>
      <point x="243" y="497" type="line" smooth="yes"/>
      <point x="159" y="497"/>
      <point x="121" y="443"/>
      <point x="121" y="376" type="curve" smooth="yes"/>
      <point x="121" y="283"/>
      <point x="203" y="225"/>
      <point x="290" y="225" type="curve" smooth="yes"/>
      <point x="360" y="225"/>
      <point x="400" y="252"/>
      <point x="443" y="252" type="curve" smooth="yes"/>
      <point x="476" y="252"/>
      <point x="497" y="229"/>
      <point x="497" y="190" type="curve" smooth="yes"/>
      <point x="497" y="116"/>
      <point x="427" y="73"/>
      <point x="301" y="73" type="curve" smooth="yes"/>
      <point x="214" y="73"/>
      <point x="138" y="113"/>
      <point x="101" y="200" type="curve"/>
      <point x="45" y="164" type="line"/>
      <point x="92" y="62"/>
      <point x="187" y="15"/>
      <point x="303" y="15" type="curve" smooth="yes"/>
      <point x="431" y="15"/>
      <point x="561" y="61"/>
      <point x="561" y="189" type="curve" smooth="yes"/>
      <point x="561" y="270"/>
      <point x="504" y="318"/>
      <point x="455" y="318" type="curve" smooth="yes"/>
      <point x="405" y="318"/>
      <point x="361" y="288"/>
      <point x="302" y="288" type="curve" smooth="yes"/>
      <point x="245" y="288"/>
      <point x="187" y="314"/>
      <point x="187" y="379" type="curve" smooth="yes"/>
      <point x="187" y="423"/>
      <point x="212" y="441"/>
      <point x="248" y="441" type="curve" smooth="yes"/>
      <point x="465" y="441" type="line"/>
      <point x="465" y="497" type="line"/>
    </contour>
    <contour>
      <point x="332" y="45" type="move" name="DVAnchor0"/>
    </contour>
    <contour>
      <point x="467" y="660" type="move" name="DVAnchor3"/>
    </contour>
  </outline>
</glyph>
<glyph name="padeva" format="1">
  <advance width="663"/>
  <unicode hex="092A"/>
  <outline>
    <contour>
      <point x="111" y="627" type="line"/>
      <point x="111" y="339" type="line" smooth="yes"/>
      <point x="111" y="226"/>
      <point x="189" y="174"/>
      <point x="283" y="174" type="curve" smooth="yes"/>
      <point x="398" y="174"/>
      <point x="470" y="229"/>
      <point x="506" y="347" type="curve"/>
      <point x="466" y="368" type="line"/>
      <point x="437" y="288"/>
      <point x="376" y="234"/>
      <point x="306" y="234" type="curve" smooth="yes"/>
      <point x="227" y="234"/>
      <point x="181" y="270"/>
      <point x="181" y="366" type="curve" smooth="yes"/>
      <point x="181" y="627" type="line"/>
    </contour>
    <contour>
      <point x="466" y="627" type="line"/>
      <point x="466" y="0" type="line"/>
      <point x="536" y="0" type="line"/>
      <point x="536" y="627" type="line"/>
    </contour>
    <contour>
      <point x="-10" y="660" type="line"/>
      <point x="-10" y="604" type="line"/>
      <point x="673" y="604" type="line"/>
      <point x="673" y="660" type="line"/>
    </contour>
    <contour>
      <point x="501" y="660" type="move" name="DVAnchor3"/>
    </contour>
  </outline>
</glyph>
<glyph name="vadeva" format="1">
  <advance width="652"/>
  <unicode hex="0935"/>
  <outline>
    <contour>
      <point x="158" y="500"/>
      <point x="72" y="425"/>
      <point x="72" y="310" type="curve" smooth="yes"/>
      <point x="72" y="192"/>
      <point x="158" y="117"/>
      <point x="270" y="117" type="curve" smooth="yes"/>
      <point x="396" y="117"/>
      <point x="453" y="189"/>
      <point x="493" y="309" type="curve"/>
      <point x="455" y="322" type="line"/>
      <point x="417" y="230"/>
      <point x="362" y="177"/>
      <point x="277" y="177" type="curve" smooth="yes"/>
      <point x="207" y="177"/>
      <point x="142" y="222"/>
      <point x="142" y="312" type="curve" smooth="yes"/>
      <point x="142" y="396"/>
      <point x="201" y="438"/>
      <point x="263" y="438" type="curve" smooth="yes"/>
      <point x="299" y="438"/>
      <point x="321" y="422"/>
      <point x="335" y="404" type="curve"/>
      <point x="377" y="451" type="line"/>
      <point x="355" y="479"/>
      <point x="323" y="500"/>
      <point x="265" y="500" type="curve" smooth="yes"/>
    </contour>
    <contour>
      <point x="455" y="627" type="line"/>
      <point x="455" y="0" type="line"/>
      <point x="525" y="0" type="line"/>
      <point x="525" y="627" type="line"/>
    </contour>
    <contour>
      <point x="-10" y="660" type="line"/>
      <point x="-10" y="604" type="line"/>
      <point x="662" y="604" type="line"/>
      <point x="662" y="660" type="line"/>
    </contour>
    <contour>
      <point x="490" y="660" type="move" name="DVAnchor3"/>
    </contour>
  </outline>
</glyph>
<glyph name="ssadeva" format="1">
  <advance width="663"/>
  <unicode hex="0937"/>
  <outline>
    <contour>
      <point x="186" y="612" type="line"/>
      <point x="144" y="562" type="line"/>
      <point x="468" y="294" type="line"/>
      <point x="510" y="344" type="line"/>
    </contour>
    <component base="padeva" xOffset="13"/>
    <contour>
      <point x="502" y="660" type="move" name="DVAnchor3"/>
    </contour>
  </outline>
</glyph>
<glyph name="aasigndeva" format="1">
  <advance width="328"/>
  <unicode hex="093E"/>
  <outline>
    <contour>
      <point x="129" y="627" type="line"/>
      <point x="129" y="0" type="line"/>
      <point x="199" y="0" type="line"/>
      <point x="199" y="627" type="line"/>
    </contour>
    <contour>
      <point x="-10" y="660" type="line"/>
      <point x="-10" y="604" type="line"/>
      <point x="338" y="604" type="line"/>
      <point x="338" y="660" type="line"/>
    </contour>
    <contour>
      <point x="164" y="660" type="move" name="DVAnchor3"/>
    </contour>
  </outline>
</glyph>
<glyph name="esigndeva" format="1">
  <advance width="0"/>
  <unicode hex="0947"/>
  <outline>
    <contour>
      <point x="-163" y="618" type="line"/>
      <point x="-131" y="651" type="line"/>
      <point x="-458" y="977" type="line"/>
      <point x="-509" y="928" type="line"/>
    </contour>
    <contour>
      <point x="-177" y="660" type="move" name="_DVAnchor3"/>
    </contour>
  </outline>
</glyph>
<glyph name="aisigndeva" format="1">
  <advance width="0"/>
  <unicode hex="0948"/>
  <outline>
    <contour>
      <point x="-191" y="614" type="line"/>
      <point x="-164" y="648" type="line"/>
      <point x="-493" y="945" type="line"/>
      <point x="-539" y="889" type="line"/>
    </contour>
    <contour>
      <point x="-169" y="630" type="line"/>
      <point x="-124" y="649" type="line"/>
      <point x="-277" y="1015" type="line"/>
      <point x="-347" y="984" type="line"/>
    </contour>
    <contour>
      <point x="-163" y="660" type="move" name="_DVAnchor3"/>
    </contour>
  </outline>
</glyph>
<glyph name="endash" format="1">
  <advance width="501"/>
  <unicode hex="2013"/>
  <outline>
    <contour>
      <point x="14" y="273" type="line"/>
      <point x="14" y="257" type="line"/>
      <point x="487" y="257" type="line"/>
      <point x="487" y="273" type="line"/>
    </contour>
  </outline>
</glyph>
<glyph name="emdash" format="1">
  <advance width="923"/>
  <unicode hex="2014"/>
  <outline>
    <contour>
      <point x="60" y="278" type="line"/>
      <point x="60" y="262" type="line"/>
      <point x="863" y="262" type="line"/>
      <point x="863" y="278" type="line"/>
    </contour>
  </outline>
</glyph>
<glyph name="dagger" format="1">
  <advance width="587"/>
  <unicode hex="2020"/>
  <outline>
    <contour>
      <point x="286" y="660" type="line"/>
      <point x="286" y="-210" type="line"/>
      <point x="302" y="-210" type="line"/>
      <point x="302" y="660" type="line"/>
    </contour>
    <contour>
      <point x="88" y="431" type="line"/>
      <point x="88" y="418" type="line"/>
      <point x="499" y="418" type="line"/>
      <point x="499" y="431" type="line"/>
    </contour>
  </outline>
</glyph>
<glyph name="daggerdbl" format="1">
  <advance width="587"/>
  <unicode hex="2021"/>
  <outline>
    <contour>
      <point x="286" y="660" type="line"/>
      <point x="286" y="-210" type="line"/>
      <point x="302" y="-210" type="line"/>
      <point x="302" y="660" type="line"/>
    </contour>
    <contour>
      <point x="88" y="27" type="line"/>
      <point x="88" y="13" type="line"/>
      <point x="499" y="13" type="line"/>
      <point x="499" y="27" type="line"/>
    </contour>
    <contour>
      <point x="88" y="431" type="line"/>
      <point x="88" y="417" type="line"/>
      <point x="499" y="417" type="line"/>
      <point x="499" y="431" type="line"/>
    </contour>
  </outline>
</glyph>
<glyph name="bullet" format="1">
  <advance width="430"/>
  <unicode hex="2022"/>
  <outline>
    <contour>
      <point x="186" y="388"/>
      <point x="165" y="367"/>
      <point x="165" y="338" type="curve" smooth="yes"/>
      <point x="165" y="309"/>
      <point x="186" y="288"/>
      <point x="215" y="288" type="curve" smooth="yes"/>
      <point x="244" y="288"/>
      <point x="265" y="309"/>
      <point x="265" y="338" type="curve" smooth="yes"/>
      <point x="265" y="367"/>
      <point x="244" y="388"/>
      <point x="215" y="388" type="curve" smooth="yes"/>
    </contour>
  </outline>
</glyph>
<glyph name="perthousand" format="1">
  <advance width="1162"/>
  <unicode hex="2030"/>
  <outline>
    <contour>
      <point x="859" y="341"/>
      <point x="818" y="259"/>
      <point x="818" y="174" type="curve" smooth="yes"/>
      <point x="818" y="89"/>
      <point x="860" y="8"/>
      <point x="958" y="8" type="curve" smooth="yes"/>
      <point x="1056" y="8"/>
      <point x="1096" y="89"/>
      <point x="1096" y="174" type="curve" smooth="yes"/>
      <point x="1096" y="259"/>
      <point x="1056" y="341"/>
      <point x="958" y="341" type="curve" smooth="yes"/>
    </contour>
    <contour>
      <point x="1043" y="327"/>
      <point x="1080" y="254"/>
      <point x="1080" y="174" type="curve" smooth="yes"/>
      <point x="1080" y="94"/>
      <point x="1043" y="22"/>
      <point x="958" y="22" type="curve" smooth="yes"/>
      <point x="872" y="22"/>
      <point x="834" y="94"/>
      <point x="834" y="174" type="curve" smooth="yes"/>
      <point x="834" y="254"/>
      <point x="871" y="327"/>
      <point x="958" y="327" type="curve" smooth="yes"/>
    </contour>
    <component base="percent"/>
  </outline>
</glyph>
<glyph name="guilsinglleft" format="1">
  <advance width="310"/>
  <unicode hex="2039"/>
  <outline>
    <contour>
      <point x="262" y="56" type="line"/>
      <point x="273" y="68" type="line"/>
      <point x="85" y="250" type="line"/>
      <point x="273" y="432" type="line"/>
      <point x="262" y="444" type="line"/>
      <point x="61" y="250" type="line"/>
    </contour>
  </outline>
</glyph>
<glyph name="fraction" format="1">
  <advance width="466"/>
  <unicode hex="2044"/>
  <outline>
    <contour>
      <point x="447" y="660" type="line"/>
      <point x="0" y="0" type="line"/>
      <point x="18" y="0" type="line"/>
      <point x="466" y="660" type="line"/>
    </contour>
  </outline>
</glyph>
<glyph name="zerosuperior" format="1">
  <advance width="360"/>
  <unicode hex="2070"/>
  <outline>
    <contour>
      <point x="88" y="670"/>
      <point x="35" y="605"/>
      <point x="35" y="488" type="curve" smooth="yes"/>
      <point x="35" y="371"/>
      <point x="88" y="306"/>
      <point x="180" y="306" type="curve" smooth="yes"/>
      <point x="272" y="306"/>
      <point x="325" y="371"/>
      <point x="325" y="488" type="curve" smooth="yes"/>
      <point x="325" y="605"/>
      <point x="272" y="670"/>
      <point x="180" y="670" type="curve" smooth="yes"/>
    </contour>
    <contour>
      <point x="261.755" y="656"/>
      <point x="309" y="598.533"/>
      <point x="309" y="488" type="curve" smooth="yes"/>
      <point x="309" y="377.467"/>
      <point x="261.755" y="320"/>
      <point x="180" y="320" type="curve" smooth="yes"/>
      <point x="98.245" y="320"/>
      <point x="51" y="377.467"/>
      <point x="51" y="488" type="curve" smooth="yes"/>
      <point x="51" y="598.533"/>
      <point x="98.245" y="656"/>
      <point x="180" y="656" type="curve" smooth="yes"/>
    </contour>
  </outline>
</glyph>
<glyph name="foursuperior" format="1">
  <advance width="253"/>
  <unicode hex="2074"/>
  <outline>
    <contour>
      <point x="160" y="730" type="line"/>
      <point x="15" y="511" type="line"/>
      <point x="24" y="504" type="line"/>
      <point x="52" y="539" type="line"/>
      <point x="150" y="690" type="line"/>
      <point x="171" y="730" type="line"/>
    </contour>
    <contour>
      <point x="77" y="511" type="line"/>
      <point x="15" y="511" type="line"/>
      <point x="15" y="497" type="line"/>
      <point x="261" y="497" type="line"/>
      <point x="261" y="511" type="line"/>
    </contour>
    <contour>
      <point x="179" y="504" type="line"/>
      <point x="179" y="730" type="line"/>
      <point x="163" y="730" type="line"/>
      <point x="163" y="504" type="line"/>
      <point x="163" y="376" type="line"/>
      <point x="179" y="376" type="line"/>
    </contour>
  </outline>
</glyph>
<glyph name="euro" format="1">
  <advance width="584"/>
  <unicode hex="20AC"/>
  <outline>
    <contour>
      <point x="189" y="670"/>
      <point x="92" y="543"/>
      <point x="92" y="330" type="curve" smooth="yes"/>
      <point x="92" y="117"/>
      <point x="190" y="-10"/>
      <point x="353" y="-10" type="curve" smooth="yes"/>
      <point x="447" y="-10"/>
      <point x="538" y="49"/>
      <point x="568" y="169" type="curve"/>
      <point x="554" y="176" type="line"/>
      <point x="526" y="61"/>
      <point x="443" y="4"/>
      <point x="353" y="4" type="curve" smooth="yes"/>
      <point x="200" y="4"/>
      <point x="108" y="126"/>
      <point x="108" y="330" type="curve" smooth="yes"/>
      <point x="108" y="534"/>
      <point x="199" y="656"/>
      <point x="352" y="656" type="curve" smooth="yes"/>
      <point x="451" y="656"/>
      <point x="517" y="609"/>
      <point x="548" y="518" type="curve"/>
      <point x="560" y="528" type="line"/>
      <point x="529" y="621"/>
      <point x="456" y="670"/>
      <point x="352" y="670" type="curve" smooth="yes"/>
    </contour>
    <contour>
      <point x="6" y="253" type="line"/>
      <point x="6" y="238" type="line"/>
      <point x="336" y="238" type="line"/>
      <point x="336" y="253" type="line"/>
    </contour>
    <contour>
      <point x="6" y="414" type="line"/>
      <point x="6" y="399" type="line"/>
      <point x="336" y="399" type="line"/>
      <point x="336" y="414" type="line"/>
    </contour>
  </outline>
</glyph>
<glyph name="liraTurkish" format="1">
  <advance width="596"/>
  <unicode hex="20BA"/>
  <outline>
    <contour>
      <point x="536" y="257" type="line"/>
      <point x="536" y="105"/>
      <point x="448" y="14"/>
      <point x="301" y="14" type="curve" smooth="yes"/>
      <point x="182" y="14" type="line"/>
      <point x="182" y="0" type="line"/>
      <point x="310" y="0" type="line" smooth="yes"/>
      <point x="461" y="0"/>
      <point x="551" y="96"/>
      <point x="551" y="257" type="curve"/>
    </contour>
    <contour>
      <point x="174" y="660" type="line"/>
      <point x="174" y="0" type="line"/>
      <point x="190" y="0" type="line"/>
      <point x="190" y="660" type="line"/>
    </contour>
    <contour>
      <point x="57" y="261" type="line"/>
      <point x="57" y="246" type="line"/>
      <point x="417" y="352" type="line"/>
      <point x="417" y="367" type="line"/>
    </contour>
    <contour>
      <point x="57" y="391" type="line"/>
      <point x="57" y="376" type="line"/>
      <point x="417" y="483" type="line"/>
      <point x="417" y="498" type="line"/>
    </contour>
  </outline>
</glyph>
<glyph name="uni20BD" format="1">
  <advance width="585"/>
  <unicode hex="20BD"/>
  <outline>
    <contour>
      <point x="108" y="660" type="line"/>
      <point x="108" y="646" type="line"/>
      <point x="304" y="646" type="line" smooth="yes"/>
      <point x="435" y="646"/>
      <point x="513" y="582"/>
      <point x="513" y="475" type="curve" smooth="yes"/>
      <point x="513" y="368"/>
      <point x="435" y="305"/>
      <point x="304" y="305" type="curve" smooth="yes"/>
      <point x="8" y="305" type="line"/>
      <point x="8" y="291" type="line"/>
      <point x="304" y="291" type="line" smooth="yes"/>
      <point x="445" y="291"/>
      <point x="529" y="359"/>
      <point x="529" y="475" type="curve" smooth="yes"/>
      <point x="529" y="591"/>
      <point x="445" y="660"/>
      <point x="304" y="660" type="curve" smooth="yes"/>
    </contour>
    <contour>
      <point x="100" y="660" type="line"/>
      <point x="100" y="0" type="line"/>
      <point x="116" y="0" type="line"/>
      <point x="116" y="660" type="line"/>
    </contour>
    <contour>
      <point x="351" y="192" type="line" smooth="yes"/>
      <point x="8" y="192" type="line"/>
      <point x="8" y="178" type="line"/>
      <point x="351" y="178" type="line"/>
    </contour>
  </outline>
</glyph>
<glyph name="literSign" format="1">
  <advance width="341"/>
  <unicode hex="2113"/>
  <outline>
    <contour>
      <point x="128" y="562" type="line" smooth="yes"/>
      <point x="128" y="624"/>
      <point x="150" y="656"/>
      <point x="194" y="656" type="curve" smooth="yes"/>
      <point x="237" y="656"/>
      <point x="259" y="626"/>
      <point x="259" y="567" type="curve" smooth="yes"/>
      <point x="259" y="415"/>
      <point x="169" y="284"/>
      <point x="37" y="231" type="curve"/>
      <point x="37" y="214" type="line"/>
      <point x="181" y="276"/>
      <point x="275" y="415"/>
      <point x="275" y="567" type="curve" smooth="yes"/>
      <point x="275" y="635"/>
      <point x="248" y="670"/>
      <point x="194" y="670" type="curve" smooth="yes"/>
      <point x="140" y="670"/>
      <point x="112" y="634"/>
      <point x="112" y="562" type="curve" smooth="yes"/>
      <point x="112" y="104" type="line" smooth="yes"/>
      <point x="112" y="24"/>
      <point x="143" y="-10"/>
      <point x="215" y="-10" type="curve" smooth="yes"/>
      <point x="248" y="-10"/>
      <point x="269" y="-4"/>
      <point x="285" y="8" type="curve"/>
      <point x="284" y="24" type="line"/>
      <point x="268" y="12"/>
      <point x="248" y="6"/>
      <point x="219" y="6" type="curve" smooth="yes"/>
      <point x="155" y="6"/>
      <point x="128" y="35"/>
      <point x="128" y="104" type="curve" smooth="yes"/>
    </contour>
  </outline>
</glyph>
<glyph name="uni2113" format="1">
  <advance width="317"/>
  <unicode hex="2113"/>
  <outline>
    <contour>
      <point x="236" y="-10"/>
      <point x="257" y="-4"/>
      <point x="273" y="8" type="curve"/>
      <point x="272" y="24" type="line"/>
      <point x="256" y="12"/>
      <point x="236" y="6"/>
      <point x="207" y="6" type="curve" smooth="yes"/>
      <point x="143" y="6"/>
      <point x="116" y="35"/>
      <point x="116" y="104" type="curve" smooth="yes"/>
      <point x="116" y="562" type="line" smooth="yes"/>
      <point x="116" y="624"/>
      <point x="138" y="656"/>
      <point x="182" y="656" type="curve" smooth="yes"/>
      <point x="225" y="656"/>
      <point x="247" y="626"/>
      <point x="247" y="567" type="curve" smooth="yes"/>
      <point x="247" y="415"/>
      <point x="157" y="284"/>
      <point x="25" y="231" type="curve"/>
      <point x="25" y="214" type="line"/>
      <point x="169" y="276"/>
      <point x="263" y="415"/>
      <point x="263" y="567" type="curve" smooth="yes"/>
      <point x="263" y="635"/>
      <point x="236" y="670"/>
      <point x="182" y="670" type="curve" smooth="yes"/>
      <point x="128" y="670"/>
      <point x="100" y="634"/>
      <point x="100" y="562" type="curve" smooth="yes"/>
      <point x="100" y="104" type="line" smooth="yes"/>
      <point x="100" y="24"/>
      <point x="131" y="-10"/>
      <point x="203" y="-10" type="curve" smooth="yes"/>
    </contour>
  </outline>
</glyph>
<glyph name="trademark" format="1">
  <advance width="751"/>
  <unicode hex="2122"/>
  <outline>
    <contour>
      <point x="638" y="660" type="line"/>
      <point x="497" y="330" type="line"/>
      <point x="516" y="330" type="line"/>
      <point x="655" y="660" type="line"/>
    </contour>
    <contour>
      <point x="147" y="660" type="line"/>
      <point x="147" y="330" type="line"/>
      <point x="163" y="330" type="line"/>
      <point x="163" y="660" type="line"/>
    </contour>
    <contour>
      <point x="19" y="660" type="line"/>
      <point x="19" y="646" type="line"/>
      <point x="290" y="646" type="line"/>
      <point x="290" y="660" type="line"/>
    </contour>
    <contour>
      <point x="351" y="660" type="line"/>
      <point x="351" y="538" type="line"/>
      <point x="351" y="330" type="line"/>
      <point x="367" y="330" type="line"/>
      <point x="367" y="538" type="line"/>
      <point x="365" y="660" type="line"/>
    </contour>
    <contour>
      <point x="358" y="660" type="line"/>
      <point x="497" y="330" type="line"/>
      <point x="516" y="330" type="line"/>
      <point x="375" y="660" type="line"/>
    </contour>
    <contour>
      <point x="648" y="660" type="line"/>
      <point x="646" y="538" type="line"/>
      <point x="646" y="330" type="line"/>
      <point x="662" y="330" type="line"/>
      <point x="662" y="538" type="line"/>
      <point x="662" y="660" type="line"/>
    </contour>
  </outline>
</glyph>
<glyph name="Ohm" format="1">
  <advance width="731"/>
  <unicode hex="2126"/>
  <outline>
    <contour>
      <point x="183" y="670"/>
      <point x="65" y="540"/>
      <point x="65" y="340" type="curve" smooth="yes"/>
      <point x="65" y="164"/>
      <point x="156" y="53"/>
      <point x="291" y="3" type="curve"/>
      <point x="297" y="13" type="line"/>
      <point x="169" y="60"/>
      <point x="81" y="167"/>
      <point x="81" y="340" type="curve" smooth="yes"/>
      <point x="81" y="532"/>
      <point x="193" y="656"/>
      <point x="366" y="656" type="curve" smooth="yes"/>
      <point x="538" y="656"/>
      <point x="650" y="532"/>
      <point x="650" y="340" type="curve" smooth="yes"/>
      <point x="650" y="167"/>
      <point x="562" y="60"/>
      <point x="434" y="13" type="curve"/>
      <point x="439" y="3" type="line"/>
      <point x="575" y="53"/>
      <point x="666" y="164"/>
      <point x="666" y="340" type="curve" smooth="yes"/>
      <point x="666" y="540"/>
      <point x="548" y="670"/>
      <point x="366" y="670" type="curve" smooth="yes"/>
    </contour>
    <contour>
      <point x="64" y="1" type="line"/>
      <point x="297" y="0" type="line"/>
      <point x="297" y="13" type="line"/>
      <point x="64" y="14" type="line"/>
    </contour>
    <contour>
      <point x="434" y="13" type="line"/>
      <point x="434" y="0" type="line"/>
      <point x="667" y="1" type="line"/>
      <point x="667" y="14" type="line"/>
    </contour>
  </outline>
</glyph>
<glyph name="uni2126" format="1">
  <advance width="707"/>
  <unicode hex="2126"/>
  <outline>
    <contour>
      <point x="171" y="670"/>
      <point x="53" y="540"/>
      <point x="53" y="340" type="curve" smooth="yes"/>
      <point x="53" y="164"/>
      <point x="144" y="53"/>
      <point x="279" y="3" type="curve"/>
      <point x="285" y="13" type="line"/>
      <point x="157" y="60"/>
      <point x="69" y="167"/>
      <point x="69" y="340" type="curve" smooth="yes"/>
      <point x="69" y="532"/>
      <point x="181" y="656"/>
      <point x="354" y="656" type="curve" smooth="yes"/>
      <point x="526" y="656"/>
      <point x="638" y="532"/>
      <point x="638" y="340" type="curve" smooth="yes"/>
      <point x="638" y="167"/>
      <point x="550" y="60"/>
      <point x="422" y="13" type="curve"/>
      <point x="427" y="3" type="line"/>
      <point x="563" y="53"/>
      <point x="654" y="164"/>
      <point x="654" y="340" type="curve" smooth="yes"/>
      <point x="654" y="540"/>
      <point x="536" y="670"/>
      <point x="354" y="670" type="curve" smooth="yes"/>
    </contour>
    <contour>
      <point x="52" y="1" type="line"/>
      <point x="285" y="0" type="line"/>
      <point x="285" y="13" type="line"/>
      <point x="52" y="14" type="line"/>
    </contour>
    <contour>
      <point x="422" y="13" type="line"/>
      <point x="422" y="0" type="line"/>
      <point x="655" y="1" type="line"/>
      <point x="655" y="14" type="line"/>
    </contour>
  </outline>
</glyph>
<glyph name="estimated" format="1">
  <advance width="755"/>
  <unicode hex="212E"/>
  <outline>
    <contour>
      <point x="723" y="320" type="line"/>
      <point x="723" y="323"/>
      <point x="723" y="326"/>
      <point x="723" y="330" type="curve" smooth="yes"/>
      <point x="723" y="518"/>
      <point x="568" y="670"/>
      <point x="377" y="670" type="curve" smooth="yes"/>
      <point x="187" y="670"/>
      <point x="32" y="518"/>
      <point x="32" y="330" type="curve" smooth="yes"/>
      <point x="32" y="142"/>
      <point x="187" y="-9"/>
      <point x="377" y="-9" type="curve" smooth="yes"/>
      <point x="489" y="-9"/>
      <point x="588" y="43"/>
      <point x="651" y="122" type="curve"/>
      <point x="610" y="122" type="line"/>
      <point x="556" y="54"/>
      <point x="467" y="10"/>
      <point x="378" y="10" type="curve" smooth="yes"/>
      <point x="295" y="10"/>
      <point x="221" y="39"/>
      <point x="167" y="100" type="curve"/>
      <point x="162" y="106"/>
      <point x="159" y="113"/>
      <point x="159" y="121" type="curve" smooth="yes"/>
      <point x="159" y="316" type="line" smooth="yes"/>
      <point x="159" y="319"/>
      <point x="161" y="320"/>
      <point x="164" y="320" type="curve" smooth="yes"/>
    </contour>
    <contour>
      <point x="596" y="345" type="line" smooth="yes"/>
      <point x="596" y="343"/>
      <point x="595" y="339"/>
      <point x="592" y="339" type="curve" smooth="yes"/>
      <point x="164" y="339" type="line" smooth="yes"/>
      <point x="161" y="339"/>
      <point x="159" y="343"/>
      <point x="159" y="345" type="curve" smooth="yes"/>
      <point x="159" y="537" type="line" smooth="yes"/>
      <point x="159" y="546"/>
      <point x="162" y="554"/>
      <point x="167" y="560" type="curve" smooth="yes"/>
      <point x="221" y="620"/>
      <point x="296" y="649"/>
      <point x="378" y="649" type="curve" smooth="yes"/>
      <point x="459" y="649"/>
      <point x="534" y="621"/>
      <point x="588" y="563" type="curve" smooth="yes"/>
      <point x="593" y="557"/>
      <point x="596" y="549"/>
      <point x="596" y="541" type="curve" smooth="yes"/>
    </contour>
  </outline>
</glyph>
<glyph name="partialdiff" format="1">
  <advance width="587"/>
  <unicode hex="2202"/>
  <outline>
    <contour>
      <point x="430" y="-10"/>
      <point x="514" y="111"/>
      <point x="514" y="330" type="curve" smooth="yes"/>
      <point x="514" y="562"/>
      <point x="436" y="670"/>
      <point x="269" y="670" type="curve" smooth="yes"/>
      <point x="208" y="670"/>
      <point x="155" y="649"/>
      <point x="116" y="600" type="curve"/>
      <point x="128" y="589" type="line"/>
      <point x="158" y="634"/>
      <point x="205" y="656"/>
      <point x="269" y="656" type="curve" smooth="yes"/>
      <point x="425" y="656"/>
      <point x="498" y="552"/>
      <point x="498" y="330" type="curve" smooth="yes"/>
      <point x="498" y="120"/>
      <point x="420" y="4"/>
      <point x="278" y="4" type="curve" smooth="yes"/>
      <point x="162" y="4"/>
      <point x="81" y="87"/>
      <point x="81" y="205" type="curve" smooth="yes"/>
      <point x="81" y="318"/>
      <point x="160" y="399"/>
      <point x="273" y="400" type="curve" smooth="yes"/>
      <point x="386" y="399"/>
      <point x="473" y="344"/>
      <point x="499" y="235" type="curve"/>
      <point x="506" y="248" type="line"/>
      <point x="480" y="354"/>
      <point x="394" y="413"/>
      <point x="274" y="414" type="curve" smooth="yes"/>
      <point x="151" y="413"/>
      <point x="65" y="329"/>
      <point x="65" y="204" type="curve" smooth="yes"/>
      <point x="65" y="78"/>
      <point x="153" y="-10"/>
      <point x="279" y="-10" type="curve" smooth="yes"/>
    </contour>
  </outline>
</glyph>
<glyph name="increment" format="1">
  <advance width="617"/>
  <unicode hex="2206"/>
  <outline>
    <contour>
      <point x="34" y="14" type="line"/>
      <point x="50" y="10" type="line"/>
      <point x="314" y="660" type="line"/>
      <point x="298" y="660" type="line"/>
    </contour>
    <contour>
      <point x="34" y="14" type="line"/>
      <point x="34" y="0" type="line"/>
      <point x="583" y="0" type="line"/>
      <point x="583" y="14" type="line"/>
    </contour>
    <contour>
      <point x="304" y="660" type="line"/>
      <point x="567" y="10" type="line"/>
      <point x="583" y="14" type="line"/>
      <point x="321" y="660" type="line"/>
    </contour>
  </outline>
</glyph>
<glyph name="product" format="1">
  <advance width="608"/>
  <unicode hex="220F"/>
  <outline>
    <contour>
      <point x="522" y="660" type="line"/>
      <point x="522" y="-128" type="line"/>
      <point x="538" y="-128" type="line"/>
      <point x="538" y="660" type="line"/>
    </contour>
    <contour>
      <point x="70" y="660" type="line"/>
      <point x="70" y="-128" type="line"/>
      <point x="86" y="-128" type="line"/>
      <point x="86" y="660" type="line"/>
    </contour>
    <contour>
      <point x="78" y="660" type="line"/>
      <point x="78" y="646" type="line"/>
      <point x="531" y="646" type="line"/>
      <point x="531" y="660" type="line"/>
    </contour>
  </outline>
</glyph>
<glyph name="summation" format="1">
  <advance width="680"/>
  <unicode hex="2211"/>
  <outline>
    <contour>
      <point x="101" y="646" type="line"/>
      <point x="448" y="285" type="line"/>
      <point x="469" y="285" type="line"/>
      <point x="114" y="655" type="line"/>
    </contour>
    <contour>
      <point x="101" y="646" type="line"/>
      <point x="597" y="646" type="line"/>
      <point x="597" y="660" type="line"/>
      <point x="101" y="660" type="line"/>
    </contour>
    <contour>
      <point x="469" y="285" type="line"/>
      <point x="448" y="285" type="line"/>
      <point x="101" y="-114" type="line"/>
      <point x="114" y="-121" type="line"/>
    </contour>
    <contour>
      <point x="597" y="-128" type="line"/>
      <point x="597" y="-114" type="line"/>
      <point x="101" y="-114" type="line"/>
      <point x="101" y="-128" type="line"/>
    </contour>
  </outline>
</glyph>
<glyph name="minus" format="1">
  <advance width="577"/>
  <unicode hex="2212"/>
  <outline>
    <contour>
      <point x="57" y="300" type="line"/>
      <point x="57" y="286" type="line"/>
      <point x="520" y="286" type="line"/>
      <point x="520" y="300" type="line"/>
    </contour>
  </outline>
</glyph>
<glyph name="radical" format="1">
  <advance width="562"/>
  <unicode hex="221A"/>
  <outline>
    <contour>
      <point x="266" y="0" type="line"/>
      <point x="130" y="341" type="line"/>
      <point x="15" y="341" type="line"/>
      <point x="15" y="327" type="line"/>
      <point x="119" y="327" type="line"/>
      <point x="246" y="0" type="line"/>
    </contour>
    <contour>
      <point x="275" y="0" type="line"/>
      <point x="589" y="818" type="line"/>
      <point x="574" y="818" type="line"/>
      <point x="256" y="0" type="line"/>
    </contour>
  </outline>
</glyph>
<glyph name="infinity" format="1">
  <advance width="828"/>
  <unicode hex="221E"/>
  <outline>
    <contour>
      <point x="255" y="461"/>
      <point x="261" y="456"/>
      <point x="412" y="271" type="curve" smooth="yes"/>
      <point x="557" y="95"/>
      <point x="563" y="90"/>
      <point x="642" y="90" type="curve" smooth="yes"/>
      <point x="720" y="90"/>
      <point x="787" y="158"/>
      <point x="787" y="282" type="curve" smooth="yes"/>
      <point x="787" y="407"/>
      <point x="720" y="475"/>
      <point x="642" y="475" type="curve" smooth="yes"/>
      <point x="563" y="475"/>
      <point x="550" y="462"/>
      <point x="408" y="288" type="curve" smooth="yes"/>
      <point x="260" y="107"/>
      <point x="253" y="104"/>
      <point x="190" y="104" type="curve" smooth="yes"/>
      <point x="119" y="104"/>
      <point x="57" y="174"/>
      <point x="57" y="282" type="curve" smooth="yes"/>
      <point x="57" y="391"/>
      <point x="119" y="461"/>
      <point x="190" y="461" type="curve" smooth="yes"/>
    </contour>
    <contour>
      <point x="108" y="475"/>
      <point x="41" y="407"/>
      <point x="41" y="282" type="curve" smooth="yes"/>
      <point x="41" y="158"/>
      <point x="108" y="90"/>
      <point x="187" y="90" type="curve" smooth="yes"/>
      <point x="267" y="90"/>
      <point x="274" y="98"/>
      <point x="417" y="275" type="curve" smooth="yes"/>
      <point x="552" y="442"/>
      <point x="578" y="461"/>
      <point x="639" y="461" type="curve" smooth="yes"/>
      <point x="709" y="461"/>
      <point x="771" y="391"/>
      <point x="771" y="282" type="curve" smooth="yes"/>
      <point x="771" y="174"/>
      <point x="709" y="102"/>
      <point x="638" y="104" type="curve" smooth="yes"/>
      <point x="573" y="105"/>
      <point x="566" y="111"/>
      <point x="413" y="297" type="curve" smooth="yes"/>
      <point x="272" y="470"/>
      <point x="265" y="475"/>
      <point x="187" y="475" type="curve" smooth="yes"/>
    </contour>
  </outline>
</glyph>
<glyph name="integral" format="1">
  <advance width="349"/>
  <unicode hex="222B"/>
  <outline>
    <contour>
      <point x="179" y="-79"/>
      <point x="139" y="-114"/>
      <point x="66" y="-114" type="curve" smooth="yes"/>
      <point x="44" y="-114"/>
      <point x="25" y="-108"/>
      <point x="6" y="-96" type="curve"/>
      <point x="0" y="-108" type="line"/>
      <point x="19" y="-121"/>
      <point x="42" y="-128"/>
      <point x="70" y="-128" type="curve" smooth="yes"/>
      <point x="151" y="-128"/>
      <point x="195" y="-88"/>
      <point x="195" y="3" type="curve" smooth="yes"/>
      <point x="195" y="627" type="line" smooth="yes"/>
      <point x="195" y="706"/>
      <point x="236" y="744"/>
      <point x="305" y="744" type="curve" smooth="yes"/>
      <point x="328" y="744"/>
      <point x="349" y="740"/>
      <point x="365" y="728" type="curve"/>
      <point x="370" y="741" type="line"/>
      <point x="354" y="752"/>
      <point x="333" y="758"/>
      <point x="305" y="758" type="curve" smooth="yes"/>
      <point x="226" y="758"/>
      <point x="179" y="715"/>
      <point x="179" y="627" type="curve" smooth="yes"/>
      <point x="179" y="3" type="line" smooth="yes"/>
    </contour>
  </outline>
</glyph>
